<svg viewBox="0 0 24 24" fill="none" xmlns="http://www.w3.org/2000/svg">
<path fill-rule="evenodd" clip-rule="evenodd" d="M13.3428 13.9082C13.5189 13.6587 13.475 13.321 13.2254 13.1449C12.8144 12.8367 12.3741 12.6165 11.8896 12.455C12.7556 11.8238 13.3281 10.7963 13.3281 9.63672C13.3281 7.69915 11.7576 6.14322 9.83457 6.14322C7.91177 6.14322 6.34106 7.71384 6.34106 9.63672C6.34106 10.811 6.92824 11.8532 7.82361 12.4844C5.40179 13.3651 4.50624 15.5228 4.46234 15.6403C4.35949 15.9192 4.49173 16.2421 4.77054 16.3448C4.82931 16.3742 4.90259 16.3889 4.97606 16.3889C5.19627 16.3889 5.40179 16.2568 5.48977 16.0366L5.49282 16.0295C5.56807 15.8506 6.59676 13.4059 9.57046 13.2183C10.7593 13.1449 11.7429 13.4091 12.5795 14.0256C12.8291 14.2018 13.1666 14.1577 13.3428 13.9082ZM9.83457 7.22944C11.1557 7.22944 12.2272 8.30097 12.2272 9.62205C12.2272 10.9431 11.1557 12.0147 9.83457 12.0147C8.51364 12.0147 7.44196 10.9431 7.44196 9.62205C7.44196 8.30097 8.51364 7.22944 9.83457 7.22944Z" fill="#9CCAFF"/>
<path d="M16.7042 12.8367C16.9244 12.6312 17.2767 12.6312 17.4822 12.8513L17.4675 12.8367C17.6731 13.0568 17.6731 13.4091 17.4528 13.6146L13.2695 17.6365C13.1666 17.7246 13.0199 17.7833 12.8878 17.7833C12.7556 17.7833 12.6088 17.7246 12.5062 17.6219L10.7301 15.8751C10.5246 15.6549 10.5099 15.3173 10.7301 15.0972C10.9502 14.8917 11.2877 14.877 11.5079 15.0972L12.9025 16.4769L16.7042 12.8367Z" fill="#9CCAFF"/>
<path fill-rule="evenodd" clip-rule="evenodd" d="M10.275 1.72498C4.60909 1.72498 0 6.33405 0 12C0 17.6659 4.60909 22.275 10.275 22.275C15.9409 22.275 20.55 17.6659 20.55 12C20.55 6.33405 15.9556 1.72498 10.275 1.72498ZM10.275 21.1888C5.21096 21.1888 1.10089 17.0641 1.10089 12.0147C1.10089 6.96523 5.22566 2.82587 10.275 2.82587C15.3243 2.82587 19.4491 6.95055 19.4491 12C19.4491 17.0494 15.3243 21.1741 10.275 21.1741V21.1888Z" fill="#9CCAFF"/>
</svg>
