<svg width="44" height="44" viewBox="0 0 44 44" fill="none" xmlns="http://www.w3.org/2000/svg">
<path d="M25.5602 19.0491C27.0193 19.0494 27.1579 20.6184 27.1579 20.6184V25.803C27.1575 25.8523 27.108 30.0888 22.3698 30.0891C22.3079 30.0891 22.2531 30.0804 22.1989 30.0803L17.6423 21.8059H17.7429C18.9538 21.3091 19.8626 20.6174 20.5612 19.8567C20.7674 20.2385 20.808 20.6132 20.8093 20.6252V25.8118C20.8157 25.849 21.0683 27.262 22.363 27.262C23.6582 27.2609 23.9462 25.8453 23.9528 25.8118V20.6252C23.9552 20.5998 24.1061 19.0579 25.5534 19.0579L25.5602 19.0491ZM30.4587 19.0579C31.9039 19.0583 32.0537 20.5967 32.0563 20.6252V28.3655C32.0543 28.39 31.9284 29.8621 30.4587 29.8625C28.9873 29.8625 28.8609 28.388 28.8591 28.3655V20.6252C28.8615 20.5987 29.0118 19.0579 30.4587 19.0579ZM25.5534 14.1975C26.4611 14.1982 27.1911 14.9293 27.1911 15.8372C27.1904 16.7444 26.4607 17.4742 25.5534 17.4749C24.6456 17.4749 23.9145 16.7448 23.9138 15.8372C23.9138 14.9289 24.6529 14.1975 25.5534 14.1975ZM30.4587 14.1975C31.3667 14.1978 32.0964 14.929 32.0964 15.8372C32.0957 16.7447 31.3663 17.4746 30.4587 17.4749C29.5509 17.4748 28.8217 16.7448 28.821 15.8372C28.821 14.9289 29.5582 14.1975 30.4587 14.1975ZM30.4587 9.46997C31.3626 9.47021 32.0956 10.2029 32.0964 11.1067C32.0964 12.0112 31.3631 12.7471 30.4587 12.7473C29.5541 12.7473 28.821 12.0113 28.821 11.1067C28.8218 10.2027 29.5546 9.46998 30.4587 9.46997Z" fill="#9CCAFF"/>
<path d="M8.24133 33.3883L9.05143 33.6611L9.04865 33.6704C9.04723 33.6745 9.04486 33.6794 9.04308 33.6843C9.03955 33.694 9.03512 33.7058 9.03009 33.7186C9.01993 33.7446 9.00719 33.7769 8.99019 33.8142C8.9559 33.8894 8.9057 33.987 8.83708 34.0982C8.69965 34.3208 8.48447 34.6007 8.1606 34.8749C7.49835 35.4354 6.45092 35.9123 4.85617 35.9123C3.28763 35.9123 2.27835 35.495 1.64454 34.9705C1.33325 34.7128 1.13225 34.4451 1.00611 34.2262C0.943452 34.1175 0.899807 34.0211 0.869697 33.9451C0.854701 33.9072 0.843292 33.874 0.834435 33.8467C0.829991 33.833 0.825509 33.8204 0.822371 33.8096C0.820838 33.8043 0.819909 33.7993 0.81866 33.7947C0.818042 33.7925 0.817355 33.7903 0.816804 33.7882C0.816521 33.7872 0.816142 33.7855 0.815876 33.7845C0.819558 33.7828 0.873705 33.7667 1.64268 33.5664L0.814948 33.7817L0.787109 33.6759V5.98452C0.78718 5.49259 1.01618 4.90158 1.41069 4.41811C1.82877 3.90578 2.47694 3.45793 3.36681 3.33611L3.42434 3.32868H3.4828C3.56221 3.32868 3.60124 3.32836 3.61736 3.32775C3.62219 3.32725 3.62705 3.32542 3.6322 3.32497C3.71323 3.31798 3.77888 3.32407 3.78903 3.32497C3.80278 3.32618 3.81993 3.32822 3.82429 3.32868H13.114C13.1343 3.32879 13.1634 3.32892 13.1994 3.32961C13.2714 3.33099 13.3741 3.3343 13.5028 3.34074C13.7602 3.35363 14.1241 3.38018 14.5616 3.4354C15.4338 3.54549 16.6172 3.77149 17.8391 4.23809C20.2142 5.14506 22.8296 7.01253 23.4374 10.745L23.4903 11.1125L23.4913 11.1208L23.5349 11.6748C23.5772 12.3591 23.6114 13.3495 23.6054 13.8741V13.8778C23.5815 15.3491 23.2529 18.038 21.3774 20.2251L21.1909 20.4357C20.5706 21.1111 19.7947 21.7229 18.8432 22.2202L23.6351 30.9292L23.7103 31.0043L23.7724 31.2131L22.9521 31.4553C23.7532 31.2191 23.7718 31.2127 23.7724 31.2131V31.215L23.7752 31.2233C23.7763 31.2273 23.7776 31.2323 23.7789 31.2372C23.7816 31.247 23.7849 31.2591 23.7882 31.2725C23.7948 31.2996 23.8026 31.3344 23.8105 31.3755C23.8262 31.458 23.8423 31.5689 23.8513 31.7022C23.8694 31.9688 23.8581 32.3331 23.7483 32.7489C23.5211 33.6089 22.9013 34.5783 21.5231 35.3509L21.524 35.3518C20.2056 36.0948 19.159 36.2505 18.3773 36.1527C17.9918 36.1044 17.6906 35.9972 17.4735 35.8891C17.3656 35.8354 17.2788 35.782 17.2137 35.737C17.206 35.7317 17.1994 35.7253 17.1923 35.7202C17.1752 35.711 17.1556 35.7026 17.1367 35.6915C17.0411 35.6355 16.925 35.5554 16.798 35.4437C16.5447 35.221 16.2608 34.8825 16.0129 34.3784L10.5232 23.7708H9.09597V33.5275L9.05236 33.6592L8.24133 33.3883ZM15.3504 13.8954C15.3504 12.9695 15.1354 12.3568 14.8669 11.9448C14.5973 11.5314 14.2362 11.262 13.8536 11.0837C13.4651 10.9027 13.0644 10.821 12.7521 10.7867C12.5984 10.7699 12.4718 10.7652 12.3874 10.7645C12.3458 10.7641 12.3149 10.7648 12.2965 10.7654C12.2894 10.7656 12.2838 10.7653 12.2807 10.7654L12.2816 10.7663L12.2529 10.7682H9.09597V17.0227H12.6593L12.6918 17.0245H12.6983C12.7125 17.025 12.7383 17.0258 12.7734 17.0255C12.844 17.0248 12.9513 17.0211 13.0824 17.005C13.3491 16.9724 13.6907 16.894 14.0225 16.722C14.3468 16.5538 14.6656 16.2943 14.9087 15.8794C15.1531 15.462 15.3503 14.8373 15.3504 13.8954ZM3.84006 5.02129C3.81256 5.02587 3.78599 5.02652 3.76119 5.02871C3.76711 5.02834 3.7736 5.02924 3.77975 5.02871L3.84006 5.02129ZM17.0606 13.8954C17.0605 15.0801 16.8105 16.0163 16.3841 16.7443C15.9561 17.4748 15.3805 17.9454 14.8103 18.2411C14.2475 18.5329 13.6945 18.6529 13.2903 18.7023C13.0862 18.7272 12.9134 18.7346 12.7883 18.7357C12.7257 18.7363 12.6742 18.7352 12.6361 18.7338C12.6274 18.7335 12.6193 18.7332 12.612 18.7329H7.38576V9.05794H12.1916C12.2041 9.05731 12.2202 9.05673 12.2399 9.05609C12.2798 9.05478 12.3346 9.05369 12.4013 9.05423C12.5346 9.05531 12.7193 9.06264 12.9386 9.08671C13.3729 9.1344 13.9685 9.25035 14.5755 9.53306C15.1883 9.81855 15.8226 10.2795 16.2996 11.0113C16.7778 11.7449 17.0606 12.6943 17.0606 13.8954ZM2.49825 33.3864C2.53602 33.4484 2.60687 33.5468 2.73488 33.6527C3.00149 33.8734 3.59945 34.202 4.85617 34.2021C6.08707 34.2021 6.7327 33.8441 7.05634 33.5702C7.22515 33.4273 7.32636 33.2901 7.38205 33.1999C7.3835 33.1975 7.38437 33.1948 7.38576 33.1925V22.0606H11.5634L17.532 33.5924L17.5366 33.6026L17.5412 33.6119L17.6554 33.8207C17.7663 34.0024 17.8664 34.1059 17.9273 34.1594C17.9586 34.1869 17.9821 34.2026 17.9941 34.2104L18.0999 34.2504L18.1927 34.3329C18.2 34.3376 18.214 34.3464 18.2354 34.3571C18.2936 34.386 18.4099 34.4329 18.5898 34.4554C18.9397 34.4992 19.6199 34.4613 20.6842 33.8615L20.6861 33.8606L20.8661 33.7548C21.727 33.2236 22.0002 32.6697 22.0947 32.3118C22.1488 32.1068 22.1527 31.9329 22.1448 31.8172C22.1432 31.7933 22.1387 31.7723 22.1365 31.7541L16.1874 20.9424H17.5552C18.5692 20.5002 19.344 19.9174 19.9307 19.2786L20.0792 19.1115C21.5738 17.3677 21.8739 15.1611 21.8952 13.85C21.9023 13.201 21.8412 11.7686 21.7922 11.3222L21.7514 11.0336C21.2771 8.1005 19.2705 6.61556 17.2295 5.83604C16.1722 5.4323 15.1306 5.23144 14.3482 5.13265C13.959 5.08352 13.638 5.06018 13.4174 5.04913C13.3073 5.04362 13.2215 5.04092 13.166 5.03985C13.1384 5.03932 13.1181 5.03899 13.1056 5.03892H3.73521L3.69716 5.03428C3.69256 5.03449 3.68765 5.03597 3.68324 5.03614C3.65163 5.03735 3.61269 5.03664 3.56354 5.03707C3.1689 5.09981 2.90658 5.29083 2.7358 5.50012C2.64509 5.61137 2.58113 5.72636 2.54186 5.82584C2.50414 5.92144 2.49905 5.97784 2.49825 5.98452V33.3864Z" fill="#9CCAFF"/>
</svg>