<svg width="40" height="36" viewBox="0 0 40 36" fill="none" xmlns="http://www.w3.org/2000/svg">
<path fill-rule="evenodd" clip-rule="evenodd" d="M26.5724 18.1176C26.5724 21.617 23.8135 24.3211 20.3726 24.3211C16.8726 24.321 14.1678 21.5331 14.1678 18.1176C14.1678 14.702 16.9467 11.9141 20.3726 11.9141C23.7568 11.9141 26.5724 14.6181 26.5724 18.1176ZM20.3726 13.4071C17.7809 13.4071 15.6636 15.526 15.6633 18.1176C15.6633 20.7094 17.7807 22.8256 20.3726 22.8256C22.9636 22.8247 25.077 20.7089 25.077 18.1176C25.0766 15.5266 22.9634 13.4081 20.3726 13.4071Z" fill="#9CCAFF"/>
<path fill-rule="evenodd" clip-rule="evenodd" d="M18.7584 1.00005C20.1831 1.50434 19.7562 5.13516 19.7278 5.35305C19.9419 5.45537 20.1488 5.52999 20.3629 5.52999C21.593 5.52826 22.9265 3.46925 23.3368 2.66757L23.4022 2.57305C23.7201 2.2003 24.4929 1.65151 25.4139 1.96712L25.6102 2.03256C26.6921 2.39628 29.5719 3.35023 32.0888 5.93232C32.3498 6.29597 32.6025 7.04123 32.1736 7.8616L32.0888 8.02884C31.7154 8.73832 30.5899 10.8647 31.2236 11.7686C31.829 12.6346 32.2117 12.7456 32.4354 12.8108C32.5378 12.8388 32.6126 12.8702 32.6778 12.8981C32.8493 12.9355 34.1416 13.026 35.23 13.0726C35.8078 13.1658 36.7324 13.5861 36.9193 14.5923V14.5826C37.404 17.2484 37.4303 19.5419 37.0017 21.1921C37.011 21.1921 36.8633 22.8724 35.642 23.2546C35.288 23.3663 34.8502 23.3383 34.338 23.3104C33.285 23.2452 32.0914 23.1705 31.3641 24.2411C30.3236 25.774 32.022 28.1137 32.0525 28.1578C32.3788 28.7359 32.749 29.7945 32.0064 30.3974C31.2785 31.0599 28.6687 33.2852 25.7241 34.1711C25.6962 34.1804 25.3305 34.3019 24.8831 34.302C24.4545 34.3019 23.9515 34.1982 23.5694 33.7978C23.4018 33.6207 23.2234 33.3596 22.9999 33.015C22.4034 32.1017 21.4994 30.7137 20.3629 30.7124C20.1117 30.7124 19.9144 30.7311 19.7375 30.7682C19.8028 31.4028 20.034 34.1608 18.9813 34.8885H19.008C18.9337 34.9441 18.8594 34.9644 18.785 34.983C18.7763 34.9918 18.7671 34.9996 18.7584 35H10.7019C10.6524 35.0002 8.96373 34.998 8.08187 33.5191C7.18649 32.0268 2.57217 24.6814 0.791322 20.9521C-0.972616 17.258 0.758478 13.9467 0.791322 13.8845C0.838064 13.8118 6.67165 4.73973 7.95342 2.8542C9.23971 0.962806 10.4232 1.00005 10.4232 1.00005H18.7584ZM24.7619 3.39711C24.705 3.42361 24.652 3.46151 24.6141 3.49406C24.422 3.85226 23.9611 4.65336 23.3077 5.39426C22.6571 6.13155 21.7248 6.91698 20.6149 7.0133L20.3895 7.023C19.3044 7.02267 18.3824 6.35227 17.7113 5.66329C17.3 5.2409 16.9549 4.77791 16.6861 4.37872C14.7073 7.49705 11.0115 13.3392 8.36787 17.651L16.8315 31.6795C16.8364 31.6715 16.8438 31.6633 16.8485 31.6553L16.8509 31.6504L17.1466 31.1608C17.444 30.6823 17.7545 30.2425 18.15 29.9102C18.7101 29.4404 19.404 29.2075 20.3798 29.2073L20.7555 29.2315C21.6067 29.3409 22.3033 29.811 22.8472 30.3416C23.1567 30.6437 23.4312 30.9782 23.6688 31.3014L24.2747 32.1933L24.2772 32.1982L24.5171 32.5666C24.5811 32.6595 24.6336 32.7271 24.6674 32.7653C24.6674 32.7653 24.6903 32.7806 24.7304 32.7896C24.7882 32.8024 24.8662 32.8053 24.9558 32.7993C25.0434 32.7932 25.1285 32.7789 25.1909 32.7653C25.2209 32.7588 25.2459 32.7525 25.2612 32.7484L25.2782 32.7435H25.283L25.7871 32.5763C28.1696 31.7096 30.3099 29.9006 30.9157 29.3624C30.9141 29.3457 30.9155 29.3232 30.9109 29.2994C30.885 29.1673 30.8258 29.0207 30.78 28.9383C30.6208 28.7151 30.1577 28.0169 29.8445 27.1181C29.4825 26.0791 29.277 24.6512 30.1329 23.4001L30.3704 23.0874C31.6026 21.628 33.4065 21.7557 34.4229 21.815H34.4301L34.4374 21.8174L34.9537 21.8416C35.0272 21.8421 35.0898 21.8408 35.1379 21.8368C35.1609 21.8348 35.1804 21.8316 35.1936 21.8295L35.2057 21.8271L35.2663 21.7713C35.4885 21.4956 35.5004 21.0988 35.5863 20.7703C35.9319 19.2747 35.9096 17.2622 35.4626 14.8395C35.4473 14.7561 35.388 14.6806 35.2712 14.6141C35.2155 14.5824 35.1578 14.5603 35.1136 14.5462C35.0993 14.5417 35.0862 14.5388 35.0773 14.5365C33.8187 14.4811 33.1131 14.4237 32.7069 14.3741C32.3775 14.3339 32.2193 14.2886 32.1058 14.2433V14.2481L32.0961 14.2433C31.8862 14.1798 31.5716 14.087 31.2042 13.8385C30.9312 13.6538 30.6409 13.3939 30.334 13.0169L30.0238 12.6C29.4029 11.7063 29.5215 10.5747 29.7863 9.65031C30.0573 8.70527 30.5249 7.82037 30.7897 7.31869L30.7946 7.31142L30.877 7.15388C30.9452 7.01708 30.9443 6.92196 30.9376 6.87273C30.9347 6.85417 30.9247 6.83943 30.9206 6.82668C28.7334 4.64052 26.1683 3.77485 25.1715 3.44559L24.9655 3.38015L24.9558 3.37772C24.8967 3.35716 24.8361 3.36296 24.7619 3.39711Z" fill="#9CCAFF"/>
</svg>
