<svg viewBox="0 0 44 44" fill="none" xmlns="http://www.w3.org/2000/svg">
<path d="M36.7125 36.7126H3.7125C2.73011 36.7054 1.79 36.312 1.09532 35.6173C0.400645 34.9226 0.0071973 33.9825 0 33.0001V11.0001C0.0071973 10.0177 0.400645 9.07759 1.09532 8.38292C1.79 7.68824 2.73011 7.29479 3.7125 7.2876H36.7125C37.6949 7.29479 38.635 7.68824 39.3297 8.38292C40.0244 9.07759 40.4178 10.0177 40.425 11.0001V33.0001C40.4178 33.9825 40.0244 34.9226 39.3297 35.6173C38.635 36.312 37.6949 36.7054 36.7125 36.7126ZM3.7125 9.2126C3.23843 9.2126 2.78377 9.40092 2.44855 9.73614C2.11333 10.0714 1.925 10.526 1.925 11.0001V33.0001C1.925 33.4742 2.11333 33.9288 2.44855 34.2641C2.78377 34.5993 3.23843 34.7876 3.7125 34.7876H36.7125C37.1866 34.7876 37.6412 34.5993 37.9765 34.2641C38.3117 33.9288 38.5 33.4742 38.5 33.0001V11.0001C38.5 10.526 38.3117 10.0714 37.9765 9.73614C37.6412 9.40092 37.1866 9.2126 36.7125 9.2126H3.7125Z" fill="#9CCAFF"/>
<path d="M35.3375 16.0876H5.0875C4.83223 16.0876 4.58741 15.9862 4.40691 15.8057C4.22641 15.6252 4.125 15.3804 4.125 15.1251C4.125 14.8698 4.22641 14.625 4.40691 14.4445C4.58741 14.264 4.83223 14.1626 5.0875 14.1626H35.3375C35.5928 14.1626 35.8376 14.264 36.0181 14.4445C36.1986 14.625 36.3 14.8698 36.3 15.1251C36.3 15.3804 36.1986 15.6252 36.0181 15.8057C35.8376 15.9862 35.5928 16.0876 35.3375 16.0876Z" fill="#9CCAFF"/>
<path d="M21.23 30.6901H14.135C13.8797 30.6901 13.6349 30.5887 13.4544 30.4082C13.2739 30.2277 13.1725 29.9829 13.1725 29.7276C13.1725 29.4723 13.2739 29.2275 13.4544 29.047C13.6349 28.8665 13.8797 28.7651 14.135 28.7651H21.23C21.4853 28.7651 21.7301 28.8665 21.9106 29.047C22.0911 29.2275 22.1925 29.4723 22.1925 29.7276C22.1963 29.855 22.174 29.9819 22.127 30.1004C22.08 30.2189 22.0092 30.3265 21.9191 30.4167C21.8289 30.5068 21.7213 30.5776 21.6028 30.6246C21.4843 30.6716 21.3574 30.6939 21.23 30.6901Z" fill="#9CCAFF"/>
<path d="M7.425 31.0476C7.17045 31.0405 6.92675 30.943 6.7375 30.7726C6.56551 30.5849 6.4701 30.3396 6.4701 30.0851C6.4701 29.8305 6.56551 29.5852 6.7375 29.3976L10.6975 25.4376L6.7375 21.4776C6.5674 21.2945 6.47287 21.0538 6.47287 20.8038C6.47287 20.5539 6.5674 20.3132 6.7375 20.1301C6.82712 20.0386 6.93408 19.966 7.05213 19.9164C7.17019 19.8668 7.29695 19.8412 7.425 19.8412C7.55305 19.8412 7.67981 19.8668 7.79787 19.9164C7.91592 19.966 8.02288 20.0386 8.1125 20.1301L12.76 24.7501C12.9381 24.9346 13.0376 25.1811 13.0376 25.4376C13.0376 25.6941 12.9381 25.9405 12.76 26.1251L8.1125 30.7726C7.92325 30.943 7.67955 31.0405 7.425 31.0476Z" fill="#9CCAFF"/>
</svg>
