<svg viewBox="0 0 44 44" fill="none" xmlns="http://www.w3.org/2000/svg">
<path fill-rule="evenodd" clip-rule="evenodd" d="M5.91211 12.2375C5.69331 12.2375 5.48346 12.3244 5.32875 12.4791C5.17403 12.6339 5.08711 12.8437 5.08711 13.0625V30.9375C5.08711 31.1563 5.17403 31.3661 5.32875 31.5209C5.48346 31.6756 5.6933 31.7625 5.91211 31.7625H11.2746C11.8062 31.7625 12.2371 32.1934 12.2371 32.725C12.2371 33.2566 11.8062 33.6875 11.2746 33.6875H5.91211C5.18277 33.6875 4.48329 33.3978 3.96757 32.882C3.45184 32.3663 3.16211 31.6668 3.16211 30.9375V13.0625C3.16211 12.3332 3.45184 11.6337 3.96757 11.118C4.48329 10.6022 5.18276 10.3125 5.91211 10.3125H11.2746C11.8062 10.3125 12.2371 10.7434 12.2371 11.275C12.2371 11.8066 11.8062 12.2375 11.2746 12.2375H5.91211ZM31.7621 11.275C31.7621 10.7434 32.193 10.3125 32.7246 10.3125H38.0871C38.8165 10.3125 39.5159 10.6022 40.0317 11.118C40.5474 11.6337 40.8371 12.3332 40.8371 13.0625V30.9375C40.8371 31.6668 40.5474 32.3663 40.0317 32.882C39.5159 33.3978 38.8165 33.6875 38.0871 33.6875H32.7246C32.193 33.6875 31.7621 33.2566 31.7621 32.725C31.7621 32.1934 32.193 31.7625 32.7246 31.7625H38.0871C38.3059 31.7625 38.5158 31.6756 38.6705 31.5209C38.8252 31.3661 38.9121 31.1563 38.9121 30.9375V13.0625C38.9121 12.8437 38.8252 12.6339 38.6705 12.4791C38.5158 12.3244 38.3059 12.2375 38.0871 12.2375H32.7246C32.193 12.2375 31.7621 11.8066 31.7621 11.275Z" fill="#9CCAFF"/>
<path fill-rule="evenodd" clip-rule="evenodd" d="M8.57969 14.7949C9.11126 14.7949 9.54219 15.2258 9.54219 15.7574V28.2424C9.54219 28.774 9.11126 29.2049 8.57969 29.2049C8.04811 29.2049 7.61719 28.774 7.61719 28.2424V15.7574C7.61719 15.2258 8.04811 14.7949 8.57969 14.7949ZM10.3122 15.7574C10.3122 15.2258 10.7431 14.7949 11.2747 14.7949H14.0247C14.5563 14.7949 14.9872 15.2258 14.9872 15.7574V28.2424C14.9872 28.774 14.5563 29.2049 14.0247 29.2049H11.2747C10.7431 29.2049 10.3122 28.774 10.3122 28.2424V15.7574ZM12.2372 16.7199V27.2799H13.0622V16.7199H12.2372ZM16.4997 14.7949C17.0313 14.7949 17.4622 15.2258 17.4622 15.7574V28.2424C17.4622 28.774 17.0313 29.2049 16.4997 29.2049C15.9681 29.2049 15.5372 28.774 15.5372 28.2424V15.7574C15.5372 15.2258 15.9681 14.7949 16.4997 14.7949ZM19.2497 14.7949C19.7813 14.7949 20.2122 15.2258 20.2122 15.7574V28.2424C20.2122 28.774 19.7813 29.2049 19.2497 29.2049C18.7181 29.2049 18.2872 28.774 18.2872 28.2424V15.7574C18.2872 15.2258 18.7181 14.7949 19.2497 14.7949ZM21.0372 15.7574C21.0372 15.2258 21.4681 14.7949 21.9997 14.7949H24.7497C25.2813 14.7949 25.7122 15.2258 25.7122 15.7574V28.2424C25.7122 28.774 25.2813 29.2049 24.7497 29.2049H21.9997C21.4681 29.2049 21.0372 28.774 21.0372 28.2424V15.7574ZM22.9622 16.7199V27.2799H23.7872V16.7199H22.9622ZM27.2247 14.7949C27.7563 14.7949 28.1872 15.2258 28.1872 15.7574V28.2424C28.1872 28.774 27.7563 29.2049 27.2247 29.2049C26.6931 29.2049 26.2622 28.774 26.2622 28.2424V15.7574C26.2622 15.2258 26.6931 14.7949 27.2247 14.7949ZM29.9747 14.7949C30.5063 14.7949 30.9372 15.2258 30.9372 15.7574V28.2424C30.9372 28.774 30.5063 29.2049 29.9747 29.2049C29.4431 29.2049 29.0122 28.774 29.0122 28.2424V15.7574C29.0122 15.2258 29.4431 14.7949 29.9747 14.7949ZM31.7622 15.7574C31.7622 15.2258 32.1931 14.7949 32.7247 14.7949H35.4747C36.0063 14.7949 36.4372 15.2258 36.4372 15.7574V28.2424C36.4372 28.774 36.0063 29.2049 35.4747 29.2049H32.7247C32.1931 29.2049 31.7622 28.774 31.7622 28.2424V15.7574ZM33.6872 16.7199V27.2799H34.5122V16.7199H33.6872Z" fill="#9CCAFF"/>
</svg>
