<svg viewBox="0 0 44 44" fill="none" xmlns="http://www.w3.org/2000/svg">
<path d="M29.9319 22C32.142 22.0362 34.2485 22.9434 35.7934 24.5243C37.3383 26.1052 38.1967 28.2321 38.1819 30.4425C38.1819 33.935 35.4319 37.62 30.3719 41.4425C30.2078 41.5611 30.0105 41.6249 29.8081 41.6249C29.6057 41.6249 29.4084 41.5611 29.2444 41.4425C24.0744 37.5375 21.4344 33.8525 21.4344 30.4425C21.4269 29.3271 21.6421 28.2214 22.0672 27.1902C22.4923 26.159 23.1188 25.2229 23.9101 24.4367C24.7014 23.6505 25.6415 23.0301 26.6755 22.6117C27.7095 22.1933 28.8165 21.9854 29.9319 22ZM29.9319 27.6375C29.388 27.6375 28.8563 27.7988 28.404 28.101C27.9518 28.4031 27.5993 28.8326 27.3912 29.3351C27.183 29.8376 27.1286 30.3906 27.2347 30.924C27.3408 31.4575 27.6027 31.9475 27.9873 32.332C28.3719 32.7166 28.8619 32.9786 29.3954 33.0847C29.9288 33.1908 30.4817 33.1363 30.9842 32.9282C31.4867 32.72 31.9162 32.3676 32.2184 31.9153C32.5206 31.4631 32.6819 30.9314 32.6819 30.3875C32.6746 29.6629 32.3817 28.9705 31.8667 28.4607C31.3518 27.9509 30.6565 27.665 29.9319 27.665V27.6375Z" fill="#9CCAFF"/>
<path d="M21.5719 36.41C20.8991 37.2808 19.9118 37.8534 18.8219 38.005C16.4844 38.005 14.0369 34.5675 12.7719 29.1775H19.7569C19.8287 28.521 19.9764 27.875 20.1969 27.2525H12.1944C11.8519 25.2173 11.6862 23.1563 11.6994 21.0925C11.6998 19.6597 11.7732 18.2278 11.9194 16.8025H25.5044C25.6506 18.2002 25.724 19.6046 25.7244 21.01C26.3315 20.7297 26.9679 20.5176 27.6219 20.3775C27.6219 19.1675 27.6219 17.9575 27.4294 16.8025H35.1844C35.5219 18.2068 35.679 19.6484 35.6519 21.0925C35.6519 21.3675 35.6519 21.6425 35.6519 21.9175C36.304 22.3825 36.9034 22.9173 37.4394 23.5125C37.5363 22.7092 37.5914 21.9015 37.6044 21.0925C37.6044 16.1108 35.6311 11.3318 32.1162 7.80146C28.6013 4.27111 23.8311 2.27682 18.8494 2.255H18.5744C15.4752 2.29383 12.4336 3.09788 9.72016 4.59566C7.00667 6.09343 4.70534 8.23852 3.02079 10.8402C1.33624 13.4418 0.320685 16.4194 0.0644133 19.5082C-0.191858 22.597 0.319101 25.7013 1.55186 28.545C2.99741 31.8584 5.36582 34.6859 8.37444 36.69C11.3831 38.6941 14.9048 39.7902 18.5194 39.8475H18.7944C20.4784 39.8374 22.1531 39.5969 23.7719 39.1325C22.961 38.2905 22.2249 37.3796 21.5719 36.41ZM34.5794 14.8775H27.1819C26.736 11.2327 25.3736 7.76045 23.2219 4.785C25.771 5.46486 28.1257 6.73163 30.0978 8.48406C32.0698 10.2365 33.6046 12.426 34.5794 14.8775ZM18.6019 4.18C21.3519 4.18 24.1019 8.3325 25.0919 14.8775H12.1944C13.2944 8.3875 16.0169 4.29 18.6019 4.18ZM14.1194 4.8675C12.0057 7.82503 10.6721 11.2679 10.2419 14.8775H3.14686C4.09175 12.483 5.57164 10.3362 7.47338 8.60127C9.37513 6.86634 11.6484 5.58921 14.1194 4.8675ZM1.93686 21.0925C1.99048 19.6378 2.23078 18.196 2.65186 16.8025H9.99436C9.99436 18.1775 9.77436 19.5525 9.77436 21.0925C9.77011 23.1549 9.92641 25.2144 10.2419 27.2525H3.11936C2.34764 25.29 1.94669 23.2013 1.93686 21.0925ZM3.99936 29.1775H10.5994C11.1373 32.1572 12.3405 34.9772 14.1194 37.4275C11.9706 36.7902 9.96973 35.7328 8.23258 34.3167C6.49543 32.9005 5.05657 31.1537 3.99936 29.1775Z" fill="#9CCAFF"/>
</svg>
