<svg viewBox="0 0 44 44" fill="none" xmlns="http://www.w3.org/2000/svg">
<path d="M36.2716 12.0104L33.0666 8.80541C29.434 5.17284 24.5072 3.13208 19.37 3.13208C14.2327 3.13208 9.30591 5.17284 5.67333 8.80541C2.04076 12.438 0 17.3648 0 22.5021C0 27.6393 2.04076 32.5661 5.67333 36.1987L8.85096 39.3763C9.29919 39.8285 9.83256 40.1875 10.4203 40.4324C11.008 40.6774 11.6384 40.8035 12.2751 40.8035C12.9118 40.8035 13.5422 40.6774 14.13 40.4324C14.7177 40.1875 15.251 39.8285 15.6993 39.3763L36.1621 18.9409C36.6306 18.4968 37.0058 17.9635 37.2655 17.3724C37.5252 16.7813 37.6642 16.1443 37.6744 15.4987C37.6846 14.8532 37.5658 14.2121 37.3249 13.6131C37.084 13.0141 36.7259 12.4692 36.2716 12.0104ZM7.15257 10.1751C10.2922 7.0371 14.5142 5.22042 18.9515 5.09815C23.3888 4.97588 27.7044 6.55731 31.0121 9.51764L27.1223 13.5445C24.8853 11.679 22.0315 10.7175 19.1217 10.849C16.2119 10.9804 13.4565 12.1954 11.3969 14.255C9.33721 16.3146 8.12229 19.0701 7.99082 21.9799C7.85934 24.8897 8.82081 27.7434 10.6863 29.9804L6.49513 34.0346C3.53481 30.7269 1.95337 26.4113 2.07564 21.974C2.19791 17.5368 4.01459 13.3147 7.15257 10.1751ZM11.8916 28.6382C10.4118 26.763 9.67172 24.4099 9.81175 22.0252C9.95178 19.6406 10.9622 17.3903 12.6513 15.7012C14.3404 14.0121 16.5907 13.0017 18.9753 12.8616C21.36 12.7216 23.7131 13.4617 25.5883 14.9415L11.8916 28.6382ZM34.902 17.4617L14.4392 37.9245C13.891 38.4632 13.1532 38.765 12.3847 38.765C11.6161 38.765 10.8783 38.4632 10.3302 37.9245L7.94698 35.4317L32.6009 10.7777L35.1211 13.2705C35.3865 13.5578 35.5917 13.8953 35.7246 14.2632C35.8575 14.631 35.9154 15.0217 35.895 15.4123C35.8746 15.8029 35.7762 16.1854 35.6057 16.5374C35.4351 16.8893 35.1959 17.2036 34.902 17.4617Z" fill="#9CCAFF"/>
</svg>
