<svg viewBox="0 0 44 44" fill="none" xmlns="http://www.w3.org/2000/svg">
<path d="M24.0914 9.96148C24.2622 10.0469 24.4331 10.0469 24.5185 10.1323L24.6894 9.87605L27.2523 5.26278C25.0311 4.06675 18.0258 0.991241 10.0807 5.26278L12.8999 10.1323C13.0708 10.0469 13.2417 10.0469 13.4125 9.96148C13.4125 9.87605 18.9655 7.65485 24.0914 9.96148Z" fill="#A8D1FF"/>
<path d="M23.5788 11.7555L20.9304 16.3688C20.0761 16.1125 19.3073 16.0271 18.5384 16.0271C17.6841 16.0271 17.0006 16.1979 16.488 16.3688L13.8397 11.5847C13.8397 11.5847 18.4529 9.02174 23.5788 11.7555Z" fill="#83B2E6"/>
<path d="M31.951 20.6403C31.951 20.8112 32.0364 20.9821 32.0364 21.1529H32.3782L37.6749 21.0675C37.5895 18.5046 36.7351 10.9012 29.1318 5.94623L26.398 10.9012C26.5689 10.9866 26.6543 11.1575 26.8252 11.2429C26.7397 11.2429 31.353 15.0019 31.951 20.6403Z" fill="#81B0E4"/>
<path d="M30.157 21.1529H24.8603C24.6894 20.2986 24.3477 19.5297 24.0059 18.9317C23.5788 18.1628 23.1516 17.6503 22.7245 17.3085L25.3728 12.6098C25.3728 12.5244 29.9007 15.3436 30.157 21.1529Z" fill="#608FC3"/>
<path d="M11.2767 11.2429C11.4476 11.1575 11.533 11.0721 11.7039 10.9866L11.533 10.6449L8.88469 6.03166C6.66348 7.39855 0.512463 11.841 -0.00012207 20.9821H5.55288C5.55288 20.8112 5.63831 20.6403 5.63831 20.4695C5.63831 20.4695 6.66348 14.5747 11.2767 11.2429Z" fill="#83B2E6"/>
<path d="M12.4728 12.6098L15.0357 17.3085C14.3523 17.9065 13.8397 18.59 13.498 19.188C13.0708 19.8715 12.8145 20.5549 12.7291 21.0675H7.34693C7.34693 21.0675 7.60322 15.6853 12.4728 12.6098Z" fill="#4877AB"/>
<path d="M24.0914 33.7113C24.2622 33.6258 24.4331 33.6258 24.5185 33.5404L24.6894 33.7967L27.2523 38.4954C25.0311 39.6914 18.0258 42.7669 10.0807 38.4954L12.8999 33.6258C13.0708 33.7113 13.2417 33.7967 13.4125 33.7967C13.4125 33.7967 18.9655 35.9325 24.0914 33.7113Z" fill="#A8D1FF"/>
<path d="M23.5788 31.9172L20.9304 27.3039C20.0761 27.5602 19.3073 27.7311 18.5384 27.7311C17.6841 27.7311 17.0006 27.5602 16.488 27.3894L13.8397 32.0881C13.8397 32.0881 18.4529 34.651 23.5788 31.9172Z" fill="#83B2E6"/>
<path d="M31.951 23.0324C31.951 22.8615 32.0364 22.6907 32.0364 22.5198H32.3782L37.6749 22.6052C37.5895 25.1682 36.7351 32.7715 29.1318 37.7265L26.398 32.7715C26.5689 32.6861 26.6543 32.5152 26.8252 32.4298C26.7397 32.4298 31.353 28.6708 31.951 23.0324Z" fill="#81B0E4"/>
<path d="M30.157 22.5198H24.8603C24.6894 23.3741 24.3477 24.143 24.0059 24.741C23.5788 25.5099 23.1516 26.0225 22.7245 26.3642L25.3728 31.0629C25.3728 31.1483 29.9007 28.3291 30.157 22.5198Z" fill="#608FC3"/>
<path d="M11.2767 32.4298C11.4476 32.5152 11.533 32.6007 11.7039 32.6861L11.4476 32.9424L8.79926 37.5556C6.74892 36.3596 0.512463 31.8318 -0.00012207 22.6907H5.55288C5.55288 22.8615 5.63831 23.0324 5.63831 23.2033C5.63831 23.2033 6.66348 29.1834 11.2767 32.4298Z" fill="#83B2E6"/>
<path d="M12.4728 31.0629L15.0357 26.3642C14.3523 25.7662 13.8397 25.0827 13.498 24.4847C13.0708 23.8013 12.8145 23.1178 12.7291 22.6052H7.34693C7.34693 22.6052 7.60322 27.9874 12.4728 31.0629Z" fill="#4877AB"/>
</svg>
