<svg viewBox="0 0 44 44" fill="none" xmlns="http://www.w3.org/2000/svg">
<path d="M12.5219 36.135L9.99012 23.32H12.1641L13.7327 32.12L15.6591 23.32H18.1908L20.0346 32.285L21.6032 23.32H23.7222L21.1904 36.135H18.9889L16.8699 26.565L14.806 36.135H12.5219Z" fill="#9CCAFF"/>
<path d="M33.5464 36.135H31.2348L30.3267 33.22H26.1163L25.2632 36.135H23.0066L27.1069 23.32H29.3635L33.5464 36.135ZM29.6387 31.075L28.1802 26.3175L26.7767 31.075H29.6387Z" fill="#9CCAFF"/>
<path d="M35.3627 40.8375H2.3398C2.03056 40.8451 1.72302 40.7898 1.43581 40.675C1.1486 40.5602 0.887723 40.3883 0.668993 40.1697C0.450263 39.9511 0.278242 39.6904 0.163361 39.4034C0.0484798 39.1164 -0.00686606 38.8091 0.00067974 38.5V5.50004C-0.00686606 5.19102 0.0484798 4.88369 0.163361 4.59668C0.278242 4.30967 0.450263 4.04897 0.668993 3.83039C0.887723 3.61182 1.1486 3.43991 1.43581 3.32511C1.72302 3.21031 2.03056 3.155 2.3398 3.16254H14.7509C14.8806 3.16097 15.009 3.18715 15.1277 3.23933C15.2464 3.29151 15.3525 3.36847 15.4389 3.46504C15.5313 3.55905 15.6034 3.67102 15.6507 3.79401C15.6981 3.917 15.7196 4.04839 15.7141 4.18004C15.6609 4.61516 15.6989 5.05656 15.8256 5.47623C15.9522 5.8959 16.1648 6.28468 16.4498 6.6179C16.7348 6.95111 17.086 7.22148 17.4811 7.41185C17.8762 7.60222 18.3066 7.70842 18.745 7.72373C19.1834 7.73903 19.6201 7.6631 20.0276 7.50075C20.435 7.3384 20.8043 7.09318 21.1118 6.78065C21.4194 6.46813 21.6586 6.09512 21.8143 5.6853C21.9699 5.27548 22.0386 4.8378 22.016 4.40004C21.9996 4.25295 22.0131 4.10407 22.0556 3.96231C22.0982 3.82055 22.1689 3.68884 22.2636 3.57504C22.431 3.35384 22.6775 3.206 22.9516 3.16254H35.3627C35.665 3.15891 35.965 3.21526 36.2453 3.32833C36.5256 3.44141 36.7806 3.60896 36.9956 3.82127C37.2107 4.03359 37.3814 4.28644 37.4979 4.56517C37.6144 4.8439 37.6744 5.14297 37.6743 5.44504V38.5C37.6818 38.8067 37.6272 39.1117 37.514 39.3969C37.4009 39.682 37.2313 39.9414 37.0155 40.1596C36.7998 40.3778 36.5422 40.5503 36.2582 40.6668C35.9742 40.7832 35.6697 40.8413 35.3627 40.8375ZM2.3398 5.08754C2.28345 5.07794 2.22561 5.08198 2.17113 5.09931C2.11666 5.11664 2.06714 5.14677 2.02671 5.18717C1.98629 5.22757 1.95614 5.27706 1.93879 5.33149C1.92145 5.38593 1.91741 5.44373 1.92702 5.50004V38.5C1.92702 38.6022 1.96761 38.7001 2.03986 38.7723C2.11211 38.8445 2.21011 38.885 2.31228 38.885H35.3627C35.4649 38.885 35.5629 38.8445 35.6352 38.7723C35.7074 38.7001 35.748 38.6022 35.748 38.5V5.50004C35.7566 5.4463 35.7528 5.39131 35.7369 5.33926C35.721 5.28721 35.6934 5.23947 35.6563 5.19968C35.6191 5.1599 35.5733 5.12911 35.5225 5.10968C35.4716 5.09025 35.417 5.08268 35.3627 5.08754H23.8873C23.7082 6.29437 23.1012 7.39672 22.1768 8.19364C21.2523 8.99057 20.0721 9.42899 18.8513 9.42899C17.6304 9.42899 16.4502 8.99057 15.5258 8.19364C14.6014 7.39672 13.9943 6.29437 13.8153 5.08754H2.3398Z" fill="#9CCAFF"/>
</svg>
