<svg viewBox="0 0 44 44" fill="none" xmlns="http://www.w3.org/2000/svg">
<path d="M9.89989 14.63C10.049 14.6246 10.1962 14.6642 10.3224 14.7436C10.4486 14.8231 10.548 14.9387 10.6076 15.0754C10.6672 15.2122 10.6842 15.3637 10.6564 15.5102C10.6287 15.6568 10.5574 15.7916 10.4519 15.897C10.3465 16.0025 10.2117 16.0738 10.0651 16.1015C9.91858 16.1293 9.76707 16.1123 9.63033 16.0527C9.49359 15.9931 9.37796 15.8938 9.29851 15.7675C9.21906 15.6413 9.17947 15.4941 9.18489 15.345C9.19172 15.1576 9.26924 14.9796 9.40188 14.847C9.53451 14.7143 9.71244 14.6368 9.89989 14.63Z" fill="#9CCAFF"/>
<path d="M11.8525 8.6625H13.035L16.61 14.1625V8.6625H17.7375V15.95H16.5825L13.0075 10.45V15.95H11.8525V8.6625Z" fill="#9CCAFF"/>
<path d="M19.25 8.6625H22.8525V9.7075H20.405V11.7425H22.5225V12.76H20.405V14.905H22.9625V15.95H19.25V8.6625Z" fill="#9CCAFF"/>
<path d="M25.52 9.7075H23.6775V8.6625H28.49V9.7075H26.675V15.95H25.52V9.7075Z" fill="#9CCAFF"/>
<path d="M29.8375 40.8375H7.8375C5.7611 40.8303 3.77181 40.0022 2.30356 38.5339C0.835309 37.0657 0.00724755 35.0764 0 33V11C0.00724755 8.9236 0.835309 6.93431 2.30356 5.46606C3.77181 3.99782 5.7611 3.16975 7.8375 3.16251H29.8375C31.9139 3.16975 33.9032 3.99782 35.3714 5.46606C36.8397 6.93431 37.6678 8.9236 37.675 11V33C37.6678 35.0764 36.8397 37.0657 35.3714 38.5339C33.9032 40.0022 31.9139 40.8303 29.8375 40.8375ZM7.8375 5.08751C6.26941 5.08751 4.76554 5.71043 3.65673 6.81924C2.54792 7.92805 1.925 9.43191 1.925 11V33C1.925 34.5681 2.54792 36.072 3.65673 37.1808C4.76554 38.2896 6.26941 38.9125 7.8375 38.9125H29.8375C31.4056 38.9125 32.9095 38.2896 34.0183 37.1808C35.1271 36.072 35.75 34.5681 35.75 33V11C35.75 9.43191 35.1271 7.92805 34.0183 6.81924C32.9095 5.71043 31.4056 5.08751 29.8375 5.08751H7.8375Z" fill="#9CCAFF"/>
<path d="M16.0874 33.6452H16.309C17.3282 33.6452 18.1775 33.5123 18.8569 33.2464C19.5437 32.9731 20.0902 32.5965 20.4964 32.1165C20.9026 31.6364 21.1943 31.0714 21.3716 30.4215C21.5488 29.7716 21.6375 29.0663 21.6375 28.3057V25.5251C21.6375 24.8678 21.5673 24.2918 21.427 23.797C21.294 23.2948 21.102 22.8775 20.8509 22.5452C20.6072 22.2054 20.3229 21.9507 19.9979 21.7808C19.6804 21.6109 19.3369 21.526 18.9677 21.526C18.5615 21.526 18.1959 21.6183 17.871 21.8029C17.5534 21.9802 17.2838 22.2276 17.0623 22.5452C16.8481 22.8553 16.6819 23.2209 16.5638 23.6419C16.453 24.0555 16.3976 24.4986 16.3976 24.9712C16.3976 25.4143 16.4493 25.8427 16.5527 26.2563C16.6635 26.6624 16.826 27.0243 17.0401 27.3419C17.2543 27.6595 17.5239 27.9106 17.8488 28.0952C18.1738 28.2798 18.5541 28.3721 18.9898 28.3721C19.4034 28.3721 19.7838 28.2946 20.1309 28.1395C20.478 27.977 20.7808 27.7592 21.0392 27.4859C21.2977 27.2126 21.5008 26.9062 21.6485 26.5664C21.7962 26.2267 21.8775 25.8796 21.8922 25.5251L22.9114 25.8353C22.9114 26.3966 22.7932 26.9505 22.5569 27.497C22.328 28.0361 22.0067 28.5309 21.5931 28.9814C21.187 29.4245 20.7106 29.779 20.1641 30.0449C19.625 30.3108 19.0378 30.4437 18.4027 30.4437C17.6346 30.4437 16.9552 30.2997 16.3644 30.0117C15.7809 29.7162 15.2935 29.3174 14.9021 28.8152C14.5181 28.3131 14.23 27.737 14.038 27.0871C13.846 26.4372 13.75 25.7541 13.75 25.0377C13.75 24.2622 13.8682 23.5348 14.1045 22.8553C14.3408 22.1759 14.6842 21.5777 15.1347 21.0607C15.5852 20.5364 16.1317 20.1302 16.7743 19.8422C17.4242 19.5468 18.159 19.399 18.9788 19.399C19.8502 19.399 20.6146 19.5689 21.2719 19.9086C21.9292 20.2484 22.4831 20.7173 22.9336 21.3155C23.3841 21.9137 23.7238 22.6079 23.9527 23.3982C24.1817 24.1884 24.2961 25.0377 24.2961 25.9461V26.8877C24.2961 27.8404 24.2112 28.7599 24.0414 29.6461C23.8715 30.5249 23.5945 31.341 23.2105 32.0943C22.8339 32.8402 22.3354 33.4975 21.715 34.0662C21.102 34.6274 20.3487 35.0669 19.4551 35.3844C18.5689 35.6946 17.5276 35.8497 16.3311 35.8497H16.0874V33.6452Z" fill="#9CCAFF"/>
</svg>
