<svg viewBox="0 0 44 44" fill="none" xmlns="http://www.w3.org/2000/svg">
<path d="M9.89989 14.63C10.049 14.6246 10.1962 14.6641 10.3224 14.7436C10.4486 14.823 10.548 14.9387 10.6076 15.0754C10.6672 15.2122 10.6842 15.3637 10.6564 15.5102C10.6287 15.6568 10.5574 15.7915 10.4519 15.897C10.3465 16.0025 10.2117 16.0737 10.0651 16.1015C9.91858 16.1293 9.76707 16.1123 9.63033 16.0527C9.49359 15.9931 9.37796 15.8937 9.29851 15.7675C9.21906 15.6413 9.17947 15.494 9.18489 15.345C9.19172 15.1575 9.26924 14.9796 9.40188 14.847C9.53451 14.7143 9.71244 14.6368 9.89989 14.63Z" fill="#9CCAFF"/>
<path d="M11.8525 8.66247H13.035L16.61 14.1625V8.66247H17.7375V15.95H16.5825L13.0075 10.45V15.95H11.8525V8.66247Z" fill="#9CCAFF"/>
<path d="M19.25 8.66247H22.8525V9.70747H20.405V11.7425H22.5225V12.76H20.405V14.905H22.9625V15.95H19.25V8.66247Z" fill="#9CCAFF"/>
<path d="M25.52 9.70747H23.6775V8.66247H28.49V9.70747H26.675V15.95H25.52V9.70747Z" fill="#9CCAFF"/>
<path d="M24.09 19.25V21.1475L18.48 35.75H15.73L21.23 21.5875H13.585V19.25H24.09Z" fill="#9CCAFF"/>
<path d="M29.8375 40.8375H7.8375C5.7611 40.8302 3.77181 40.0022 2.30356 38.5339C0.835309 37.0657 0.00724755 35.0764 0 33V11C0.00724755 8.92357 0.835309 6.93428 2.30356 5.46603C3.77181 3.99778 5.7611 3.16972 7.8375 3.16248H29.8375C31.9139 3.16972 33.9032 3.99778 35.3714 5.46603C36.8397 6.93428 37.6678 8.92357 37.675 11V33C37.6678 35.0764 36.8397 37.0657 35.3714 38.5339C33.9032 40.0022 31.9139 40.8302 29.8375 40.8375ZM7.8375 5.08748C6.26941 5.08748 4.76554 5.7104 3.65673 6.81921C2.54792 7.92802 1.925 9.43188 1.925 11V33C1.925 34.5681 2.54792 36.0719 3.65673 37.1807C4.76554 38.2896 6.26941 38.9125 7.8375 38.9125H29.8375C31.4056 38.9125 32.9095 38.2896 34.0183 37.1807C35.1271 36.0719 35.75 34.5681 35.75 33V11C35.75 9.43188 35.1271 7.92802 34.0183 6.81921C32.9095 5.7104 31.4056 5.08748 29.8375 5.08748H7.8375Z" fill="#9CCAFF"/>
</svg>
