<svg  viewBox="0 0 16 16" fill="none" xmlns="http://www.w3.org/2000/svg">
<path fill-rule="evenodd" clip-rule="evenodd" d="M8.9082 7.05078C9.14171 7.05081 9.35679 7.0806 9.55273 7.13965C9.75135 7.19605 9.9283 7.28668 10.084 7.41016C10.2424 7.53368 10.3772 7.69487 10.4873 7.89355C10.6 8.08951 10.6861 8.32736 10.7451 8.60645C10.8042 8.88298 10.833 9.20547 10.833 9.57324V10.5312C10.833 10.9905 10.7876 11.3831 10.6963 11.708C10.6077 12.0302 10.4787 12.2918 10.3096 12.4932C10.1404 12.6946 9.9375 12.8425 9.70117 12.9365C9.46761 13.0305 9.20593 13.0771 8.91602 13.0771C8.68513 13.0771 8.47016 13.0483 8.27148 12.9893C8.07544 12.9302 7.89771 12.8372 7.73926 12.7109C7.58096 12.5848 7.44572 12.4222 7.33301 12.2236C7.22296 12.0223 7.13696 11.782 7.0752 11.5029C7.01611 11.2236 6.98633 10.8992 6.98633 10.5312V9.57324C6.98633 9.11133 7.03174 8.72119 7.12305 8.4043C7.21435 8.08488 7.34455 7.82561 7.51367 7.62695C7.68281 7.4256 7.88461 7.27979 8.11816 7.18848C8.35449 7.09717 8.61816 7.05078 8.9082 7.05078ZM8.9082 7.82031C8.75781 7.82031 8.62305 7.8501 8.50488 7.90918C8.38675 7.96558 8.28758 8.0574 8.20703 8.18359C8.12654 8.30977 8.06443 8.47598 8.02148 8.68262C7.98121 8.88667 7.96095 9.1351 7.96094 9.42773V10.6689C7.96095 10.9052 7.97511 11.1131 8.00195 11.293C8.02878 11.4727 8.06846 11.627 8.12207 11.7559C8.17573 11.882 8.24033 11.9871 8.31543 12.0703C8.39331 12.1509 8.48267 12.2104 8.58203 12.248C8.68394 12.2855 8.79537 12.3037 8.91602 12.3037C9.06904 12.3037 9.20511 12.2749 9.32324 12.2158C9.44129 12.1567 9.54059 12.0624 9.62109 11.9336C9.70163 11.802 9.76148 11.6313 9.80176 11.4219C9.84203 11.2125 9.86229 10.9615 9.8623 10.6689V9.42773C9.8623 9.19418 9.84911 8.98872 9.82227 8.81152C9.79541 8.63163 9.75487 8.47996 9.70117 8.35645C9.65015 8.23025 9.58568 8.12767 9.50781 8.0498C9.43002 7.96943 9.3414 7.91181 9.24219 7.87695C9.14293 7.8394 9.03158 7.82035 8.9082 7.82031Z" fill="#9CCAFF"/>
<path d="M5.27246 12.9971H4.30176V8.26367L2.86426 8.75098V7.94922L5.15625 7.11133H5.27246V12.9971Z" fill="#9CCAFF"/>
<path d="M3.59961 5.32031C3.65381 5.31834 3.708 5.33244 3.75391 5.36133C3.7997 5.39021 3.83579 5.43278 3.85742 5.48242C3.87888 5.53191 3.88496 5.58663 3.875 5.63965C3.86493 5.69281 3.83898 5.74196 3.80078 5.78027C3.76244 5.81862 3.71343 5.84537 3.66016 5.85547C3.60687 5.86557 3.55168 5.85858 3.50195 5.83691C3.45229 5.81524 3.40972 5.77926 3.38086 5.7334C3.35213 5.6876 3.33789 5.63411 3.33984 5.58008C3.34232 5.51191 3.37071 5.44667 3.41895 5.39844C3.46706 5.35046 3.5317 5.32288 3.59961 5.32031Z" fill="#9CCAFF"/>
<path d="M6.04004 5.15039V3.15039H6.4502V5.7998H6.03027L4.73047 3.7998V5.7998H4.30957V3.15039H4.74023L6.04004 5.15039Z" fill="#9CCAFF"/>
<path d="M8.30957 3.53027H7.41992V4.26953H8.19043V4.63965H7.41992V5.41992H8.34961V5.7998H7V3.15039H8.30957V3.53027Z" fill="#9CCAFF"/>
<path d="M10.3604 3.53027H9.7002V5.7998H9.28027V3.53027H8.61035V3.15039H10.3604V3.53027Z" fill="#9CCAFF"/>
<path fill-rule="evenodd" clip-rule="evenodd" d="M10.8496 1.15039C11.6046 1.15303 12.3284 1.45352 12.8623 1.9873C13.3962 2.52121 13.6976 3.24494 13.7002 4V12C13.6976 12.7551 13.3962 13.4788 12.8623 14.0127C12.3284 14.5465 11.6046 14.847 10.8496 14.8496H2.84961C2.09483 14.8469 1.37168 14.5463 0.837891 14.0127C0.303984 13.4788 0.00263697 12.7551 0 12V4C0.00263547 3.24494 0.303982 2.52121 0.837891 1.9873C1.37168 1.45367 2.09483 1.15313 2.84961 1.15039H10.8496ZM2.84961 1.84961C2.27967 1.84971 1.73316 2.07656 1.33008 2.47949C0.926875 2.8827 0.700195 3.42978 0.700195 4V12C0.700197 12.5702 0.926876 13.1173 1.33008 13.5205C1.73316 13.9234 2.27967 14.1503 2.84961 14.1504H10.8496C11.4197 14.1504 11.9669 13.9236 12.3701 13.5205C12.7733 13.1173 13 12.5702 13 12V4C13 3.42978 12.7733 2.8827 12.3701 2.47949C11.9669 2.07641 11.4197 1.84961 10.8496 1.84961H2.84961Z" fill="#9CCAFF"/>
</svg>
