<svg viewBox="0 0 44 44" fill="none" xmlns="http://www.w3.org/2000/svg">
<path d="M25.163 13.255C24.9728 12.9198 24.6967 12.6412 24.3633 12.4479C24.0298 12.2546 23.6509 12.1535 23.2655 12.155H14.4105C14.0251 12.1535 13.6462 12.2546 13.3128 12.4479C12.9793 12.6412 12.7033 12.9198 12.513 13.255L8.08552 20.9C7.89509 21.2353 7.79497 21.6143 7.79497 22C7.79497 22.3856 7.89509 22.7646 8.08552 23.1L12.513 30.7725C12.7096 31.1021 12.987 31.3762 13.319 31.5687C13.6511 31.7612 14.0268 31.8657 14.4105 31.8725H23.2655C23.6531 31.8683 24.0327 31.7619 24.3659 31.5639C24.6991 31.3659 24.9741 31.0834 25.163 30.745L29.5905 23.1C29.781 22.7646 29.8811 22.3856 29.8811 22C29.8811 21.6143 29.781 21.2353 29.5905 20.9L25.163 13.255ZM14.163 14.2175C14.2014 14.1981 14.2438 14.188 14.2868 14.188C14.3298 14.188 14.3721 14.1981 14.4105 14.2175H22.0005L17.9855 21.0375H10.2305L14.163 14.2175ZM14.163 29.81L10.2305 22.9625H17.9855L22.0005 29.92H14.4105C14.4105 29.92 14.218 29.8925 14.1905 29.81H14.163ZM23.788 29.2325L19.6355 22L23.8155 14.7675L27.913 22C27.9402 22.0407 27.9547 22.0885 27.9547 22.1375C27.9547 22.1864 27.9402 22.2343 27.913 22.275L23.788 29.2325Z" fill="#9CCAFF"/>
<path d="M37.3455 20.7349L32.313 12.0174C32.2503 11.9069 32.1662 11.8098 32.0657 11.7319C31.9652 11.654 31.8503 11.5967 31.7276 11.5635C31.6048 11.5303 31.4767 11.5217 31.3507 11.5382C31.2246 11.5548 31.103 11.5961 30.993 11.6599C30.8825 11.7227 30.7854 11.8068 30.7075 11.9073C30.6296 12.0077 30.5723 12.1227 30.5391 12.2454C30.5059 12.3681 30.4973 12.4963 30.5138 12.6223C30.5304 12.7484 30.5717 12.87 30.6355 12.9799L35.668 21.6974C35.7211 21.7894 35.7491 21.8937 35.7491 21.9999C35.7491 22.1061 35.7211 22.2105 35.668 22.3024L30.6355 31.0199C30.5717 31.1299 30.5304 31.2515 30.5138 31.3776C30.4973 31.5036 30.5059 31.6317 30.5391 31.7545C30.5723 31.8772 30.6296 31.9922 30.7075 32.0926C30.7854 32.1931 30.8825 32.2772 30.993 32.3399C31.134 32.4263 31.2953 32.4737 31.4605 32.4775C31.6335 32.4766 31.8032 32.4305 31.9528 32.3436C32.1024 32.2568 32.2266 32.1322 32.313 31.9824L37.3455 23.2649C37.5624 22.8786 37.6762 22.443 37.6762 21.9999C37.6762 21.5569 37.5624 21.1213 37.3455 20.7349Z" fill="#9CCAFF"/>
<path d="M7.04067 12.9799C7.10447 12.8699 7.14584 12.7484 7.1624 12.6223C7.17895 12.4963 7.17036 12.3681 7.13712 12.2454C7.10388 12.1227 7.04665 12.0077 6.96873 11.9073C6.89081 11.8068 6.79376 11.7227 6.68317 11.6599C6.57528 11.5968 6.45581 11.5558 6.33184 11.5396C6.20786 11.5234 6.08189 11.5323 5.96138 11.5656C5.84087 11.5989 5.72828 11.6561 5.63025 11.7337C5.53222 11.8113 5.45075 11.9078 5.39067 12.0174L0.330671 20.7349C0.113866 21.1213 0 21.5569 0 21.9999C0 22.443 0.113866 22.8786 0.330671 23.2649L5.39067 31.9824C5.46797 32.134 5.5863 32.2607 5.73218 32.3483C5.87805 32.4358 6.04558 32.4806 6.21567 32.4774C6.38092 32.4737 6.54223 32.4263 6.68317 32.3399C6.79376 32.2772 6.89081 32.1931 6.96873 32.0926C7.04665 31.9921 7.10388 31.8772 7.13712 31.7545C7.17036 31.6317 7.17895 31.5036 7.1624 31.3776C7.14584 31.2515 7.10447 31.1299 7.04067 31.0199L2.00817 22.3024C1.95507 22.2105 1.92712 22.1061 1.92712 21.9999C1.92712 21.8937 1.95507 21.7894 2.00817 21.6974L7.04067 12.9799Z" fill="#9CCAFF"/>
</svg>
