<svg viewBox="0 0 44 44" fill="none" xmlns="http://www.w3.org/2000/svg">
<path d="M16.7248 40.7197C16.1944 40.7202 15.6737 40.5781 15.217 40.3085L1.50988 32.4406C1.03389 32.163 0.642225 31.7613 0.376674 31.2785C0.111122 30.7957 -0.0183435 30.2498 0.00209425 29.6992V14.073C-0.0183435 13.5224 0.111122 12.9765 0.376674 12.4937C0.642225 12.0109 1.03389 11.6092 1.50988 11.3316L15.217 3.46371C15.6736 3.19356 16.1943 3.05103 16.7248 3.05103C17.2553 3.05103 17.776 3.19356 18.2326 3.46371L31.9397 11.3316C32.4157 11.6092 32.8074 12.0109 33.0729 12.4937C33.3385 12.9765 33.468 13.5224 33.4475 14.073V29.8088C33.468 30.3595 33.3385 30.9053 33.0729 31.3882C32.8074 31.871 32.4157 32.2726 31.9397 32.5503L18.2326 40.4182C17.7653 40.6497 17.2452 40.7537 16.7248 40.7197ZM16.7248 5.08116C16.5443 5.04094 16.3571 5.04094 16.1765 5.08116L2.46938 12.9765C2.30123 13.0735 2.16186 13.2135 2.06553 13.3821C1.9692 13.5507 1.91936 13.7418 1.92109 13.936V29.6718C1.91936 29.8659 1.9692 30.0571 2.06553 30.2256C2.16186 30.3942 2.30123 30.5342 2.46938 30.6313L16.1765 38.5266C16.3441 38.6202 16.5328 38.6694 16.7248 38.6694C16.9168 38.6694 17.1055 38.6202 17.2731 38.5266L30.9802 30.6313C31.1484 30.5342 31.2877 30.3942 31.3841 30.2256C31.4804 30.0571 31.5303 29.8659 31.5285 29.6718V14.073C31.5303 13.8789 31.4804 13.6878 31.3841 13.5192C31.2877 13.3506 31.1484 13.2106 30.9802 13.1135L17.2731 5.21823C17.103 5.13164 16.9156 5.08478 16.7248 5.08116Z" fill="#9CCAFF"/>
<path d="M17.328 32.1939C15.9698 32.2274 14.6189 31.9856 13.3568 31.4829C12.0946 30.9803 10.9473 30.2272 9.9841 29.2691C9.02089 28.311 8.26169 27.1677 7.7523 25.9083C7.2429 24.6488 6.99386 23.2993 7.02019 21.9409C6.97495 20.5713 7.21 19.2068 7.71093 17.9312C8.21187 16.6556 8.96812 15.4958 9.9333 14.5229C10.8985 13.55 12.0522 12.7846 13.3238 12.2735C14.5954 11.7625 15.958 11.5166 17.328 11.5509C19.0509 11.5364 20.7491 11.9609 22.2625 12.7846C23.7343 13.5646 24.9662 14.7301 25.8264 16.1565L21.9336 18.4319C21.5062 17.647 20.845 17.0147 20.042 16.6226C19.1985 16.1776 18.2536 15.9602 17.3005 15.992C16.5223 15.946 15.7432 16.0664 15.0152 16.3454C14.2872 16.6243 13.627 17.0552 13.0787 17.6095C12.5445 18.191 12.1332 18.8744 11.8694 19.6186C11.6056 20.3629 11.4948 21.1528 11.5435 21.9409C11.5059 22.7219 11.6247 23.5026 11.893 24.237C12.1614 24.9715 12.5738 25.6448 13.1062 26.2176C13.6624 26.7607 14.3239 27.1844 15.0499 27.4626C15.7759 27.7407 16.5512 27.8675 17.328 27.835C18.2824 27.8486 19.225 27.6224 20.0694 27.1771C20.8514 26.7779 21.4995 26.1584 21.9336 25.3951L25.8264 27.6705C24.9376 29.0722 23.6875 30.2086 22.2077 30.9602C20.7089 31.7705 19.0318 32.1945 17.328 32.1939Z" fill="#9CCAFF"/>
<path d="M29.2532 21.9409V20.8992H28.2663V19.9397H27.2519V20.8992H25.8264V19.9397H24.9491V20.8992H23.9622V21.9409H24.9491V23.3665H23.9622V24.3808H24.9491V25.3677H25.9635V24.3808H27.389V25.3677H28.4033V24.3808H29.3903V23.3665H28.4033V21.9409H29.2532ZM27.2519 23.3665H25.8264V21.9409H27.2519V23.3665Z" fill="#9CCAFF"/>
</svg>
