<svg viewBox="0 0 44 44" fill="none" xmlns="http://www.w3.org/2000/svg">
<path d="M21.5325 9.6251H13.75V17.3251H21.5325V9.6251Z" fill="#9CCAFF"/>
<path d="M30.25 9.7076H22.4675V17.4076H30.25V9.7076Z" fill="#9CCAFF"/>
<path d="M21.5325 18.2601H13.75V25.9601H21.5325V18.2601Z" fill="#9CCAFF"/>
<path d="M30.25 18.2601H22.44V26.0426H30.25V18.2601Z" fill="#9CCAFF"/>
<path d="M38.5001 3.54761H5.5001C4.51548 3.54761 3.57119 3.93874 2.87496 4.63497C2.17874 5.3312 1.7876 6.27549 1.7876 7.26011V29.2601C1.78757 30.2473 2.17783 31.1944 2.87328 31.895C3.56873 32.5956 4.51296 32.9928 5.5001 33.0001H15.5376V39.3251H9.6251C9.36983 39.3251 9.12501 39.4265 8.94451 39.607C8.764 39.7875 8.6626 40.0323 8.6626 40.2876C8.6626 40.5429 8.764 40.7877 8.94451 40.9682C9.12501 41.1487 9.36983 41.2501 9.6251 41.2501H34.3751C34.6304 41.2501 34.8752 41.1487 35.0557 40.9682C35.2362 40.7877 35.3376 40.5429 35.3376 40.2876C35.3376 40.0323 35.2362 39.7875 35.0557 39.607C34.8752 39.4265 34.6304 39.3251 34.3751 39.3251H28.4626V33.0001H38.5001C39.4825 32.9929 40.4226 32.5995 41.1173 31.9048C41.812 31.2101 42.2054 30.27 42.2126 29.2876V7.28761C42.2162 6.79777 42.1229 6.31205 41.9379 5.85845C41.753 5.40485 41.4801 4.99233 41.135 4.64468C40.7899 4.29702 40.3794 4.0211 39.9272 3.83281C39.475 3.64452 38.99 3.54759 38.5001 3.54761ZM26.5376 39.2976H17.4626V33.0001H26.5376V39.2976ZM40.2876 29.2601C40.2805 29.732 40.0899 30.1825 39.7562 30.5162C39.4225 30.8499 38.972 31.0405 38.5001 31.0476H5.5001C5.02823 31.0405 4.57769 30.8499 4.24399 30.5162C3.9103 30.1825 3.71969 29.732 3.7126 29.2601V7.26011C3.71982 6.79082 3.91133 6.34319 4.24577 6.01389C4.58021 5.6846 5.03075 5.50005 5.5001 5.50011H38.5001C38.9742 5.50011 39.4288 5.68843 39.764 6.02365C40.0993 6.35888 40.2876 6.81353 40.2876 7.28761V29.2601Z" fill="#9CCAFF"/>
</svg>
