<svg viewBox="0 0 44 44" fill="none" xmlns="http://www.w3.org/2000/svg">
<path d="M29.8375 40.8375H7.8375C5.7611 40.8302 3.77181 40.0022 2.30356 38.5339C0.835309 37.0657 0.00724755 35.0764 0 33V11C0.00724755 8.92357 0.835309 6.93428 2.30356 5.46603C3.77181 3.99778 5.7611 3.16972 7.8375 3.16248H29.8375C31.9139 3.16972 33.9032 3.99778 35.3714 5.46603C36.8397 6.93428 37.6678 8.92357 37.675 11V33C37.6678 35.0764 36.8397 37.0657 35.3714 38.5339C33.9032 40.0022 31.9139 40.8302 29.8375 40.8375ZM7.8375 5.08748C6.26941 5.08748 4.76554 5.7104 3.65673 6.81921C2.54792 7.92802 1.925 9.43188 1.925 11V33C1.925 34.5681 2.54792 36.0719 3.65673 37.1807C4.76554 38.2896 6.26941 38.9125 7.8375 38.9125H29.8375C31.4056 38.9125 32.9095 38.2896 34.0183 37.1807C35.1271 36.0719 35.75 34.5681 35.75 33V11C35.75 9.43188 35.1271 7.92802 34.0183 6.81921C32.9095 5.7104 31.4056 5.08748 29.8375 5.08748H7.8375Z" fill="#9CCAFF"/>
<path d="M6.59991 27.8568H8.83005V19.4479H6.59991V27.8568ZM7.72262 18.1572C8.06885 18.1572 8.36416 18.0375 8.60856 17.7982C8.85296 17.5538 8.97516 17.261 8.97516 16.9199C8.97516 16.5737 8.85296 16.2809 8.60856 16.0416C8.36416 15.7972 8.06885 15.675 7.72262 15.675C7.38148 15.675 7.08616 15.7972 6.83667 16.0416C6.58718 16.2809 6.46243 16.5737 6.46243 16.9199C6.46243 17.261 6.58718 17.5538 6.83667 17.7982C7.08616 18.0375 7.38148 18.1572 7.72262 18.1572Z" fill="#9CCAFF"/>
<path d="M15.7252 28.1393C16.8097 28.1393 17.7491 27.9051 18.5434 27.4367C19.3377 26.9632 19.9487 26.2936 20.3764 25.428C20.8092 24.5625 21.0256 23.5365 21.0256 22.3501V22.3349C21.0256 21.1485 20.8092 20.1225 20.3764 19.257C19.9436 18.3914 19.33 17.7244 18.5358 17.2559C17.7465 16.7875 16.8097 16.5533 15.7252 16.5533C14.6457 16.5533 13.7089 16.7875 12.9146 17.2559C12.1203 17.7244 11.5042 18.3914 11.0663 19.257C10.6335 20.1174 10.4171 21.1434 10.4171 22.3349V22.3501C10.4171 23.5365 10.631 24.5625 11.0587 25.428C11.4915 26.2936 12.105 26.9632 12.8993 27.4367C13.6936 27.9051 14.6355 28.1393 15.7252 28.1393ZM15.7252 26.1841C15.1193 26.1841 14.5948 26.0263 14.1518 25.7106C13.714 25.3949 13.3728 24.9494 13.1284 24.3741C12.8891 23.7987 12.7695 23.1241 12.7695 22.3501V22.3349C12.7695 21.5558 12.8917 20.8812 13.1361 20.3109C13.3805 19.7356 13.7241 19.2926 14.1671 18.982C14.6101 18.6663 15.1294 18.5085 15.7252 18.5085C16.3209 18.5085 16.8402 18.6663 17.2832 18.982C17.7262 19.2926 18.0673 19.7356 18.3066 20.3109C18.551 20.8812 18.6732 21.5558 18.6732 22.3349V22.3501C18.6732 23.1241 18.551 23.7987 18.3066 24.3741C18.0673 24.9494 17.7262 25.3949 17.2832 25.7106C16.8402 26.0263 16.3209 26.1841 15.7252 26.1841Z" fill="#9CCAFF"/>
<path d="M26.7674 28.1393C27.6839 28.1393 28.4731 27.9942 29.135 27.704C29.802 27.4087 30.3138 26.9963 30.6702 26.4667C31.0317 25.9321 31.2124 25.3007 31.2124 24.5726V24.565C31.2124 23.7045 30.9451 23.0273 30.4105 22.5334C29.881 22.0395 29.0332 21.6729 27.8672 21.4336L26.6987 21.1969C26.052 21.0645 25.5836 20.8863 25.2934 20.6622C25.0083 20.4331 24.8657 20.1404 24.8657 19.7839V19.7763C24.8657 19.5014 24.9446 19.2646 25.1025 19.066C25.2603 18.8624 25.4818 18.7045 25.7669 18.5925C26.052 18.4805 26.383 18.4245 26.7598 18.4245C27.1468 18.4245 27.4853 18.483 27.7756 18.6001C28.0709 18.7121 28.3051 18.8674 28.4782 19.066C28.6564 19.2646 28.7684 19.4963 28.8143 19.761L28.8295 19.8527H30.9986L30.9909 19.7534C30.9451 19.1373 30.7491 18.5899 30.4029 18.1113C30.0566 17.6276 29.5755 17.2483 28.9594 16.9733C28.3484 16.6933 27.6152 16.5533 26.7598 16.5533C25.9451 16.5533 25.2221 16.6959 24.5907 16.981C23.9594 17.261 23.4629 17.6556 23.1014 18.1648C22.7399 18.674 22.5592 19.2697 22.5592 19.952V19.9596C22.5592 20.7946 22.8188 21.4795 23.3382 22.0141C23.8575 22.5487 24.69 22.9331 25.8357 23.1673L26.9965 23.4041C27.6839 23.5467 28.1727 23.7274 28.4629 23.9464C28.7583 24.1653 28.9059 24.4555 28.9059 24.817V24.8247C28.9059 25.1047 28.8168 25.3542 28.6386 25.5731C28.4655 25.787 28.2236 25.955 27.913 26.0772C27.6025 26.1994 27.2409 26.2605 26.8285 26.2605C26.4008 26.2605 26.0215 26.202 25.6905 26.0849C25.3596 25.9677 25.0948 25.8074 24.8962 25.6037C24.7028 25.3949 24.5907 25.1531 24.5602 24.8781L24.5526 24.8018H22.33L22.3377 24.924C22.3835 25.5757 22.5897 26.1434 22.9563 26.6271C23.328 27.1057 23.8372 27.4774 24.4838 27.7422C25.1305 28.007 25.8917 28.1393 26.7674 28.1393Z" fill="#9CCAFF"/>
</svg>
