<svg viewBox="0 0 44 44" fill="none" xmlns="http://www.w3.org/2000/svg">
<path d="M29.8375 40.8375H7.8375C5.7611 40.8302 3.77181 40.0022 2.30356 38.5339C0.835309 37.0657 0.00724755 35.0764 0 33V11C0.00724755 8.92357 0.835309 6.93428 2.30356 5.46603C3.77181 3.99778 5.7611 3.16972 7.8375 3.16248H29.8375C31.9139 3.16972 33.9032 3.99778 35.3714 5.46603C36.8397 6.93428 37.6678 8.92357 37.675 11V33C37.6678 35.0764 36.8397 37.0657 35.3714 38.5339C33.9032 40.0022 31.9139 40.8302 29.8375 40.8375ZM7.8375 5.08748C6.26941 5.08748 4.76554 5.7104 3.65673 6.81921C2.54792 7.92802 1.925 9.43188 1.925 11V33C1.925 34.5681 2.54792 36.0719 3.65673 37.1807C4.76554 38.2896 6.26941 38.9125 7.8375 38.9125H29.8375C31.4056 38.9125 32.9095 38.2896 34.0183 37.1807C35.1271 36.0719 35.75 34.5681 35.75 33V11C35.75 9.43188 35.1271 7.92802 34.0183 6.81921C32.9095 5.7104 31.4056 5.08748 29.8375 5.08748H7.8375Z" fill="#9CCAFF"/>
<path d="M6.33095 18.8375H5.08743V24.9246H6.0179V20.2114L7.83535 24.3855H8.75713L10.5746 20.2114V24.9246H11.505V18.8375H10.2615L8.29624 23.2811L6.33095 18.8375Z" fill="#9CCAFF"/>
<path d="M15.7299 24.9246L18.0082 18.8375H16.9473L15.2081 23.7855L13.4776 18.8375H12.4167L14.6863 24.9246H15.7299Z" fill="#9CCAFF"/>
<path d="M21.262 25.0377C22.7404 25.0377 23.6099 24.0637 23.6099 22.6811V18.8375H22.6534V22.6724C22.6534 23.5681 22.1577 24.142 21.262 24.142C20.3577 24.142 19.8707 23.5768 19.8707 22.6811V18.8375H18.9054V22.6898C18.9054 24.0985 19.7403 25.0377 21.262 25.0377Z" fill="#9CCAFF"/>
<path d="M24.8071 22.7246H27.1289V21.8637H24.8071V22.7246Z" fill="#9CCAFF"/>
<path d="M27.3786 24.9246H28.4569L29.97 22.5246L31.5004 24.9246H32.5874L30.5526 21.8028L32.4744 18.8375H31.3352L29.9786 21.0549L28.6308 18.8375H27.4829L29.4047 21.8028L27.3786 24.9246Z" fill="#9CCAFF"/>
</svg>
