<svg viewBox="0 0 44 44" fill="none" xmlns="http://www.w3.org/2000/svg">
<path d="M29.8375 40.8375H7.8375C5.7611 40.8302 3.77181 40.0022 2.30356 38.5339C0.835309 37.0657 0.00724755 35.0764 0 33V11C0.00724755 8.92357 0.835309 6.93428 2.30356 5.46603C3.77181 3.99778 5.7611 3.16972 7.8375 3.16248H29.8375C31.9139 3.16972 33.9032 3.99778 35.3714 5.46603C36.8397 6.93428 37.6678 8.92357 37.675 11V33C37.6678 35.0764 36.8397 37.0657 35.3714 38.5339C33.9032 40.0022 31.9139 40.8302 29.8375 40.8375ZM7.8375 5.08748C6.26941 5.08748 4.76554 5.7104 3.65673 6.81921C2.54792 7.92802 1.925 9.43188 1.925 11V33C1.925 34.5681 2.54792 36.0719 3.65673 37.1807C4.76554 38.2896 6.26941 38.9125 7.8375 38.9125H29.8375C31.4056 38.9125 32.9095 38.2896 34.0183 37.1807C35.1271 36.0719 35.75 34.5681 35.75 33V11C35.75 9.43188 35.1271 7.92802 34.0183 6.81921C32.9095 5.7104 31.4056 5.08748 29.8375 5.08748H7.8375Z" fill="#9CCAFF"/>
<path d="M6.39253 18.8375H5.08743V25.226H6.06397V20.2795L7.97141 24.6602H8.93883L10.8463 20.2795V25.226H11.8228V18.8375H10.5177L8.45512 23.5011L6.39253 18.8375Z" fill="#9CCAFF"/>
<path d="M16.2568 25.226L18.6479 18.8375H17.5345L15.7092 24.0305L13.893 18.8375H12.7796L15.1616 25.226H16.2568Z" fill="#9CCAFF"/>
<path d="M22.501 25.226L24.8921 18.8375H23.7787L21.9534 24.0305L20.1372 18.8375H19.0238L21.4058 25.226H22.501Z" fill="#9CCAFF"/>
<path d="M27.1571 18.8375H25.8521V25.226H26.8286V20.2795L28.736 24.6602H29.7034L31.6109 20.2795V25.226H32.5874V18.8375H31.2823L29.2197 23.5011L27.1571 18.8375Z" fill="#9CCAFF"/>
</svg>
