<svg viewBox="0 0 44 44" fill="none" xmlns="http://www.w3.org/2000/svg">
<path d="M19.2503 40.3332C9.16699 40.3332 0.916992 32.0832 0.916992 21.9998C0.916992 11.9165 9.16699 3.6665 19.2503 3.6665C29.3337 3.6665 37.5837 11.9165 37.5837 21.9998C37.5837 32.0832 29.3337 40.3332 19.2503 40.3332ZM19.2503 7.2415C11.092 7.2415 4.49199 13.8415 4.49199 21.9998C4.49199 30.1582 11.092 36.7582 19.2503 36.7582C27.4087 36.7582 34.0087 30.1582 34.0087 21.9998C34.0087 13.8415 27.4087 7.2415 19.2503 7.2415Z" fill="#8061FE"/>
<path d="M26.5414 14.9864L23.6895 17.8384L26.2173 20.3663L29.0693 17.5143L26.5414 14.9864Z" fill="#009AFF"/>
<path d="M24.3099 17.278L19.9023 21.6855L22.4302 24.2134L26.8378 19.8058L24.3099 17.278Z" fill="#00E9A8"/>
<path d="M16.3173 29.5163C15.8589 29.5163 15.4006 29.333 15.0339 28.9663L9.35059 23.283L11.9173 20.7163L16.4089 25.208L20.7173 20.8996L23.2839 23.4663L17.7839 28.9663C17.3256 29.333 16.8673 29.5163 16.3173 29.5163Z" fill="#FF4775"/>
</svg>
