<svg viewBox="0 0 44 44" fill="none" xmlns="http://www.w3.org/2000/svg">
<path fill-rule="evenodd" clip-rule="evenodd" d="M15.4818 4.31388C16.7183 3.07824 18.6138 2.80474 20.1251 3.64518H20.1707L20.4124 3.80363C27.0576 8.14929 32.722 13.8122 37.0682 20.4567C38.0929 21.9986 37.8751 24.0818 36.5499 25.3713L36.5472 25.3686L27.6795 34.2362C27.6465 34.2844 27.6121 34.3331 27.5694 34.3759C27.5422 34.4031 27.5057 34.4181 27.4754 34.4403L26.8873 35.0312L26.8685 35.0124L23.3504 38.5358C22.0088 39.8774 19.8259 39.8772 18.4842 38.5358L14.0369 34.0912L8.79205 39.3361C6.78886 41.3392 3.50683 41.3389 1.50348 39.3361C-0.499858 37.3328 -0.499858 34.0482 1.50348 32.0448L6.74298 26.8L2.30109 22.3554C0.959537 21.0138 0.959695 18.8309 2.30109 17.4892L15.4818 4.31388ZM2.86774 33.4118C1.61811 34.6615 1.61805 36.7222 2.86774 37.9718C4.11747 39.2211 6.17823 39.2213 7.4278 37.9718L12.6834 32.7135L8.12335 28.1508L2.86774 33.4118ZM3.66803 18.8534C3.07995 19.4415 3.07995 20.403 3.66803 20.9911L8.79205 26.1178C8.79733 26.1231 8.80034 26.1312 8.80548 26.1366L8.82159 26.1232L14.7486 32.0475L14.7352 32.0583L19.8458 37.1715C20.4337 37.7595 21.3954 37.7593 21.9835 37.1715L25.4935 33.6642L7.16998 15.3434L3.66803 18.8534ZM19.3221 5.41227C18.5558 4.90179 17.5205 5.00457 16.846 5.67814L8.53693 13.9818L26.8846 32.3026L35.191 23.9963L35.2017 23.9882L35.4246 23.7304C35.8793 23.0899 35.9099 22.1962 35.4595 21.5202L35.4542 21.5148C35.028 20.8633 34.5849 20.2235 34.1329 19.592L28.9444 24.7831C28.5677 25.1584 27.9592 25.1589 27.5828 24.7831C27.2063 24.4066 27.2069 23.7957 27.5828 23.4189L32.9727 18.0263C32.1752 16.9908 31.342 15.9852 30.4752 15.0104L26.992 18.5204C26.6169 18.8978 26.0058 18.9 25.6277 18.5258C25.2504 18.1502 25.2498 17.5367 25.6251 17.1588L29.1646 13.5898C26.2903 10.5756 23.0803 7.88398 19.5853 5.5734H19.5638L19.3221 5.41227Z" fill="#9CCAFF"/>
</svg>
