<svg viewBox="0 0 44 44" fill="none" xmlns="http://www.w3.org/2000/svg">
<path d="M15.4427 18.6176C16.2107 18.623 16.9631 18.4002 17.6043 17.9775C18.2456 17.5548 18.7469 16.9511 19.0446 16.2431C19.3423 15.535 19.423 14.7546 19.2765 14.0006C19.13 13.2466 18.7629 12.5532 18.2217 12.0081C17.6805 11.4631 16.9897 11.0911 16.2368 10.9392C15.4839 10.7873 14.7029 10.8625 13.9927 11.1552C13.2826 11.4478 12.6754 11.9448 12.2481 12.583C11.8208 13.2212 11.5927 13.972 11.5927 14.7401C11.5926 15.7637 11.9974 16.7458 12.7186 17.4722C13.4399 18.1986 14.4191 18.6103 15.4427 18.6176ZM15.4427 12.8151C15.8311 12.8096 16.2124 12.9202 16.5376 13.1326C16.8629 13.3451 17.1174 13.6497 17.2686 14.0076C17.4198 14.3655 17.4607 14.7603 17.3863 15.1416C17.3118 15.5229 17.1253 15.8733 16.8506 16.148C16.5759 16.4227 16.2255 16.6092 15.8442 16.6837C15.4629 16.7581 15.0681 16.7172 14.7102 16.566C14.3523 16.4148 14.0477 16.1603 13.8352 15.835C13.6228 15.5098 13.5122 15.1285 13.5177 14.7401C13.5177 14.2295 13.7205 13.7399 14.0815 13.3789C14.4425 13.0179 14.9321 12.8151 15.4427 12.8151Z" fill="#E6E1E5" fill-opacity="0.38"/>
<path d="M6.91768 17.7376C7.04099 17.7385 7.16135 17.7754 7.26395 17.8438C7.36656 17.9122 7.44693 18.0091 7.49518 18.1226C7.53831 18.2622 7.53175 18.4125 7.4766 18.5479C7.42145 18.6832 7.32113 18.7953 7.19268 18.8651C6.92724 19.1449 6.71953 19.4744 6.58141 19.8345C6.44329 20.1947 6.37745 20.5785 6.38767 20.9641C6.39788 21.3497 6.48394 21.7295 6.64094 22.0818C6.79794 22.4342 7.0228 22.7521 7.30268 23.0176C7.58256 23.283 7.91198 23.4907 8.27213 23.6288C8.63228 23.767 9.01611 23.8328 9.40171 23.8226C9.7873 23.8124 10.1671 23.7263 10.5194 23.5693C10.8718 23.4123 11.1897 23.1874 11.4552 22.9076C11.5713 22.8372 11.7044 22.7999 11.8402 22.7999C11.9759 22.7999 12.1091 22.8372 12.2252 22.9076C12.3421 22.9541 12.4459 23.0285 12.5274 23.1244C12.6089 23.2203 12.6656 23.3347 12.6927 23.4576C12.674 23.8301 12.7314 24.2025 12.8612 24.5522C12.991 24.9019 13.1906 25.2215 13.4479 25.4916C13.7051 25.7617 14.0146 25.9767 14.3575 26.1234C14.7005 26.2701 15.0697 26.3455 15.4427 26.3451C15.8419 26.353 16.2386 26.2789 16.608 26.1272C16.9774 25.9756 17.3117 25.7496 17.5902 25.4634C17.8687 25.1772 18.0854 24.8368 18.2269 24.4634C18.3684 24.09 18.4316 23.6914 18.4127 23.2926C18.4136 23.1692 18.4505 23.0489 18.5189 22.9463C18.5873 22.8437 18.6842 22.7633 18.7977 22.7151C18.9275 22.6604 19.0709 22.6469 19.2086 22.6764C19.3464 22.7059 19.4717 22.777 19.5677 22.8801C19.9714 23.2812 20.4847 23.554 21.0431 23.6643C21.6014 23.7746 22.1799 23.7175 22.7059 23.5C23.2318 23.2826 23.6818 22.9146 23.9993 22.4422C24.3167 21.9698 24.4875 21.4142 24.4902 20.8451C24.5054 20.0631 24.22 19.3052 23.6927 18.7276C23.5975 18.6439 23.5325 18.5313 23.5077 18.4071C23.4828 18.2828 23.4995 18.1539 23.5552 18.0401C23.6117 17.9154 23.7056 17.8113 23.8238 17.7423C23.9421 17.6734 24.0788 17.6429 24.2152 17.6551C24.5967 17.6551 24.9744 17.5795 25.3266 17.4327C25.6787 17.2858 25.9982 17.0707 26.2667 16.7996C26.5352 16.5286 26.7473 16.207 26.8908 15.8535C27.0343 15.5 27.1063 15.1216 27.1027 14.7401C27.1 14.3403 27.0152 13.9454 26.8535 13.5799C26.6918 13.2143 26.4566 12.8859 26.1626 12.6151C25.8686 12.3443 25.522 12.1369 25.1444 12.0057C24.7668 11.8745 24.3663 11.8224 23.9677 11.8526C23.866 11.8466 23.7668 11.8189 23.6767 11.7715C23.5866 11.7241 23.5077 11.658 23.4452 11.5776C23.4571 11.5139 23.4571 11.4487 23.4452 11.3851C23.3971 11.2515 23.3954 11.1056 23.4403 10.9709C23.4852 10.8363 23.5741 10.7206 23.6927 10.6426C23.9581 10.3627 24.1658 10.0333 24.3039 9.67311C24.4421 9.31295 24.5079 8.92912 24.4977 8.54353C24.4875 8.15793 24.4014 7.77812 24.2444 7.42579C24.0874 7.07346 23.8626 6.75549 23.5827 6.49006C23.3028 6.22462 22.9734 6.01692 22.6132 5.87879C22.2531 5.74067 21.8692 5.67483 21.4836 5.68505C21.098 5.69526 20.7182 5.78133 20.3659 5.93832C20.0136 6.09532 19.6956 6.32018 19.4302 6.60006C19.3316 6.68922 19.2085 6.74655 19.0768 6.76455C18.9451 6.78255 18.8111 6.76038 18.6922 6.70095C18.5734 6.64152 18.4752 6.54759 18.4106 6.43146C18.346 6.31532 18.318 6.18239 18.3302 6.05006C18.3499 5.66566 18.2888 5.28139 18.1506 4.92211C18.0125 4.56284 17.8005 4.23656 17.5283 3.96439C17.2562 3.69222 16.9299 3.48021 16.5706 3.34209C16.2113 3.20397 15.8271 3.14281 15.4427 3.16256C14.6741 3.20521 13.9537 3.5501 13.4385 4.12197C12.9233 4.69384 12.6552 5.44626 12.6927 6.21506C12.6928 6.31795 12.6678 6.41932 12.6199 6.51037C12.572 6.60142 12.5026 6.6794 12.4177 6.73756H12.2252C12.0954 6.79224 11.9519 6.80574 11.8142 6.77623C11.6765 6.74672 11.5512 6.67562 11.4552 6.57256C11.1932 6.25959 10.8649 6.00884 10.494 5.83851C10.1231 5.66819 9.71896 5.58255 9.31087 5.58782C8.90277 5.59309 8.50096 5.68912 8.13459 5.86896C7.76822 6.0488 7.44646 6.30793 7.19268 6.62756C6.64354 7.17902 6.33524 7.92557 6.33524 8.70381C6.33524 9.48205 6.64354 10.2286 7.19268 10.7801C7.27518 10.8862 7.31998 11.0169 7.31998 11.1513C7.31998 11.2858 7.27518 11.4164 7.19268 11.5226C7.14965 11.6529 7.06361 11.7646 6.94868 11.8396C6.83375 11.9146 6.69676 11.9482 6.56018 11.9351C5.83083 11.9351 5.13136 12.2248 4.61563 12.7405C4.09991 13.2562 3.81018 13.9557 3.81018 14.6851C3.79418 15.0949 3.86405 15.5036 4.01529 15.8848C4.16654 16.2661 4.39583 16.6115 4.68844 16.899C4.98105 17.1864 5.33051 17.4095 5.71442 17.5539C6.09832 17.6983 6.50817 17.7609 6.91768 17.7376ZM6.86268 13.7501C7.36535 13.7398 7.85356 13.5799 8.265 13.2909C8.67643 13.0019 8.99244 12.5969 9.17268 12.1276C9.33793 11.6558 9.37148 11.148 9.26973 10.6586C9.16798 10.1692 8.93477 9.71683 8.59518 9.35006C8.50371 9.26044 8.43105 9.15348 8.38144 9.03542C8.33184 8.91737 8.30629 8.79061 8.30629 8.66256C8.30629 8.53451 8.33184 8.40775 8.38144 8.28969C8.43105 8.17164 8.50371 8.06468 8.59518 7.97506C8.78562 7.78697 9.04251 7.68149 9.31018 7.68149C9.57785 7.68149 9.83474 7.78697 10.0252 7.97506C10.3771 8.32927 10.8251 8.5727 11.3138 8.67532C11.8024 8.77795 12.3105 8.73527 12.7752 8.55256H13.0227C13.4949 8.32767 13.8932 7.97279 14.1708 7.52954C14.4484 7.0863 14.5939 6.57307 14.5902 6.05006C14.5886 5.81275 14.6748 5.58323 14.8321 5.40558C14.9895 5.22793 15.2069 5.11468 15.4427 5.08756C15.5776 5.09084 15.7104 5.12166 15.833 5.17815C15.9556 5.23464 16.0653 5.31559 16.1554 5.41604C16.2456 5.51648 16.3142 5.6343 16.3572 5.76224C16.4001 5.89019 16.4165 6.02557 16.4052 6.16006C16.3742 6.69988 16.5152 7.23562 16.8078 7.69033C17.1003 8.14504 17.5295 8.49531 18.0336 8.69085C18.5377 8.88638 19.0909 8.91711 19.6135 8.77863C20.1362 8.64014 20.6015 8.33956 20.9427 7.92006C21.0323 7.8286 21.1393 7.75593 21.2573 7.70633C21.3754 7.65672 21.5021 7.63117 21.6302 7.63117C21.7582 7.63117 21.885 7.65672 22.003 7.70633C22.1211 7.75593 22.2281 7.8286 22.3177 7.92006C22.4142 8.01247 22.491 8.12346 22.5434 8.24634C22.5959 8.36922 22.6229 8.50145 22.6229 8.63506C22.6229 8.76867 22.5959 8.9009 22.5434 9.02378C22.491 9.14666 22.4142 9.25765 22.3177 9.35006C21.9618 9.70091 21.7153 10.1474 21.6079 10.6355C21.5005 11.1235 21.5369 11.6323 21.7127 12.1001V12.3476C21.9415 12.8146 22.2981 13.2072 22.741 13.4798C23.1839 13.7524 23.6951 13.8938 24.2152 13.8876C24.4704 13.8876 24.7153 13.989 24.8958 14.1695C25.0763 14.35 25.1777 14.5948 25.1777 14.8501C25.1779 14.9848 25.1506 15.1182 25.0974 15.2421C25.0443 15.3659 24.9664 15.4776 24.8685 15.5703C24.7707 15.663 24.655 15.7347 24.5284 15.7811C24.4019 15.8275 24.2672 15.8475 24.1327 15.8401C23.6355 15.8418 23.1497 15.9884 22.7345 16.2619C22.3194 16.5354 21.993 16.924 21.7952 17.3801C21.6353 17.848 21.6045 18.3504 21.7062 18.8344C21.8078 19.3184 22.0381 19.766 22.3727 20.1301C22.4657 20.2178 22.5385 20.3247 22.586 20.4435C22.6335 20.5622 22.6545 20.6899 22.6477 20.8176C22.6495 20.9446 22.6261 21.0708 22.5789 21.1888C22.5317 21.3068 22.4616 21.4143 22.3727 21.5051C22.2803 21.6016 22.1693 21.6783 22.0464 21.7308C21.9235 21.7833 21.7913 21.8103 21.6577 21.8103C21.5241 21.8103 21.3918 21.7833 21.269 21.7308C21.1461 21.6783 21.0351 21.6016 20.9427 21.5051C20.5731 21.1797 20.1229 20.9596 19.6391 20.8677C19.1554 20.7758 18.6559 20.8155 18.1927 20.9826C17.7213 21.2134 17.3259 21.5742 17.053 22.0225C16.7801 22.4708 16.6412 22.9879 16.6527 23.5126C16.6493 23.6581 16.6129 23.801 16.5462 23.9305C16.4796 24.06 16.3844 24.1726 16.2679 24.26C16.1515 24.3474 16.0167 24.4072 15.8737 24.4349C15.7308 24.4626 15.5834 24.4575 15.4427 24.4201C15.3078 24.4168 15.1749 24.386 15.0524 24.3295C14.9298 24.273 14.8201 24.192 14.7299 24.0916C14.6398 23.9911 14.5711 23.8733 14.5282 23.7454C14.4852 23.6174 14.4689 23.482 14.4802 23.3476C14.4716 22.8411 14.3129 22.3485 14.024 21.9323C13.7352 21.5162 13.3292 21.1952 12.8577 21.0101C12.5338 20.882 12.1885 20.8167 11.8402 20.8176C11.4881 20.8099 11.1382 20.8742 10.8119 21.0067C10.4856 21.1391 10.1898 21.3367 9.94268 21.5876C9.75813 21.7657 9.51166 21.8652 9.25518 21.8652C8.9987 21.8652 8.75223 21.7657 8.56768 21.5876C8.47039 21.4928 8.39306 21.3794 8.34027 21.2543C8.28747 21.1291 8.26027 20.9947 8.26027 20.8588C8.26027 20.723 8.28747 20.5885 8.34027 20.4633C8.39306 20.3382 8.47039 20.2249 8.56768 20.1301C8.91572 19.774 9.15095 19.3231 9.24389 18.8339C9.33684 18.3447 9.28337 17.839 9.09018 17.3801C8.86137 16.913 8.5048 16.5204 8.06185 16.2478C7.61891 15.9752 7.10774 15.8338 6.58768 15.8401C6.45893 15.8401 6.33148 15.8143 6.21288 15.7643C6.09427 15.7142 5.98692 15.6408 5.89718 15.5485C5.80743 15.4562 5.73712 15.3468 5.6904 15.2268C5.64368 15.1069 5.6215 14.9788 5.62518 14.8501C5.60125 14.6876 5.61813 14.5217 5.67429 14.3673C5.73045 14.213 5.82413 14.075 5.94689 13.9659C6.06966 13.8568 6.21764 13.7799 6.37751 13.7422C6.53737 13.7046 6.70411 13.7072 6.86268 13.7501Z" fill="#E6E1E5" fill-opacity="0.38"/>
<path d="M27.0477 33.0001C26.1885 32.9989 25.3535 33.2852 24.6757 33.8135C23.998 34.3417 23.5164 35.0815 23.3077 35.9151H19.1552C18.9876 35.2512 18.6434 34.6452 18.1593 34.161C17.6752 33.6769 17.0691 33.3327 16.4052 33.1651V29.2601C16.4052 29.0048 16.3038 28.76 16.1233 28.5795C15.9428 28.399 15.698 28.2976 15.4427 28.2976C15.1875 28.2976 14.9427 28.399 14.7622 28.5795C14.5817 28.76 14.4802 29.0048 14.4802 29.2601V33.2476C13.8164 33.4152 13.2103 33.7594 12.7262 34.2435C12.2421 34.7277 11.8979 35.3337 11.7302 35.9976H7.57775C7.34348 35.0903 6.78635 34.2995 6.01079 33.7736C5.23523 33.2477 4.29448 33.0227 3.36488 33.1407C2.43529 33.2588 1.58067 33.7119 0.961211 34.415C0.341757 35.1181 0 36.023 0 36.9601C0 37.8971 0.341757 38.802 0.961211 39.5051C1.58067 40.2082 2.43529 40.6613 3.36488 40.7794C4.29448 40.8975 5.23523 40.6724 6.01079 40.1465C6.78635 39.6206 7.34348 38.8299 7.57775 37.9226H11.7302C11.934 38.7534 12.4105 39.4918 13.0836 40.0198C13.7566 40.5477 14.5873 40.8347 15.4427 40.8347C16.2982 40.8347 17.1289 40.5477 17.8019 40.0198C18.475 39.4918 18.9515 38.7534 19.1552 37.9226H23.3077C23.5065 38.6077 23.8918 39.2242 24.4205 39.7032C24.9492 40.1821 25.6007 40.5048 26.3021 40.6351C27.0035 40.7654 27.7273 40.6982 28.3928 40.4411C29.0583 40.184 29.6392 39.747 30.0708 39.179C30.5024 38.6109 30.7677 37.9341 30.8371 37.2241C30.9064 36.514 30.7771 35.7987 30.4636 35.1578C30.15 34.517 29.6646 33.9759 29.0614 33.5949C28.4583 33.2139 27.7611 33.0079 27.0477 33.0001ZM3.83775 38.9126C3.45042 38.9125 3.07185 38.7973 2.75019 38.5815C2.42854 38.3657 2.17833 38.0591 2.03139 37.7008C1.88445 37.3424 1.84743 36.9484 1.92502 36.5689C2.00261 36.1894 2.19132 35.8416 2.46714 35.5697C2.74296 35.2977 3.09343 35.114 3.47397 35.0418C3.85451 34.9696 4.24793 35.0122 4.60419 35.1642C4.96045 35.3162 5.26344 35.5707 5.47464 35.8954C5.68584 36.2201 5.7957 36.6003 5.79025 36.9876C5.78302 37.5006 5.57412 37.9902 5.20874 38.3504C4.84336 38.7107 4.35085 38.9126 3.83775 38.9126ZM15.4427 38.9126C15.0543 38.918 14.673 38.8074 14.3478 38.595C14.0225 38.3826 13.768 38.0779 13.6168 37.72C13.4657 37.3622 13.4247 36.9673 13.4991 36.586C13.5736 36.2047 13.7601 35.8543 14.0348 35.5796C14.3095 35.3049 14.6599 35.1184 15.0412 35.044C15.4225 34.9695 15.8174 35.0105 16.1752 35.1616C16.5331 35.3128 16.8377 35.5673 17.0502 35.8926C17.2626 36.2179 17.3732 36.5991 17.3677 36.9876C17.3677 37.4981 17.1649 37.9877 16.8039 38.3487C16.4429 38.7098 15.9533 38.9126 15.4427 38.9126ZM27.0477 38.9126C26.6593 38.918 26.278 38.8074 25.9528 38.595C25.6275 38.3826 25.373 38.0779 25.2218 37.72C25.0707 37.3622 25.0297 36.9673 25.1041 36.586C25.1786 36.2047 25.3651 35.8543 25.6398 35.5796C25.9145 35.3049 26.2649 35.1184 26.6462 35.044C27.0275 34.9695 27.4224 35.0105 27.7802 35.1616C28.1381 35.3128 28.4427 35.5673 28.6552 35.8926C28.8676 36.2179 28.9782 36.5991 28.9727 36.9876C28.9656 37.4959 28.7605 37.9814 28.4011 38.3409C28.0416 38.7004 27.5561 38.9055 27.0477 38.9126Z" fill="#E6E1E5" fill-opacity="0.38"/>
</svg>
