<svg viewBox="0 0 44 44" fill="none" xmlns="http://www.w3.org/2000/svg">
<path d="M31.4649 28.4254C29.9999 28.4214 28.5821 28.9423 27.4688 29.8935C26.3555 30.8447 25.6204 32.1632 25.3971 33.6096H20.9491C20.0312 33.6099 19.1495 33.2513 18.4928 32.6105C17.836 31.9698 17.4562 31.0977 17.4347 30.1809V26.423C17.4289 25.5432 17.2113 24.6777 16.8003 23.8995C16.3894 23.1214 15.7971 22.4534 15.0735 21.9519C15.7971 21.4504 16.3894 20.7824 16.8003 20.0043C17.2113 19.2261 17.4289 18.3606 17.4347 17.4808V13.7229C17.4562 12.8061 17.836 11.934 18.4928 11.2933C19.1495 10.6525 20.0312 10.2939 20.9491 10.2942H25.3971C25.6422 11.827 26.4565 13.2113 27.6777 14.1711C28.8989 15.1309 30.4373 15.5956 31.9862 15.4728C33.5351 15.35 34.9808 14.6485 36.0352 13.5083C37.0895 12.368 37.675 10.8727 37.675 9.32042C37.675 7.76813 37.0895 6.27283 36.0352 5.13259C34.9808 3.99234 33.5351 3.29089 31.9862 3.16805C30.4373 3.0452 28.8989 3.50999 27.6777 4.46976C26.4565 5.42954 25.6422 6.81381 25.3971 8.34666H20.9491C19.4928 8.34666 18.096 8.92465 17.0662 9.95347C16.0364 10.9823 15.4579 12.3777 15.4579 13.8326V17.4808C15.455 18.3384 15.133 19.1644 14.5545 19.798C13.9761 20.4317 13.1824 20.8279 12.3279 20.9096V18.7975C12.3279 18.002 12.0135 17.2386 11.453 16.6736C10.8925 16.1085 10.1314 15.7874 9.33513 15.7802H2.99273C2.1965 15.7874 1.43533 16.1085 0.874864 16.6736C0.314393 17.2386 -3.29018e-05 18.002 2.5823e-09 18.7975V25.1063C-3.29018e-05 25.9018 0.314393 26.6652 0.874864 27.2302C1.43533 27.7953 2.1965 28.1164 2.99273 28.1236H9.33513C10.1314 28.1164 10.8925 27.7953 11.453 27.2302C12.0135 26.6652 12.3279 25.9018 12.3279 25.1063V22.9942C13.1923 23.063 13.9993 23.4535 14.5892 24.0885C15.179 24.7235 15.5086 25.5567 15.5128 26.423V30.1809C15.5128 31.6358 16.0913 33.0312 17.1211 34.06C18.151 35.0889 19.5477 35.6669 21.004 35.6669H25.3971C25.5858 36.8247 26.1023 37.9044 26.8857 38.7784C27.6691 39.6523 28.6865 40.2839 29.8177 40.5985C30.949 40.9132 32.1467 40.8977 33.2694 40.554C34.3921 40.2102 35.3929 39.5526 36.1534 38.6587C36.9139 37.7649 37.4024 36.6722 37.5611 35.5098C37.7198 34.3475 37.5421 33.164 37.049 32.0993C36.5559 31.0346 35.7681 30.1332 34.7785 29.5016C33.789 28.87 32.6391 28.5346 31.4649 28.5351V28.4254ZM31.4649 5.0825C32.3066 5.0825 33.1294 5.33186 33.8292 5.79903C34.5291 6.26621 35.0746 6.93022 35.3967 7.70711C35.7188 8.48399 35.8031 9.33885 35.6388 10.1636C35.4746 10.9883 35.0693 11.7459 34.4741 12.3405C33.879 12.9351 33.1207 13.34 32.2951 13.5041C31.4696 13.6681 30.6139 13.5839 29.8363 13.2621C29.0587 12.9403 28.394 12.3954 27.9264 11.6962C27.4588 10.997 27.2092 10.175 27.2092 9.33414C27.2055 8.77479 27.3131 8.22028 27.5257 7.70281C27.7383 7.18533 28.0516 6.71518 28.4475 6.31965C28.8434 5.92412 29.314 5.61109 29.832 5.39872C30.35 5.18634 30.905 5.07886 31.4649 5.0825ZM10.4059 25.1063C10.4059 25.3901 10.2931 25.6622 10.0923 25.8628C9.89149 26.0634 9.61913 26.1761 9.33513 26.1761H2.99273C2.70874 26.1761 2.43638 26.0634 2.23557 25.8628C2.03475 25.6622 1.92194 25.3901 1.92194 25.1063V18.7975C1.92194 18.5137 2.03475 18.2416 2.23557 18.041C2.43638 17.8404 2.70874 17.7277 2.99273 17.7277H9.33513C9.61913 17.7277 9.89149 17.8404 10.0923 18.041C10.2931 18.2416 10.4059 18.5137 10.4059 18.7975V25.1063ZM31.4649 38.8213C30.6209 38.8267 29.7943 38.5813 29.0903 38.1162C28.3862 37.6511 27.8365 36.9874 27.511 36.2094C27.1855 35.4314 27.0989 34.5743 27.2622 33.747C27.4256 32.9197 27.8315 32.1596 28.4283 31.5634C29.0251 30.9671 29.7859 30.5617 30.614 30.3985C31.4421 30.2353 32.3 30.3218 33.0788 30.647C33.8575 30.9722 34.5219 31.5214 34.9874 32.2247C35.4529 32.9281 35.6986 33.7539 35.6932 34.5971C35.6932 35.1518 35.5838 35.7011 35.3713 36.2136C35.1588 36.7261 34.8474 37.1918 34.4547 37.5841C34.0621 37.9763 33.596 38.2875 33.083 38.4997C32.57 38.712 32.0202 38.8213 31.4649 38.8213Z" fill="#E6E1E5" fill-opacity="0.38"/>
</svg>
