<svg viewBox="0 0 44 44" fill="none" xmlns="http://www.w3.org/2000/svg">
<path d="M35.6847 11.22H29.0235V10.285C28.9952 9.73539 28.7556 9.21765 28.3543 8.83888C27.953 8.46011 27.4208 8.24928 26.8676 8.25H9.97978C9.42665 8.24928 8.8944 8.46011 8.49313 8.83888C8.09185 9.21765 7.85225 9.73539 7.82389 10.285V11.5775L5.83383 9.9C5.70428 9.78779 5.54469 9.71553 5.37455 9.69206C5.20441 9.66859 5.03109 9.69491 4.87574 9.76782C4.72039 9.84073 4.58973 9.95706 4.49973 10.1026C4.40973 10.2482 4.36428 10.4167 4.36892 10.5875V11H2.29594C2.03621 11.0412 1.79977 11.1733 1.62908 11.3724C1.45838 11.5715 1.36462 11.8246 1.36462 12.0863C1.36462 12.3479 1.45838 12.6011 1.62908 12.8001C1.79977 12.9992 2.03621 13.1313 2.29594 13.1725H4.47948V13.75C4.47329 13.9207 4.52048 14.089 4.61455 14.2319C4.70861 14.3747 4.84491 14.485 5.00463 14.5475C5.12167 14.5835 5.24691 14.5835 5.36395 14.5475C5.5778 14.5464 5.784 14.4682 5.94438 14.3275L7.82389 12.815V14.1075C7.82389 14.3892 7.87965 14.6681 7.98799 14.9284C8.09634 15.1886 8.25514 15.4251 8.45533 15.6242C8.65553 15.8234 8.89319 15.9814 9.15476 16.0892C9.41632 16.197 9.69667 16.2525 9.97978 16.2525H26.8676C27.4394 16.2525 27.9878 16.0265 28.3921 15.6242C28.7964 15.222 29.0235 14.6764 29.0235 14.1075V13.035H35.6847C35.8229 13.035 35.9335 13.035 35.9335 13.365V20.79C35.9335 21.01 35.9335 21.1475 35.6847 21.1475H32.4509V20.46C32.4446 20.2938 32.3926 20.1325 32.3005 19.9937C32.2084 19.855 32.0797 19.744 31.9285 19.6731C31.7773 19.6021 31.6095 19.5739 31.4432 19.5914C31.277 19.609 31.1188 19.6716 30.986 19.7725L29.1065 21.3125V20.1575C29.1065 19.5886 28.8793 19.043 28.475 18.6408C28.0707 18.2385 27.5223 18.0125 26.9506 18.0125H9.97978C9.408 18.0125 8.85964 18.2385 8.45533 18.6408C8.05102 19.043 7.82389 19.5886 7.82389 20.1575V21.12H1.93663C1.3965 21.1554 0.891722 21.3996 0.530182 21.8005C0.168643 22.2013 -0.0209788 22.7269 0.00184544 23.265V30.69C-0.0207466 31.2253 0.169735 31.7478 0.531955 32.1443C0.894175 32.5407 1.39891 32.779 1.93663 32.8075H4.4242V33.4675C4.42548 33.6366 4.47569 33.8017 4.56882 33.9431C4.66195 34.0846 4.79407 34.1963 4.94935 34.265C5.07702 34.2909 5.20864 34.2909 5.33631 34.265C5.54629 34.2692 5.75131 34.2012 5.91674 34.0725L7.82389 32.5875V33.715C7.82389 34.2839 8.05102 34.8295 8.45533 35.2317C8.85964 35.634 9.408 35.86 9.97978 35.86H26.8676C27.4394 35.86 27.9878 35.634 28.3921 35.2317C28.7964 34.8295 29.0235 34.2839 29.0235 33.715V30.03C29.0235 29.4611 28.7964 28.9155 28.3921 28.5133C27.9878 28.111 27.4394 27.885 26.8676 27.885H9.97978C9.408 27.885 8.85964 28.111 8.45533 28.5133C8.05102 28.9155 7.82389 29.4611 7.82389 30.03V31.24L5.94438 29.7C5.81178 29.5911 5.65095 29.5218 5.48044 29.4999C5.30993 29.478 5.13668 29.5046 4.98067 29.5764C4.82465 29.6483 4.69223 29.7626 4.59866 29.9061C4.5051 30.0496 4.4542 30.2165 4.45184 30.3875V31.02H1.96427C1.92626 30.9038 1.92626 30.7787 1.96427 30.6625V23.2375C1.92202 23.122 1.92202 22.9955 1.96427 22.88L7.82389 22.935V23.8425C7.82389 24.4114 8.05102 24.957 8.45533 25.3592C8.85964 25.7615 9.408 25.9875 9.97978 25.9875H26.8676C27.4394 25.9875 27.9878 25.7615 28.3921 25.3592C28.7964 24.957 29.0235 24.4114 29.0235 23.8425V22.605L30.903 24.145C31.0427 24.2361 31.206 24.2846 31.3729 24.2846C31.5399 24.2846 31.7032 24.2361 31.8428 24.145C32.0003 24.0716 32.1334 23.9549 32.2264 23.8088C32.3195 23.6626 32.3686 23.493 32.368 23.32V22.9075H35.6018C36.1614 22.8931 36.6928 22.6599 37.0808 22.2584C37.4688 21.8569 37.6822 21.3194 37.6748 20.7625V13.3375C37.6827 12.797 37.4798 12.2745 37.1087 11.8797C36.7377 11.4848 36.2273 11.2484 35.6847 11.22ZM27.1717 13.97C27.1717 14.0169 27.1624 14.0634 27.1443 14.1068C27.1263 14.1502 27.0998 14.1896 27.0664 14.2228C27.0331 14.256 26.9935 14.2823 26.9499 14.3003C26.9063 14.3183 26.8596 14.3275 26.8124 14.3275H9.97978C9.88449 14.3275 9.79309 14.2898 9.72571 14.2228C9.65832 14.1557 9.62047 14.0648 9.62047 13.97V10.285C9.62047 10.1902 9.65832 10.0993 9.72571 10.0322C9.79309 9.96517 9.88449 9.9275 9.97978 9.9275H26.8676C26.9148 9.9275 26.9616 9.93675 27.0052 9.95471C27.0487 9.97268 27.0884 9.99901 27.1217 10.0322C27.1551 10.0654 27.1816 10.1048 27.1996 10.1482C27.2177 10.1916 27.227 10.2381 27.227 10.285L27.1717 13.97ZM9.62047 30.03C9.62047 29.9352 9.65832 29.8443 9.72571 29.7772C9.79309 29.7102 9.88449 29.6725 9.97978 29.6725H26.8676C26.9148 29.6725 26.9616 29.6817 27.0052 29.6997C27.0487 29.7177 27.0884 29.744 27.1217 29.7772C27.1551 29.8104 27.1816 29.8498 27.1996 29.8932C27.2177 29.9366 27.227 29.9831 27.227 30.03V33.715C27.227 33.762 27.2177 33.8084 27.1996 33.8518C27.1816 33.8952 27.1551 33.9346 27.1217 33.9678C27.0884 34.001 27.0487 34.0273 27.0052 34.0453C26.9616 34.0633 26.9148 34.0725 26.8676 34.0725H9.97978C9.88449 34.0725 9.79309 34.0348 9.72571 33.9678C9.65832 33.9007 9.62047 33.8098 9.62047 33.715V30.03ZM27.1717 23.8425C27.1717 23.8894 27.1624 23.9359 27.1443 23.9793C27.1263 24.0227 27.0998 24.0621 27.0664 24.0953C27.0331 24.1285 26.9935 24.1548 26.9499 24.1728C26.9063 24.1908 26.8596 24.2 26.8124 24.2H9.97978C9.88449 24.2 9.79309 24.1623 9.72571 24.0953C9.65832 24.0282 9.62047 23.9373 9.62047 23.8425V20.1575C9.62047 20.0627 9.65832 19.9718 9.72571 19.9047C9.79309 19.8377 9.88449 19.8 9.97978 19.8H26.8676C26.9148 19.8 26.9616 19.8092 27.0052 19.8272C27.0487 19.8452 27.0884 19.8715 27.1217 19.9047C27.1551 19.9379 27.1816 19.9773 27.1996 20.0207C27.2177 20.0641 27.227 20.1106 27.227 20.1575L27.1717 23.8425Z" fill="#E6E1E5" fill-opacity="0.38"/>
<path d="M25.0158 21.3675H14.9826C14.814 21.3675 14.6523 21.4341 14.5331 21.5527C14.4139 21.6714 14.3469 21.8322 14.3469 22C14.3469 22.1677 14.4139 22.3286 14.5331 22.4472C14.6523 22.5659 14.814 22.6325 14.9826 22.6325H25.0158C25.1844 22.6325 25.3461 22.5659 25.4653 22.4472C25.5845 22.3286 25.6515 22.1677 25.6515 22C25.6515 21.8322 25.5845 21.6714 25.4653 21.5527C25.3461 21.4341 25.1844 21.3675 25.0158 21.3675Z" fill="#E6E1E5" fill-opacity="0.38"/>
<path d="M12.1633 21.065C11.9775 21.065 11.7958 21.1198 11.6412 21.2226C11.4867 21.3253 11.3662 21.4714 11.2951 21.6422C11.224 21.8131 11.2054 22.001 11.2416 22.1824C11.2779 22.3638 11.3674 22.5304 11.4988 22.6612C11.6302 22.7919 11.7977 22.881 11.98 22.917C12.1623 22.9531 12.3512 22.9346 12.523 22.8638C12.6947 22.7931 12.8414 22.6732 12.9447 22.5195C13.048 22.3657 13.1031 22.1849 13.1031 22C13.1031 21.752 13.0041 21.5142 12.8278 21.3389C12.6516 21.1635 12.4126 21.065 12.1633 21.065Z" fill="#E6E1E5" fill-opacity="0.38"/>
<path d="M14.9826 32.505H25.0158C25.1844 32.505 25.3461 32.4384 25.4653 32.3197C25.5845 32.2011 25.6515 32.0403 25.6515 31.8725C25.6515 31.7048 25.5845 31.5439 25.4653 31.4253C25.3461 31.3066 25.1844 31.24 25.0158 31.24H14.9826C14.814 31.24 14.6523 31.3066 14.5331 31.4253C14.4139 31.5439 14.3469 31.7048 14.3469 31.8725C14.3469 32.0403 14.4139 32.2011 14.5331 32.3197C14.6523 32.4384 14.814 32.505 14.9826 32.505Z" fill="#E6E1E5" fill-opacity="0.38"/>
<path d="M12.1633 32.8075C12.3492 32.8075 12.5309 32.7527 12.6854 32.6499C12.84 32.5472 12.9604 32.4012 13.0315 32.2303C13.1027 32.0595 13.1213 31.8715 13.085 31.6901C13.0488 31.5087 12.9593 31.3421 12.8278 31.2114C12.6964 31.0806 12.529 30.9915 12.3467 30.9555C12.1644 30.9194 11.9754 30.9379 11.8037 31.0087C11.632 31.0794 11.4852 31.1993 11.3819 31.353C11.2787 31.5068 11.2236 31.6876 11.2236 31.8725C11.2236 32.1205 11.3226 32.3583 11.4988 32.5336C11.6751 32.709 11.9141 32.8075 12.1633 32.8075Z" fill="#E6E1E5" fill-opacity="0.38"/>
<path d="M25.0158 11.495H14.9826C14.8991 11.495 14.8164 11.5113 14.7393 11.5431C14.6622 11.5749 14.5921 11.6215 14.5331 11.6802C14.474 11.739 14.4272 11.8087 14.3953 11.8854C14.3633 11.9622 14.3469 12.0444 14.3469 12.1275C14.3469 12.2952 14.4139 12.4561 14.5331 12.5747C14.6523 12.6933 14.814 12.76 14.9826 12.76H25.0158C25.1796 12.7529 25.3343 12.6831 25.4476 12.5653C25.5609 12.4474 25.624 12.2906 25.6239 12.1275C25.6276 12.0457 25.6147 11.9641 25.5858 11.8875C25.5569 11.8109 25.5127 11.7409 25.4559 11.6818C25.399 11.6227 25.3307 11.5756 25.2551 11.5435C25.1794 11.5114 25.098 11.4949 25.0158 11.495Z" fill="#E6E1E5" fill-opacity="0.38"/>
<path d="M12.1633 11.1925C11.9775 11.1925 11.7958 11.2474 11.6412 11.3501C11.4867 11.4528 11.3662 11.5989 11.2951 11.7697C11.224 11.9406 11.2054 12.1286 11.2416 12.3099C11.2779 12.4913 11.3674 12.6579 11.4988 12.7887C11.6302 12.9194 11.7977 13.0085 11.98 13.0446C12.1623 13.0806 12.3512 13.0621 12.523 12.9913C12.6947 12.9206 12.8414 12.8007 12.9447 12.647C13.048 12.4932 13.1031 12.3124 13.1031 12.1275C13.1031 11.8795 13.0041 11.6417 12.8278 11.4664C12.6516 11.291 12.4126 11.1925 12.1633 11.1925Z" fill="#E6E1E5" fill-opacity="0.38"/>
</svg>
