<svg viewBox="0 0 44 44" fill="none" xmlns="http://www.w3.org/2000/svg">
<path d="M24.0915 9.96149C24.2624 10.0469 24.4332 10.0469 24.5187 10.1323L24.6895 9.87606L27.2524 5.26279C25.0312 4.06676 18.0259 0.991248 10.0808 5.26279L12.9001 10.1323C13.0709 10.0469 13.2418 10.0469 13.4126 9.96149C13.4126 9.87606 18.9656 7.65485 24.0915 9.96149Z" fill="#CCC8CB"/>
<path d="M23.5789 11.7555L20.9306 16.3688C20.0762 16.1125 19.3074 16.0271 18.5385 16.0271C17.6842 16.0271 17.0007 16.1979 16.4882 16.3688L13.8398 11.5847C13.8398 11.5847 18.4531 9.02175 23.5789 11.7555Z" fill="#ACA8AB"/>
<path d="M31.9511 20.6403C31.9511 20.8112 32.0366 20.9821 32.0366 21.1529H32.3783L37.675 21.0675C37.5896 18.5046 36.7353 10.9012 29.1319 5.94624L26.3981 10.9012C26.569 10.9867 26.6544 11.1575 26.8253 11.2429C26.7399 11.2429 31.3531 15.0019 31.9511 20.6403Z" fill="#B0ACAF"/>
<path d="M30.1571 21.1529H24.8604C24.6895 20.2986 24.3478 19.5297 24.0061 18.9317C23.5789 18.1628 23.1518 17.6503 22.7246 17.3085L25.373 12.6098C25.373 12.5244 29.9008 15.3436 30.1571 21.1529Z" fill="#8F8B8E"/>
<path d="M11.2769 11.2429C11.4477 11.1575 11.5332 11.0721 11.704 10.9867L11.5332 10.6449L8.88481 6.03167C6.66361 7.39856 0.512585 11.841 0 20.9821H5.553C5.553 20.8112 5.63844 20.6403 5.63844 20.4695C5.63844 20.4695 6.66361 14.5748 11.2769 11.2429Z" fill="#ACA8AB"/>
<path d="M12.4729 12.6098L15.0358 17.3085C14.3524 17.9066 13.8398 18.59 13.4981 19.188C13.0709 19.8715 12.8146 20.5549 12.7292 21.0675H7.34705C7.34705 21.0675 7.60335 15.6854 12.4729 12.6098Z" fill="#716D70"/>
<path d="M24.0915 33.7113C24.2624 33.6258 24.4332 33.6258 24.5187 33.5404L24.6895 33.7967L27.2524 38.4954C25.0312 39.6914 18.0259 42.7669 10.0808 38.4954L12.9001 33.6258C13.0709 33.7113 13.2418 33.7967 13.4126 33.7967C13.4126 33.7967 18.9656 35.9325 24.0915 33.7113Z" fill="#CCC8CB"/>
<path d="M23.5789 31.9172L20.9306 27.3039C20.0762 27.5602 19.3074 27.7311 18.5385 27.7311C17.6842 27.7311 17.0007 27.5602 16.4882 27.3894L13.8398 32.0881C13.8398 32.0881 18.4531 34.651 23.5789 31.9172Z" fill="#ACA8AB"/>
<path d="M31.9511 23.0324C31.9511 22.8615 32.0366 22.6907 32.0366 22.5198H32.3783L37.675 22.6052C37.5896 25.1682 36.7353 32.7715 29.1319 37.7265L26.3981 32.7715C26.569 32.6861 26.6544 32.5152 26.8253 32.4298C26.7399 32.4298 31.3531 28.6708 31.9511 23.0324Z" fill="#B0ACAF"/>
<path d="M30.1571 22.5198H24.8604C24.6895 23.3741 24.3478 24.143 24.0061 24.741C23.5789 25.5099 23.1518 26.0225 22.7246 26.3642L25.373 31.0629C25.373 31.1483 29.9008 28.3291 30.1571 22.5198Z" fill="#8F8B8E"/>
<path d="M11.2769 32.4298C11.4477 32.5152 11.5332 32.6007 11.704 32.6861L11.4477 32.9424L8.79938 37.5556C6.74904 36.3596 0.512585 31.8318 0 22.6907H5.553C5.553 22.8615 5.63844 23.0324 5.63844 23.2033C5.63844 23.2033 6.66361 29.1834 11.2769 32.4298Z" fill="#ACA8AB"/>
<path d="M12.4729 31.0629L15.0358 26.3642C14.3524 25.7662 13.8398 25.0827 13.4981 24.4847C13.0709 23.8013 12.8146 23.1178 12.7292 22.6052H7.34705C7.34705 22.6052 7.60335 27.9874 12.4729 31.0629Z" fill="#716D70"/>
</svg>
