<svg viewBox="0 0 44 44" fill="none" xmlns="http://www.w3.org/2000/svg">
<path d="M13.757 15.5884V28.5012C13.757 28.7544 13.8028 28.99 13.8942 29.208C13.9927 29.4261 14.1228 29.616 14.2845 29.7777C14.4463 29.9395 14.6362 30.0661 14.8542 30.1575C15.0793 30.2489 15.3149 30.2947 15.561 30.2947C15.9197 30.2947 16.2433 30.1997 16.5316 30.0098L26.5749 23.5639C26.8352 23.4022 27.0356 23.1877 27.1763 22.9204C27.324 22.6461 27.3978 22.3542 27.3978 22.0448C27.3978 21.7353 27.324 21.447 27.1763 21.1797C27.0356 20.9054 26.8352 20.6874 26.5749 20.5256L16.5316 14.0798C16.2222 13.8828 15.8951 13.7844 15.5505 13.7844C15.3043 13.7844 15.0722 13.8336 14.8542 13.9321C14.6362 14.0235 14.4463 14.1536 14.2845 14.3224C14.1228 14.4842 13.9927 14.6741 13.8942 14.8921C13.8028 15.1101 13.757 15.3422 13.757 15.5884Z"  fill="#E6E1E5" fill-opacity="0.38"/>
<path d="M8.37195 37.6628C11.4698 39.7327 15.1118 40.8375 18.8375 40.8375C21.3113 40.8375 23.7608 40.3503 26.0463 39.4036C28.3318 38.4569 30.4084 37.0694 32.1576 35.3201C33.9069 33.5709 35.2944 31.4943 36.2411 29.2088C37.1878 26.9233 37.675 24.4738 37.675 22C37.675 18.2743 36.5702 14.6323 34.5003 11.5344C32.4304 8.43664 29.4884 6.02219 26.0463 4.59642C22.6042 3.17066 18.8166 2.79761 15.1625 3.52446C11.5084 4.25131 8.15186 6.04541 5.51738 8.67988C2.88291 11.3144 1.08881 14.6709 0.361966 18.325C-0.364883 21.9791 0.00816204 25.7667 1.43393 29.2088C2.85969 32.6509 5.27414 35.5929 8.37195 37.6628ZM9.44143 7.93777C12.2227 6.0794 15.4925 5.0875 18.8375 5.0875C23.3207 5.09478 27.6183 6.87896 30.7884 10.0491C33.9586 13.2192 35.7427 17.5168 35.75 22C35.75 25.345 34.7581 28.6148 32.8997 31.3961C31.0414 34.1773 28.4 36.345 25.3096 37.6251C22.2193 38.9052 18.8187 39.2401 15.538 38.5875C12.2573 37.935 9.24382 36.3242 6.87856 33.9589C4.51331 31.5937 2.90255 28.5802 2.24998 25.2995C1.5974 22.0188 1.93233 18.6182 3.2124 15.5279C4.49246 12.4375 6.66018 9.79614 9.44143 7.93777Z"  fill="#E6E1E5" fill-opacity="0.38"/>
</svg>
