<svg viewBox="0 0 44 44" fill="none" xmlns="http://www.w3.org/2000/svg">
<path d="M32.8625 9.13001H24.6125C24.4851 9.1262 24.3582 9.1485 24.2397 9.19552C24.1212 9.24254 24.0136 9.3133 23.9235 9.40345C23.8333 9.49359 23.7625 9.60122 23.7155 9.71972C23.6685 9.83822 23.6462 9.96508 23.65 10.0925C23.6641 10.3381 23.7717 10.569 23.9507 10.7378C24.1297 10.9066 24.3665 11.0004 24.6125 11H32.8625C33.1178 11 33.3626 10.8986 33.5431 10.7181C33.7236 10.5376 33.825 10.2928 33.825 10.0375C33.811 9.79189 33.7034 9.56098 33.5244 9.3922C33.3454 9.22343 33.1085 9.12961 32.8625 9.13001Z" fill="#E6E1E5" fill-opacity="0.38"/>
<path d="M32.8624 21.0375H24.6124C24.3572 21.0375 24.1123 21.1389 23.9318 21.3194C23.7513 21.4999 23.6499 21.7447 23.6499 22C23.6499 22.2552 23.7513 22.5001 23.9318 22.6806C24.1123 22.8611 24.3572 22.9625 24.6124 22.9625H32.8624C33.1177 22.9625 33.3625 22.8611 33.543 22.6806C33.7235 22.5001 33.8249 22.2552 33.8249 22C33.8249 21.7447 33.7235 21.4999 33.543 21.3194C33.3625 21.1389 33.1177 21.0375 32.8624 21.0375Z" fill="#E6E1E5" fill-opacity="0.38"/>
<path d="M32.8625 33H24.6125C24.3817 33.0389 24.1721 33.1583 24.021 33.337C23.8698 33.5157 23.7869 33.7422 23.7869 33.9762C23.7869 34.2103 23.8698 34.4368 24.021 34.6155C24.1721 34.7942 24.3817 34.9136 24.6125 34.9525H32.8625C33.0933 34.9136 33.3028 34.7942 33.454 34.6155C33.6051 34.4368 33.688 34.2103 33.688 33.9762C33.688 33.7422 33.6051 33.5157 33.454 33.337C33.3028 33.1583 33.0933 33.0389 32.8625 33Z" fill="#E6E1E5" fill-opacity="0.38"/>
<path d="M37.675 11.9075V8.24998C37.675 6.90069 37.139 5.60666 36.1849 4.65257C35.2308 3.69848 33.9368 3.16248 32.5875 3.16248H5.0875C3.73821 3.16248 2.44419 3.69848 1.4901 4.65257C0.536004 5.60666 1.08256e-06 6.90069 1.08256e-06 8.24998V11.9075C-0.000529753 12.7169 0.194169 13.5144 0.567581 14.2325C0.940994 14.9506 1.4821 15.5681 2.145 16.0325C1.48488 16.506 0.946341 17.1292 0.573499 17.851C0.200657 18.5727 0.00412424 19.3726 1.08256e-06 20.185V23.8425C0.00624524 24.6506 0.203889 25.4458 0.576734 26.1628C0.94958 26.8798 1.48702 27.4982 2.145 27.9675C1.4821 28.4319 0.940994 29.0493 0.567581 29.7674C0.194169 30.4855 -0.000529753 31.2831 1.08256e-06 32.0925V35.75C1.08256e-06 37.0993 0.536004 38.3933 1.4901 39.3474C2.44419 40.3015 3.73821 40.8375 5.0875 40.8375H32.5875C33.9368 40.8375 35.2308 40.3015 36.1849 39.3474C37.139 38.3933 37.675 37.0993 37.675 35.75V32.0925C37.6755 31.2831 37.4808 30.4855 37.1074 29.7674C36.734 29.0493 36.1929 28.4319 35.53 27.9675C36.188 27.4982 36.7254 26.8798 37.0983 26.1628C37.4711 25.4458 37.6688 24.6506 37.675 23.8425V20.185C37.6709 19.3726 37.4743 18.5727 37.1015 17.851C36.7287 17.1292 36.1901 16.506 35.53 16.0325C36.1929 15.5681 36.734 14.9506 37.1074 14.2325C37.4808 13.5144 37.6755 12.7169 37.675 11.9075ZM35.75 35.75C35.7428 36.5865 35.4073 37.3867 34.8158 37.9783C34.2243 38.5698 33.424 38.9053 32.5875 38.9125H5.0875C4.25098 38.9053 3.45075 38.5698 2.85921 37.9783C2.26768 37.3867 1.93218 36.5865 1.925 35.75V32.0925C1.93218 31.256 2.26768 30.4557 2.85921 29.8642C3.45075 29.2727 4.25098 28.9372 5.0875 28.93H32.5875C33.424 28.9372 34.2243 29.2727 34.8158 29.8642C35.4073 30.4557 35.7428 31.256 35.75 32.0925V35.75ZM35.75 23.8425C35.7428 24.679 35.4073 25.4792 34.8158 26.0708C34.2243 26.6623 33.424 26.9978 32.5875 27.005H5.0875C4.25098 26.9978 3.45075 26.6623 2.85921 26.0708C2.26768 25.4792 1.93218 24.679 1.925 23.8425V20.185C1.925 19.3462 2.25819 18.5418 2.85128 17.9488C3.44436 17.3557 4.24875 17.0225 5.0875 17.0225H32.5875C33.4262 17.0225 34.2306 17.3557 34.8237 17.9488C35.4168 18.5418 35.75 19.3462 35.75 20.185V23.8425ZM35.75 11.9075C35.7428 12.744 35.4073 13.5442 34.8158 14.1358C34.2243 14.7273 33.424 15.0628 32.5875 15.07H5.0875C4.25098 15.0628 3.45075 14.7273 2.85921 14.1358C2.26768 13.5442 1.93218 12.744 1.925 11.9075V8.24998C1.93218 7.41345 2.26768 6.61322 2.85921 6.02169C3.45075 5.43015 4.25098 5.09466 5.0875 5.08748H32.5875C33.424 5.09466 34.2243 5.43015 34.8158 6.02169C35.4073 6.61322 35.7428 7.41345 35.75 8.24998V11.9075Z" fill="#E6E1E5" fill-opacity="0.38"/>
</svg>
