<svg viewBox="0 0 44 44" fill="none" xmlns="http://www.w3.org/2000/svg">
<path d="M9.89998 14.63C10.049 14.6246 10.1963 14.6641 10.3225 14.7436C10.4487 14.823 10.5481 14.9387 10.6077 15.0754C10.6673 15.2122 10.6843 15.3637 10.6565 15.5102C10.6287 15.6568 10.5575 15.7915 10.452 15.897C10.3465 16.0025 10.2118 16.0737 10.0652 16.1015C9.91867 16.1293 9.76715 16.1123 9.63041 16.0527C9.49367 15.9931 9.37805 15.8937 9.2986 15.7675C9.21914 15.6413 9.17955 15.494 9.18498 15.345C9.1918 15.1575 9.26932 14.9796 9.40196 14.847C9.5346 14.7143 9.71252 14.6368 9.89998 14.63Z" fill="#E6E1E5" fill-opacity="0.38"/>
<path d="M11.8525 8.66247H13.035L16.61 14.1625V8.66247H17.7375V15.95H16.5825L13.0075 10.45V15.95H11.8525V8.66247Z" fill="#E6E1E5" fill-opacity="0.38"/>
<path d="M19.2501 8.66247H22.8526V9.70747H20.4051V11.7425H22.5226V12.76H20.4051V14.905H22.9626V15.95H19.2501V8.66247Z" fill="#E6E1E5" fill-opacity="0.38"/>
<path d="M25.52 9.70747H23.6775V8.66247H28.49V9.70747H26.675V15.95H25.52V9.70747Z" fill="#E6E1E5" fill-opacity="0.38"/>
<path d="M23.4025 20.35L22.3575 22.33C21.626 21.8421 20.7615 21.5923 19.8825 21.615C16.94 21.615 16.225 24.365 16.225 26.4C16.6104 25.9335 17.0996 25.5637 17.6536 25.3202C18.2075 25.0767 18.8107 24.9661 19.415 24.9975C20.0843 24.9838 20.7487 25.115 21.3627 25.3819C21.9766 25.6488 22.5257 26.0452 22.9722 26.544C23.4188 27.0428 23.7523 27.6322 23.95 28.2718C24.1476 28.9114 24.1724 29.5947 24.1724 30.25C24.1724 30.9736 24.0978 31.6971 23.8597 32.3805C23.6216 33.0639 23.239 33.6878 22.7378 34.2099C22.2366 34.7319 21.6288 35.1398 20.9557 35.4055C20.2826 35.6713 19.5601 35.7888 18.8375 35.75C14.63 35.75 13.475 32.615 13.475 28.6275C13.5575 23.32 15.0975 19.25 19.745 19.25C21.0479 19.2346 22.3242 19.6184 23.4025 20.35ZM21.5875 30.25C21.6179 29.8708 21.5693 29.4894 21.4448 29.1299C21.3203 28.7705 21.1226 28.4407 20.8641 28.1616C20.6057 27.8825 20.2921 27.66 19.9433 27.5082C19.5944 27.3565 19.2179 27.2788 18.8375 27.28C18.2666 27.2987 17.7109 27.469 17.2276 27.7735C16.7443 28.0779 16.3508 28.5056 16.0875 29.0125C16.0875 31.295 16.39 33.385 18.8375 33.385C20.5975 33.385 21.5875 32.285 21.5875 30.25Z" fill="#E6E1E5" fill-opacity="0.38"/>
<path d="M29.8375 40.8375H7.8375C5.7611 40.8302 3.77181 40.0022 2.30356 38.5339C0.835309 37.0657 0.00724755 35.0764 0 33V11C0.00724755 8.92357 0.835309 6.93428 2.30356 5.46603C3.77181 3.99778 5.7611 3.16972 7.8375 3.16248H29.8375C31.9139 3.16972 33.9032 3.99778 35.3714 5.46603C36.8397 6.93428 37.6678 8.92357 37.675 11V33C37.6678 35.0764 36.8397 37.0657 35.3714 38.5339C33.9032 40.0022 31.9139 40.8302 29.8375 40.8375ZM7.8375 5.08748C6.26941 5.08748 4.76554 5.7104 3.65673 6.81921C2.54792 7.92802 1.925 9.43188 1.925 11V33C1.925 34.5681 2.54792 36.0719 3.65673 37.1807C4.76554 38.2896 6.26941 38.9125 7.8375 38.9125H29.8375C31.4056 38.9125 32.9095 38.2896 34.0183 37.1807C35.1271 36.0719 35.75 34.5681 35.75 33V11C35.75 9.43188 35.1271 7.92802 34.0183 6.81921C32.9095 5.7104 31.4056 5.08748 29.8375 5.08748H7.8375Z" fill="#E6E1E5" fill-opacity="0.38"/>
</svg>
