<svg viewBox="0 0 44 44" fill="none" xmlns="http://www.w3.org/2000/svg">
<path d="M36.7125 3.54761H3.7125C2.72788 3.54761 1.78359 3.93874 1.08737 4.63497C0.391137 5.3312 1.36842e-09 6.27549 1.36842e-09 7.26011V29.2601C-2.66848e-05 30.2473 0.390231 31.1944 1.08568 31.895C1.78113 32.5956 2.72536 32.9928 3.7125 33.0001H13.75V39.3251H7.8375C7.58223 39.3251 7.33741 39.4265 7.15691 39.607C6.97641 39.7875 6.875 40.0323 6.875 40.2876C6.875 40.5429 6.97641 40.7877 7.15691 40.9682C7.33741 41.1487 7.58223 41.2501 7.8375 41.2501H32.5875C32.8428 41.2501 33.0876 41.1487 33.2681 40.9682C33.4486 40.7877 33.55 40.5429 33.55 40.2876C33.55 40.0323 33.4486 39.7875 33.2681 39.607C33.0876 39.4265 32.8428 39.3251 32.5875 39.3251H26.675V33.0001H36.7125C37.6949 32.9929 38.635 32.5995 39.3297 31.9048C40.0244 31.2101 40.4178 30.27 40.425 29.2876V7.28761C40.4286 6.79777 40.3353 6.31205 40.1503 5.85845C39.9654 5.40485 39.6925 4.99233 39.3474 4.64468C39.0023 4.29702 38.5918 4.0211 38.1396 3.83281C37.6874 3.64452 37.2024 3.54759 36.7125 3.54761ZM24.75 39.2976H15.675V33.0001H24.75V39.2976ZM38.5 29.2601C38.4929 29.732 38.3023 30.1825 37.9686 30.5162C37.6349 30.8499 37.1844 31.0405 36.7125 31.0476H3.7125C3.24064 31.0405 2.79009 30.8499 2.4564 30.5162C2.1227 30.1825 1.9321 29.732 1.925 29.2601V7.26011C1.93222 6.79082 2.12373 6.34319 2.45817 6.01389C2.79261 5.6846 3.24315 5.50005 3.7125 5.50011H36.7125C37.1866 5.50011 37.6412 5.68843 37.9765 6.02365C38.3117 6.35888 38.5 6.81353 38.5 7.28761V29.2601Z" fill="#E6E1E5" fill-opacity="0.38"/>
<path d="M5.08743 21.733H6.28847V17.3486L8.02974 21.733H8.87359L10.6149 17.3486V21.733H11.8159V15.2903H10.2711L8.49408 20.0051H8.41372L6.63226 15.2903H5.08743V21.733Z" fill="#E6E1E5" fill-opacity="0.38"/>
<path d="M14.3644 21.8089C14.5787 21.8089 14.7767 21.7807 14.9582 21.7241C15.1428 21.6646 15.3035 21.5812 15.4404 21.4741C15.5803 21.3639 15.692 21.233 15.7753 21.0812H15.8557V21.733H17.1415V18.3755C17.1415 18.0272 17.0612 17.7296 16.9004 17.4825C16.7427 17.2325 16.512 17.042 16.2084 16.911C15.9048 16.7771 15.5357 16.7101 15.1011 16.7101C14.6904 16.7101 14.3287 16.7696 14.0162 16.8887C13.7066 17.0078 13.4596 17.1745 13.275 17.3888C13.0934 17.6031 12.9848 17.8546 12.9491 18.1433L12.9446 18.1835H14.1501L14.159 18.1656C14.2096 18.0198 14.3079 17.9082 14.4537 17.8308C14.6025 17.7504 14.7945 17.7102 15.0297 17.7102C15.2976 17.7102 15.5015 17.7683 15.6414 17.8844C15.7842 17.9975 15.8557 18.1612 15.8557 18.3755V19.9426C15.8557 20.1153 15.8095 20.2715 15.7173 20.4114C15.625 20.5484 15.5 20.657 15.3422 20.7374C15.1845 20.8177 15.0044 20.8579 14.802 20.8579C14.5758 20.8579 14.3912 20.8043 14.2483 20.6972C14.1055 20.59 14.034 20.4427 14.034 20.2552V20.2462C14.034 20.0677 14.1025 19.9263 14.2394 19.8221C14.3763 19.7179 14.5847 19.6584 14.8645 19.6435L15.8557 19.5724V18.7774L14.668 18.8532C14.0578 18.8889 13.5875 19.0333 13.2571 19.2863C12.9267 19.5363 12.7616 19.8831 12.7616 20.3266V20.3355C12.7616 20.6332 12.83 20.8936 12.9669 21.1169C13.1039 21.3371 13.2929 21.5083 13.534 21.6303C13.778 21.7494 14.0549 21.8089 14.3644 21.8089Z" fill="#E6E1E5" fill-opacity="0.38"/>
<path d="M20.3553 21.8357C20.7839 21.8357 21.153 21.7643 21.4626 21.6214C21.7721 21.4756 22.0177 21.2702 22.1993 21.0053C22.3808 20.7404 22.4954 20.4308 22.5431 20.0766V20.0453L21.3376 20.0498L21.3286 20.0632C21.2721 20.3132 21.1634 20.5007 21.0027 20.6258C20.842 20.7508 20.6277 20.8133 20.3598 20.8133C20.1276 20.8133 19.9311 20.7537 19.7704 20.6347C19.6097 20.5156 19.4862 20.3415 19.3998 20.1123C19.3165 19.8801 19.2748 19.5988 19.2748 19.2685V19.2595C19.2748 18.9291 19.3165 18.6508 19.3998 18.4246C19.4832 18.1984 19.6052 18.0272 19.7659 17.9111C19.9297 17.7921 20.1276 17.7326 20.3598 17.7326C20.6396 17.7326 20.8598 17.8055 21.0206 17.9513C21.1843 18.0942 21.2885 18.2847 21.3331 18.5228L21.3376 18.5318H22.5475V18.5184C22.5088 18.1522 22.3987 17.8338 22.2171 17.5629C22.0356 17.292 21.7885 17.0822 21.476 16.9334C21.1634 16.7845 20.7899 16.7101 20.3553 16.7101C19.8433 16.7101 19.4073 16.8113 19.0471 17.0137C18.6899 17.2131 18.4176 17.5019 18.2301 17.8799C18.0425 18.2579 17.9488 18.7178 17.9488 19.2595V19.2685C17.9488 19.8132 18.0425 20.2775 18.2301 20.6615C18.4176 21.0425 18.6899 21.3342 19.0471 21.5366C19.4073 21.736 19.8433 21.8357 20.3553 21.8357Z" fill="#E6E1E5" fill-opacity="0.38"/>
<path d="M26.2837 21.8982C26.9177 21.8982 27.4669 21.7613 27.9312 21.4875C28.3955 21.2106 28.7527 20.8192 29.0028 20.3132C29.2558 19.8072 29.3823 19.2074 29.3823 18.5139V18.505C29.3823 17.8114 29.2558 17.2117 29.0028 16.7056C28.7497 16.1996 28.3911 15.8097 27.9267 15.5359C27.4654 15.262 26.9177 15.1251 26.2837 15.1251C25.6527 15.1251 25.105 15.262 24.6406 15.5359C24.1763 15.8097 23.8161 16.1996 23.5601 16.7056C23.3071 17.2087 23.1806 17.8085 23.1806 18.505V18.5139C23.1806 19.2074 23.3057 19.8072 23.5557 20.3132C23.8087 20.8192 24.1674 21.2106 24.6317 21.4875C25.096 21.7613 25.6467 21.8982 26.2837 21.8982ZM26.2837 20.7552C25.9295 20.7552 25.6229 20.663 25.3639 20.4784C25.1079 20.2939 24.9085 20.0334 24.7656 19.6971C24.6257 19.3607 24.5558 18.9663 24.5558 18.5139V18.505C24.5558 18.0496 24.6272 17.6552 24.7701 17.3218C24.913 16.9854 25.1139 16.7265 25.3729 16.5449C25.6318 16.3604 25.9354 16.2681 26.2837 16.2681C26.6319 16.2681 26.9355 16.3604 27.1945 16.5449C27.4535 16.7265 27.6529 16.9854 27.7928 17.3218C27.9357 17.6552 28.0071 18.0496 28.0071 18.505V18.5139C28.0071 18.9663 27.9357 19.3607 27.7928 19.6971C27.6529 20.0334 27.4535 20.2939 27.1945 20.4784C26.9355 20.663 26.6319 20.7552 26.2837 20.7552Z" fill="#E6E1E5" fill-opacity="0.38"/>
<path d="M32.7389 21.8982C33.2747 21.8982 33.7361 21.8134 34.123 21.6437C34.5129 21.4711 34.8121 21.23 35.0204 20.9204C35.2318 20.6079 35.3374 20.2388 35.3374 19.8132V19.8087C35.3374 19.3057 35.1812 18.9098 34.8686 18.6211C34.5591 18.3323 34.0635 18.118 33.3818 17.9781L32.6987 17.8397C32.3207 17.7623 32.0469 17.6581 31.8772 17.5272C31.7105 17.3932 31.6272 17.2221 31.6272 17.0137V17.0093C31.6272 16.8485 31.6733 16.7101 31.7656 16.594C31.8579 16.475 31.9873 16.3827 32.154 16.3172C32.3207 16.2517 32.5142 16.219 32.7344 16.219C32.9607 16.219 33.1586 16.2532 33.3283 16.3217C33.5009 16.3872 33.6378 16.4779 33.739 16.594C33.8432 16.7101 33.9087 16.8455 33.9355 17.0003L33.9444 17.0539H35.2124L35.2079 16.9959C35.1812 16.6357 35.0666 16.3157 34.8642 16.0359C34.6618 15.7532 34.3805 15.5314 34.0203 15.3707C33.6631 15.207 33.2345 15.1251 32.7344 15.1251C32.2582 15.1251 31.8355 15.2084 31.4664 15.3751C31.0973 15.5388 30.8071 15.7695 30.5958 16.0672C30.3845 16.3648 30.2788 16.7131 30.2788 17.1119V17.1164C30.2788 17.6046 30.4306 18.0049 30.7342 18.3174C31.0378 18.63 31.5245 18.8547 32.1942 18.9916L32.8729 19.13C33.2747 19.2134 33.5604 19.3191 33.7301 19.447C33.9027 19.575 33.9891 19.7447 33.9891 19.956V19.9605C33.9891 20.1242 33.937 20.2701 33.8328 20.398C33.7316 20.5231 33.5902 20.6213 33.4086 20.6927C33.2271 20.7642 33.0157 20.7999 32.7746 20.7999C32.5246 20.7999 32.3028 20.7657 32.1094 20.6972C31.9159 20.6287 31.7611 20.535 31.645 20.4159C31.5319 20.2939 31.4664 20.1525 31.4486 19.9918L31.4441 19.9471H30.1449L30.1493 20.0185C30.1761 20.3995 30.2967 20.7314 30.511 21.0142C30.7283 21.294 31.0259 21.5113 31.4039 21.6661C31.782 21.8208 32.2269 21.8982 32.7389 21.8982Z" fill="#E6E1E5" fill-opacity="0.38"/>
</svg>
