<svg viewBox="0 0 44 44" fill="none" xmlns="http://www.w3.org/2000/svg">
<path d="M36.7125 36.7126H3.7125C2.73011 36.7054 1.79 36.312 1.09532 35.6173C0.400645 34.9226 0.0071973 33.9825 0 33.0001V11.0001C0.0071973 10.0177 0.400645 9.07759 1.09532 8.38292C1.79 7.68824 2.73011 7.29479 3.7125 7.2876H36.7125C37.6949 7.29479 38.635 7.68824 39.3297 8.38292C40.0244 9.07759 40.4178 10.0177 40.425 11.0001V33.0001C40.4178 33.9825 40.0244 34.9226 39.3297 35.6173C38.635 36.312 37.6949 36.7054 36.7125 36.7126ZM3.7125 9.2126C3.23843 9.2126 2.78377 9.40092 2.44855 9.73614C2.11333 10.0714 1.925 10.526 1.925 11.0001V33.0001C1.925 33.4742 2.11333 33.9288 2.44855 34.2641C2.78377 34.5993 3.23843 34.7876 3.7125 34.7876H36.7125C37.1866 34.7876 37.6412 34.5993 37.9765 34.2641C38.3117 33.9288 38.5 33.4742 38.5 33.0001V11.0001C38.5 10.526 38.3117 10.0714 37.9765 9.73614C37.6412 9.40092 37.1866 9.2126 36.7125 9.2126H3.7125Z" fill="#E6E1E5" fill-opacity="0.38"/>
<path d="M35.3375 16.0876H5.0875C4.83223 16.0876 4.58741 15.9862 4.40691 15.8057C4.22641 15.6252 4.125 15.3804 4.125 15.1251C4.125 14.8698 4.22641 14.625 4.40691 14.4445C4.58741 14.264 4.83223 14.1626 5.0875 14.1626H35.3375C35.5928 14.1626 35.8376 14.264 36.0181 14.4445C36.1986 14.625 36.3 14.8698 36.3 15.1251C36.3 15.3804 36.1986 15.6252 36.0181 15.8057C35.8376 15.9862 35.5928 16.0876 35.3375 16.0876Z" fill="#E6E1E5" fill-opacity="0.38"/>
</svg>
