<svg viewBox="0 0 44 44" fill="none" xmlns="http://www.w3.org/2000/svg">
<path d="M26.2899 22.0001C26.2706 21.8745 26.2267 21.7539 26.1606 21.6453C26.0946 21.5368 26.0076 21.4424 25.9049 21.3676C25.8646 21.3115 25.8429 21.2442 25.8429 21.1751C25.8429 21.106 25.8646 21.0387 25.9049 20.9826C25.977 20.398 25.9111 19.8046 25.7124 19.2501C25.4196 18.0713 24.8221 16.9902 23.9799 16.1151C23.2764 15.3741 22.8913 14.3868 22.9074 13.3651C23.025 12.7209 23.0435 12.0624 22.9624 11.4126C22.8929 11.0034 22.7047 10.6236 22.4211 10.3204C22.1375 10.0173 21.7711 9.80417 21.3674 9.7076C20.9882 9.62593 20.5993 9.59816 20.2124 9.6251C19.6719 9.61475 19.147 9.80626 18.7402 10.1622C18.3334 10.5182 18.0739 11.013 18.0124 11.5501C17.93 12.1154 17.93 12.6898 18.0124 13.2551C18.0826 13.7779 18.043 14.3096 17.8962 14.8162C17.7495 15.3228 17.4987 15.7933 17.1599 16.1976C16.734 16.7058 16.3652 17.2591 16.0599 17.8476C15.5833 18.581 15.2996 19.4228 15.2349 20.2951C15.2349 20.4876 15.2349 20.7076 15.2349 20.8176C15.0629 21.2113 14.7486 21.5256 14.3549 21.6976C14.2028 21.725 14.0584 21.7848 13.9316 21.8732C13.8048 21.9615 13.6986 22.0762 13.6203 22.2094C13.5419 22.3426 13.4933 22.4911 13.4777 22.6449C13.4621 22.7986 13.4799 22.9539 13.5299 23.1001C13.6143 23.3686 13.6143 23.6566 13.5299 23.9251V24.4751C13.5912 24.6878 13.722 24.8738 13.9015 25.0034C14.081 25.133 14.2987 25.1988 14.5199 25.1901C15.1747 25.2348 15.8167 25.393 16.4174 25.6576C16.8906 25.8724 17.4151 25.9487 17.9299 25.8776C18.0918 25.8592 18.2483 25.8084 18.3901 25.728C18.5318 25.6477 18.6559 25.5396 18.7549 25.4101C18.7859 25.3559 18.8296 25.31 18.8823 25.2765C18.935 25.2429 18.9951 25.2227 19.0574 25.2176L20.2124 25.0251C20.8198 25.0299 21.4262 25.0758 22.0274 25.1626C22.0811 25.1457 22.1387 25.1457 22.1924 25.1626C22.2426 25.3695 22.3376 25.563 22.4706 25.7293C22.6037 25.8955 22.7715 26.0307 22.9624 26.1251H23.4849C23.9593 26.0152 24.3902 25.7662 24.7224 25.4101C25.1698 24.9342 25.7135 24.5592 26.3174 24.3101C27.0599 23.9526 27.1974 23.4576 26.6749 22.8251C26.4833 22.5843 26.3514 22.3016 26.2899 22.0001ZM20.5149 12.1276C20.6189 12.0403 20.7503 11.9925 20.8861 11.9925C21.0219 11.9925 21.1534 12.0403 21.2574 12.1276C21.4042 12.2219 21.5244 12.3523 21.6062 12.5065C21.6881 12.6606 21.729 12.8331 21.7249 13.0076C21.7255 13.2083 21.6784 13.4062 21.5874 13.5851C21.5874 13.5851 21.4499 13.7501 21.3124 13.7501C21.1749 13.7501 21.3124 13.5851 21.3124 13.5026C21.3532 13.407 21.3743 13.3041 21.3743 13.2001C21.3743 13.0961 21.3532 12.9932 21.3124 12.8976C21.2914 12.8314 21.2517 12.7728 21.1979 12.7289C21.1442 12.6849 21.0789 12.6575 21.0099 12.6501C20.9431 12.6519 20.8785 12.6738 20.8244 12.7131C20.7704 12.7524 20.7296 12.8071 20.7074 12.8701C20.6964 12.9614 20.6964 13.0538 20.7074 13.1451V13.3101C20.7074 13.3101 20.2124 13.2001 20.2124 13.0901C20.1887 12.9173 20.2035 12.7414 20.2558 12.575C20.3081 12.4086 20.3966 12.2558 20.5149 12.1276ZM18.5899 12.2926C18.6259 12.2468 18.6718 12.2098 18.7242 12.1844C18.7766 12.159 18.8341 12.1458 18.8924 12.1458C18.9506 12.1458 19.0081 12.159 19.0605 12.1844C19.1129 12.2098 19.1588 12.2468 19.1949 12.2926C19.2872 12.3866 19.3593 12.4986 19.4066 12.6216C19.4539 12.7446 19.4754 12.8759 19.4699 13.0076C19.4699 13.0076 19.4699 13.2001 19.3324 13.2001C19.1949 13.2001 19.3324 13.2001 19.3324 13.0351C19.3324 12.8701 19.3324 12.6776 19.0024 12.7051C18.6724 12.7326 18.7274 12.9801 18.7824 13.2276V13.5301C18.6535 13.355 18.5859 13.1424 18.5899 12.9251C18.5245 12.7193 18.5245 12.4984 18.5899 12.2926ZM18.5899 14.1076C18.8922 13.8453 19.2139 13.6063 19.5524 13.3926C19.6873 13.3551 19.8299 13.3551 19.9649 13.3926C20.146 13.3523 20.3338 13.3523 20.5149 13.3926L21.5324 13.8601C21.8899 13.8601 21.9724 14.3001 21.6974 14.5476C21.2145 14.9832 20.6271 15.2863 19.9924 15.4276H19.6624C19.1821 15.2441 18.763 14.9298 18.4524 14.5201C18.4231 14.4943 18.3997 14.4626 18.3836 14.427C18.3676 14.3914 18.3593 14.3529 18.3593 14.3139C18.3593 14.2748 18.3676 14.2363 18.3836 14.2007C18.3997 14.1651 18.4231 14.1334 18.4524 14.1076H18.5899ZM17.7924 25.6301H17.4624C17.1404 25.6351 16.8212 25.5694 16.5274 25.4376C15.8565 25.1081 15.128 24.912 14.3824 24.8601C13.6949 24.8601 13.6949 24.4476 13.8049 24.0076C13.9151 23.6118 13.9151 23.1934 13.8049 22.7976C13.7755 22.7165 13.7637 22.6301 13.7704 22.5441C13.7772 22.4581 13.8022 22.3745 13.8439 22.299C13.8855 22.2235 13.9429 22.1577 14.012 22.1062C14.0812 22.0546 14.1606 22.0185 14.2449 22.0001C14.6354 21.8888 14.9755 21.6459 15.2074 21.3126C15.6474 20.7076 16.2249 20.7351 16.5824 21.3126C17.0133 22.1813 17.5489 22.9941 18.1774 23.7326C18.3897 24.0315 18.5136 24.3841 18.5349 24.7501C18.5435 24.963 18.4721 25.1715 18.3346 25.3344C18.1972 25.4973 18.0037 25.6028 17.7924 25.6301ZM21.6699 24.0351C21.2389 24.2346 20.7698 24.338 20.2949 24.338C19.82 24.338 19.3508 24.2346 18.9199 24.0351C18.6809 23.8836 18.4826 23.6759 18.3424 23.4301C18.3424 23.4301 18.3424 23.4301 18.3424 23.2651C18.4191 23.2428 18.4897 23.2032 18.5487 23.1493C18.6077 23.0955 18.6536 23.0288 18.6828 22.9544C18.712 22.8801 18.7238 22.8 18.7172 22.7204C18.7107 22.6407 18.6859 22.5637 18.6449 22.4951C18.5973 22.3846 18.5323 22.2825 18.4524 22.1926C18.1351 21.7835 17.7432 21.4383 17.2974 21.1751C16.9417 21.0133 16.6537 20.7325 16.483 20.3811C16.3123 20.0296 16.2697 19.6296 16.3624 19.2501C16.4771 18.7154 16.6817 18.204 16.9674 17.7376C16.7466 18.1712 16.5892 18.6343 16.4999 19.1126C16.4469 19.3606 16.449 19.6172 16.506 19.8643C16.563 20.1114 16.6736 20.3429 16.8299 20.5426C16.8519 20.3232 16.8519 20.102 16.8299 19.8826C16.9861 19.1354 17.2452 18.4135 17.5999 17.7376C17.994 16.945 18.2807 16.1035 18.4524 15.2351C18.4524 15.0426 18.4524 15.0701 18.6999 15.2351C18.7597 15.3132 18.8345 15.3786 18.9199 15.4276C19.1088 15.6151 19.3555 15.7334 19.62 15.7634C19.8845 15.7933 20.1513 15.7332 20.3774 15.5926C20.7589 15.4087 21.1265 15.1973 21.4774 14.9601C21.6149 14.8226 21.6424 14.9601 21.6699 14.9601C21.9094 15.7879 22.2319 16.5895 22.6324 17.3526C23.0424 18.0661 23.348 18.8348 23.5399 19.6351C23.5399 19.8276 23.7049 19.8551 23.8424 19.8551C23.9799 19.8551 24.0074 19.8551 24.0349 19.6076C24.161 19.1393 24.161 18.6459 24.0349 18.1776C24.2888 18.6484 24.3851 19.1881 24.3099 19.7176C24.2974 19.7573 24.2933 19.7992 24.2978 19.8406C24.3023 19.8819 24.3153 19.9219 24.3359 19.9581C24.3566 19.9942 24.3844 20.0257 24.4178 20.0506C24.4512 20.0754 24.4893 20.0932 24.5299 20.1026C24.7479 20.2144 24.9512 20.3529 25.1349 20.5151C25.1758 20.5912 25.1972 20.6762 25.1972 20.7626C25.1972 20.849 25.1758 20.934 25.1349 21.0101C25.1157 20.8703 25.0598 20.7381 24.9728 20.627C24.8858 20.5159 24.771 20.4298 24.6399 20.3776C24.3931 20.2324 24.1234 20.1301 23.8424 20.0751C23.7668 20.0453 23.6856 20.0327 23.6046 20.038C23.5236 20.0434 23.4447 20.0666 23.3737 20.1061C23.3028 20.1455 23.2414 20.2002 23.194 20.2661C23.1467 20.3321 23.1145 20.4077 23.0999 20.4876C23.0694 20.5614 23.0223 20.6273 22.9624 20.6801C22.8216 20.7725 22.7021 20.8939 22.612 21.0361C22.5219 21.1784 22.4632 21.3383 22.4399 21.5051C22.3024 22.0551 22.4399 22.6326 22.2199 23.1826C22.2057 23.3591 22.148 23.5292 22.0521 23.678C21.9561 23.8267 21.8248 23.9494 21.6699 24.0351ZM26.5924 23.8426C26.5043 23.9183 26.4012 23.9745 26.2899 24.0076C25.6435 24.2878 25.0628 24.7 24.5849 25.2176C24.3236 25.4954 23.9904 25.6953 23.6224 25.7951C23.4609 25.8491 23.2887 25.8628 23.1208 25.8351C22.9528 25.8074 22.7942 25.739 22.6587 25.636C22.5231 25.533 22.4148 25.3985 22.3431 25.2441C22.2715 25.0897 22.2386 24.9201 22.2474 24.7501C22.2206 24.6417 22.2206 24.5285 22.2474 24.4201C22.5111 23.6286 22.6683 22.8056 22.7149 21.9726C22.7134 21.8004 22.7496 21.63 22.8208 21.4733C22.8921 21.3165 22.9967 21.1772 23.1274 21.0651C23.1274 21.2301 23.1274 21.3676 23.2649 21.5051C23.333 21.6792 23.4642 21.8213 23.6325 21.9028C23.8007 21.9844 23.9935 21.9995 24.1724 21.9451C24.4249 21.8923 24.6608 21.7791 24.8599 21.6151C24.9326 21.5499 25.0195 21.5024 25.1137 21.4764C25.2079 21.4504 25.3068 21.4466 25.4027 21.4653C25.4986 21.4839 25.5889 21.5245 25.6665 21.5839C25.7441 21.6433 25.8069 21.7199 25.8499 21.8076C25.9879 22.3722 26.251 22.8985 26.6199 23.3476C26.6802 23.4177 26.711 23.5084 26.7059 23.6006C26.7007 23.6929 26.6601 23.7797 26.5924 23.8426Z" fill="#E6E1E5" fill-opacity="0.38"/>
<path d="M19.4425 15.0151C19.787 15.0345 20.1317 14.9808 20.4539 14.8576C20.7762 14.7343 21.0688 14.5444 21.3125 14.3001C21.3125 14.3001 21.3125 14.3001 21.175 14.3001C20.8842 14.5246 20.5592 14.701 20.2125 14.8226C20.0039 14.9024 19.777 14.9215 19.558 14.8777C19.339 14.8339 19.1368 14.729 18.975 14.5751L18.5625 14.2451C18.5625 14.2451 18.5625 14.4101 18.5625 14.4651C18.799 14.7266 19.1038 14.9171 19.4425 15.0151Z" fill="#E6E1E5" fill-opacity="0.38"/>
<path d="M36.7125 3.54761H3.7125C2.72788 3.54761 1.78359 3.93874 1.08737 4.63497C0.391137 5.3312 1.36873e-09 6.27549 1.36873e-09 7.26011V29.2601C-2.66848e-05 30.2473 0.390231 31.1944 1.08568 31.895C1.78113 32.5956 2.72536 32.9928 3.7125 33.0001H13.75V39.3251H7.8375C7.58223 39.3251 7.33741 39.4265 7.15691 39.607C6.97641 39.7875 6.875 40.0323 6.875 40.2876C6.875 40.5429 6.97641 40.7877 7.15691 40.9682C7.33741 41.1487 7.58223 41.2501 7.8375 41.2501H32.5875C32.8428 41.2501 33.0876 41.1487 33.2681 40.9682C33.4486 40.7877 33.55 40.5429 33.55 40.2876C33.55 40.0323 33.4486 39.7875 33.2681 39.607C33.0876 39.4265 32.8428 39.3251 32.5875 39.3251H26.675V33.0001H36.7125C37.6949 32.9929 38.635 32.5995 39.3297 31.9048C40.0244 31.2101 40.4178 30.27 40.425 29.2876V7.28761C40.4286 6.79777 40.3353 6.31205 40.1503 5.85845C39.9654 5.40485 39.6925 4.99233 39.3474 4.64468C39.0023 4.29702 38.5918 4.0211 38.1396 3.83281C37.6874 3.64452 37.2024 3.54759 36.7125 3.54761ZM24.75 39.2976H15.675V33.0001H24.75V39.2976ZM38.5 29.2601C38.4929 29.732 38.3023 30.1825 37.9686 30.5162C37.6349 30.8499 37.1844 31.0405 36.7125 31.0476H3.7125C3.24064 31.0405 2.79009 30.8499 2.4564 30.5162C2.1227 30.1825 1.9321 29.732 1.925 29.2601V7.26011C1.93222 6.79082 2.12373 6.34319 2.45817 6.01389C2.79261 5.6846 3.24315 5.50005 3.7125 5.50011H36.7125C37.1866 5.50011 37.6412 5.68843 37.9765 6.02365C38.3117 6.35888 38.5 6.81353 38.5 7.28761V29.2601Z" fill="#E6E1E5" fill-opacity="0.38"/>
</svg>
