<svg viewBox="0 0 44 44" fill="none" xmlns="http://www.w3.org/2000/svg">
<path d="M27.8667 16.8666H20.9C18.425 16.8666 16.5 14.8499 16.5 12.4666V6.1416H20.075V12.4666C20.075 12.9249 20.4417 13.2916 20.9 13.2916H27.8667V16.8666V16.8666Z" fill="#8061FE"/>
<path d="M29.6082 33.0915H26.0332V15.7665L17.5082 7.2415H5.3165C4.85817 7.2415 4.4915 7.60817 4.4915 8.0665V15.9498H0.916504V8.0665C0.916504 5.68317 2.93317 3.6665 5.3165 3.6665H18.2415C18.6998 3.6665 19.1582 3.84984 19.5248 4.2165L29.1498 13.7498C29.5165 14.1165 29.6998 14.5748 29.6998 15.0332V33.0915H29.6082Z" fill="#8061FE"/>
<path d="M4.4915 12.6499H0.916504V33.8249H4.4915V12.6499Z" fill="#FF4775"/>
<path d="M19.4332 40.3335H5.3165C2.93317 40.3335 0.916504 38.3168 0.916504 35.9335V33.0918H4.4915V35.9335C4.4915 36.3918 4.85817 36.7585 5.3165 36.7585H19.4332V40.3335Z" fill="#00E9A8"/>
<path d="M25.2081 40.3335H19.4331V36.7585H25.2081C25.6664 36.7585 26.0331 36.3918 26.0331 35.9335V33.0918H29.6081V35.9335C29.6081 38.3168 27.6831 40.3335 25.2081 40.3335Z" fill="#009AFF"/>
</svg>
