<svg viewBox="0 0 44 44" fill="none" xmlns="http://www.w3.org/2000/svg">
<path d="M16.0879 20.24H0.962893C0.834148 20.24 0.706701 20.2143 0.588096 20.1642C0.46949 20.1141 0.362138 20.0407 0.272392 19.9484C0.182647 19.8561 0.112333 19.7467 0.0656125 19.6268C0.018892 19.5068 -0.00328548 19.3787 0.000392964 19.25V4.12498C0.000392964 3.8697 0.101799 3.62489 0.282303 3.44439C0.462806 3.26388 0.707622 3.16248 0.962893 3.16248H16.0879C16.3432 3.16248 16.588 3.26388 16.7685 3.44439C16.949 3.62489 17.0504 3.8697 17.0504 4.12498V19.25C17.0581 19.3797 17.0387 19.5095 16.9934 19.6313C16.9481 19.7531 16.878 19.8641 16.7874 19.9572C16.6969 20.0503 16.5879 20.1236 16.4675 20.1723C16.347 20.221 16.2177 20.244 16.0879 20.24ZM2.00789 18.315H15.0429V5.08748H1.92539L2.00789 18.315Z" fill="#E6E1E5" fill-opacity="0.38"/>
<path d="M36.7129 20.24H21.5879C21.465 20.233 21.3448 20.2018 21.234 20.1482C21.1232 20.0946 21.0241 20.0197 20.9424 19.9277C20.8606 19.8357 20.7978 19.7285 20.7576 19.6122C20.7173 19.4959 20.7005 19.3728 20.7079 19.25V4.12498C20.707 3.88338 20.797 3.65028 20.96 3.47197C21.1231 3.29366 21.3472 3.18318 21.5879 3.16248H36.7129C36.9682 3.16248 37.213 3.26388 37.3935 3.44439C37.574 3.62489 37.6754 3.8697 37.6754 4.12498V19.25C37.6791 19.3787 37.6569 19.5068 37.6102 19.6268C37.5635 19.7467 37.4931 19.8561 37.4034 19.9484C37.3136 20.0407 37.2063 20.1141 37.0877 20.1642C36.9691 20.2143 36.8416 20.24 36.7129 20.24ZM22.6329 18.315H35.7504V5.08748H22.6329V18.315Z" fill="#E6E1E5" fill-opacity="0.38"/>
<path d="M16.0879 40.8375H0.962893C0.707622 40.8375 0.462806 40.7361 0.282303 40.5556C0.101799 40.3751 0.000393063 40.1302 0.000393063 39.875V24.75C0.000393063 24.4947 0.101799 24.2499 0.282303 24.0694C0.462806 23.8889 0.707622 23.7875 0.962893 23.7875H16.0879C16.331 23.8017 16.5591 23.9102 16.7234 24.09C16.8878 24.2697 16.9755 24.5065 16.9679 24.75V39.875C16.9688 40.1166 16.8788 40.3497 16.7158 40.528C16.5527 40.7063 16.3286 40.8168 16.0879 40.8375ZM2.00789 38.9125H15.0429V25.685H1.92539L2.00789 38.9125Z" fill="#E6E1E5" fill-opacity="0.38"/>
<path d="M36.7129 40.8375H21.5879C21.3326 40.8375 21.0878 40.7361 20.9073 40.5556C20.7268 40.3751 20.6254 40.1302 20.6254 39.875V24.75C20.6177 24.6203 20.6371 24.4904 20.6824 24.3687C20.7276 24.2469 20.7978 24.1359 20.8884 24.0428C20.9789 23.9496 21.0879 23.8764 21.2083 23.8277C21.3288 23.779 21.458 23.7559 21.5879 23.76H36.7129C36.9682 23.76 37.213 23.8614 37.3935 24.0419C37.574 24.2224 37.6754 24.4672 37.6754 24.7225V39.875C37.6754 40.1302 37.574 40.3751 37.3935 40.5556C37.213 40.7361 36.9682 40.8375 36.7129 40.8375ZM22.6329 38.9125H35.7504V25.685H22.6329V38.9125Z" fill="#E6E1E5" fill-opacity="0.38"/>
</svg>
