<svg viewBox="0 0 44 44" fill="none" xmlns="http://www.w3.org/2000/svg">
<path d="M18.8375 3.16248C15.1118 3.16248 11.4698 4.26728 8.37195 6.33717C5.27414 8.40706 2.85969 11.3491 1.43393 14.7912C0.00816204 18.2333 -0.364883 22.0209 0.361966 25.675C1.08881 29.3291 2.88291 32.6856 5.51738 35.3201C8.15186 37.9546 11.5084 39.7487 15.1625 40.4755C18.8166 41.2024 22.6042 40.8293 26.0463 39.4036C29.4884 37.9778 32.4304 35.5633 34.5003 32.4655C36.5702 29.3677 37.675 25.7257 37.675 22C37.675 19.5262 37.1878 17.0766 36.2411 14.7912C35.2944 12.5057 33.9069 10.4291 32.1576 8.67985C30.4084 6.93063 28.3318 5.54307 26.0463 4.5964C23.7608 3.64972 21.3113 3.16248 18.8375 3.16248ZM30.14 33.4125H20.7625L30.14 14.1625V33.4125ZM7.53501 13.75L17.6275 33.3575H7.53501V13.75ZM8.14001 10.7525H29.5625L19.195 32.12L8.14001 10.7525ZM29.3425 8.82748H8.33251C11.3132 6.43974 15.0184 5.13867 18.8375 5.13867C22.6566 5.13867 26.3618 6.43974 29.3425 8.82748ZM1.92501 22C1.92173 18.1809 3.22169 14.4751 5.61001 11.495V32.505C3.22169 29.5249 1.92173 25.819 1.92501 22ZM8.33251 35.2275H29.3425C26.3618 37.6152 22.6566 38.9163 18.8375 38.9163C15.0184 38.9163 11.3132 37.6152 8.33251 35.2275ZM32.065 32.4775V11.495C34.4527 14.4757 35.7538 18.1808 35.7538 22C35.7538 25.8191 34.4527 29.5243 32.065 32.505V32.4775Z" fill="#E6E1E5" fill-opacity="0.38"/>
</svg>
