<svg viewBox="0 0 44 44" fill="none" xmlns="http://www.w3.org/2000/svg">
<path d="M25.5471 24.7501C25.6494 24.8225 25.7651 24.8735 25.8875 24.9003C26.0099 24.927 26.1364 24.9289 26.2595 24.9059C26.3826 24.8828 26.4999 24.8352 26.6042 24.7659C26.7086 24.6966 26.798 24.6071 26.8671 24.5026C26.9402 24.3981 26.9917 24.2802 27.0188 24.1557C27.0459 24.0312 27.048 23.9025 27.025 23.7771C27.002 23.6518 26.9543 23.5322 26.8847 23.4254C26.8151 23.3187 26.725 23.2268 26.6196 23.1551C26.0253 22.7884 25.3995 22.4755 24.7496 22.2201C25.646 21.5117 26.2996 20.5418 26.6195 19.445C26.9395 18.3482 26.9099 17.179 26.535 16.0998C26.1601 15.0206 25.4583 14.0849 24.5273 13.4228C23.5963 12.7606 22.4821 12.4048 21.3396 12.4048C20.1971 12.4048 19.083 12.7606 18.1519 13.4228C17.2209 14.0849 16.5192 15.0206 16.1442 16.0998C15.7693 17.179 15.7397 18.3482 16.0597 19.445C16.3796 20.5418 17.0332 21.5117 17.9296 22.2201C16.7999 22.6588 15.7685 23.3173 14.8952 24.1576C14.0219 24.9979 13.324 26.0031 12.8421 27.1151C12.7388 27.3452 12.7298 27.6066 12.8173 27.8432C12.9047 28.0797 13.0815 28.2725 13.3096 28.3801H13.7221C13.9083 28.3763 14.0896 28.3201 14.2452 28.218C14.4009 28.1158 14.5246 27.9719 14.6021 27.8026C15.0472 26.8141 15.7041 25.9356 16.5263 25.2291C17.3485 24.5226 18.3159 24.0055 19.3601 23.7143C20.4042 23.4231 21.4997 23.3649 22.5688 23.5439C23.638 23.7229 24.6547 24.1347 25.5471 24.7501ZM21.3671 14.2176C22.0905 14.2176 22.7976 14.4321 23.3991 14.834C24.0006 15.2359 24.4694 15.8071 24.7462 16.4754C25.023 17.1438 25.0955 17.8792 24.9543 18.5886C24.8132 19.2981 24.4649 19.9498 23.9534 20.4613C23.4418 20.9729 22.7901 21.3212 22.0807 21.4623C21.3712 21.6034 20.6358 21.531 19.9674 21.2542C19.2991 20.9774 18.7279 20.5086 18.326 19.9071C17.9241 19.3056 17.7096 18.5985 17.7096 17.8751C17.7096 16.9051 18.095 15.9748 18.7809 15.2889C19.4668 14.6029 20.3971 14.2176 21.3671 14.2176Z" fill="#0095F2"/>
<path d="M29.6171 23.7051L23.9521 29.3701L21.7796 27.2251C21.6969 27.1148 21.5914 27.0235 21.4703 26.9575C21.3492 26.8915 21.2154 26.8523 21.0778 26.8425C20.9403 26.8327 20.8022 26.8526 20.673 26.9009C20.5439 26.9491 20.4265 27.0245 20.329 27.122C20.2315 27.2195 20.1561 27.3368 20.1079 27.466C20.0597 27.5952 20.0398 27.7333 20.0495 27.8708C20.0593 28.0084 20.0985 28.1422 20.1645 28.2633C20.2305 28.3844 20.3218 28.4899 20.4321 28.5726L23.1821 31.3226C23.2697 31.4176 23.376 31.4934 23.4943 31.5453C23.6126 31.5971 23.7404 31.6239 23.8696 31.6239C23.9988 31.6239 24.1266 31.5971 24.2449 31.5453C24.3633 31.4934 24.4696 31.4176 24.5571 31.3226L30.8821 24.9976C30.9736 24.908 31.0462 24.801 31.0958 24.683C31.1454 24.5649 31.171 24.4381 31.171 24.3101C31.171 24.182 31.1454 24.0553 31.0958 23.9372C31.0462 23.8192 30.9736 23.7122 30.8821 23.6226C30.6949 23.4862 30.4658 23.4197 30.2347 23.4348C30.0035 23.4499 29.785 23.5455 29.6171 23.7051Z" fill="#0095F2"/>
<path d="M38.4996 7.2876H5.49961C4.51722 7.29479 3.5771 7.68824 2.88243 8.38292C2.18775 9.07759 1.79431 10.0177 1.78711 11.0001V33.0001C1.79431 33.9825 2.18775 34.9226 2.88243 35.6173C3.5771 36.312 4.51722 36.7054 5.49961 36.7126H38.4996C39.482 36.7054 40.4221 36.312 41.1168 35.6173C41.8115 34.9226 42.2049 33.9825 42.2121 33.0001V11.0001C42.2049 10.0177 41.8115 9.07759 41.1168 8.38292C40.4221 7.68824 39.482 7.29479 38.4996 7.2876ZM40.2871 33.0001C40.2871 33.4742 40.0988 33.9288 39.7636 34.2641C39.4283 34.5993 38.9737 34.7876 38.4996 34.7876H5.49961C5.02553 34.7876 4.57088 34.5993 4.23566 34.2641C3.90043 33.9288 3.71211 33.4742 3.71211 33.0001V11.0001C3.71211 10.526 3.90043 10.0714 4.23566 9.73614C4.57088 9.40092 5.02553 9.2126 5.49961 9.2126H38.4996C38.9737 9.2126 39.4283 9.40092 39.7636 9.73614C40.0988 10.0714 40.2871 10.526 40.2871 11.0001V33.0001Z" fill="#0095F2"/>
</svg>
