<svg viewBox="0 0 44 44" fill="none" xmlns="http://www.w3.org/2000/svg">
<path d="M22.165 4.94992L16.665 7.39742C16.542 7.45109 16.4374 7.53957 16.3641 7.65197C16.2908 7.76436 16.252 7.89574 16.2525 8.02992V34.1824C10.7525 33.2749 6.8475 30.2774 6.8475 26.8674C6.8475 24.1174 9.5975 21.3674 13.75 20.1299C13.8833 20.085 13.9995 20.0002 14.0831 19.8871C14.1667 19.774 14.2136 19.638 14.2175 19.4974V15.8399C14.2208 15.7355 14.2002 15.6316 14.1573 15.5363C14.1144 15.441 14.0503 15.3568 13.97 15.2899C13.7838 15.2203 13.5787 15.2203 13.3925 15.2899C5.39 16.9674 0 21.6974 0 27.0049C0 33.2474 7.095 38.3899 16.885 39.2424C16.9842 39.268 17.0883 39.268 17.1875 39.2424L22.6875 36.7949C22.8076 36.7401 22.9084 36.6505 22.9771 36.5377C23.0457 36.425 23.0789 36.2943 23.0725 36.1624V5.49992C23.0764 5.38571 23.0506 5.27244 22.9975 5.17121C22.9445 5.06998 22.8661 4.98425 22.77 4.92242C22.6749 4.87603 22.5697 4.85425 22.464 4.85905C22.3583 4.86386 22.2555 4.8951 22.165 4.94992Z" fill="#0095F2"/>
<path d="M36.465 16.8574C36.4532 16.7405 36.4116 16.6285 36.3442 16.5322C36.2768 16.4359 36.1858 16.3585 36.08 16.3074C35.9788 16.2521 35.8653 16.223 35.75 16.223C35.6347 16.223 35.5212 16.2521 35.42 16.3074L32.9725 17.7099C30.7925 16.5182 28.4478 15.6564 26.015 15.1524C25.8293 15.0803 25.6232 15.0803 25.4375 15.1524C25.3536 15.2179 25.2854 15.3012 25.2379 15.3963C25.1903 15.4915 25.1645 15.5961 25.1625 15.7024V19.4699C25.1667 19.6176 25.2166 19.7603 25.3052 19.8785C25.3938 19.9967 25.5169 20.0845 25.6575 20.1299C26.2841 20.3349 26.8991 20.5736 27.5 20.8449L25.795 21.8074C25.6783 21.8767 25.5847 21.9789 25.5259 22.1012C25.4672 22.2236 25.446 22.3605 25.465 22.4949C25.487 22.6314 25.548 22.7586 25.6407 22.861C25.7335 22.9635 25.8539 23.037 25.9875 23.0724L36.3825 25.3549H36.52C36.6901 25.3551 36.8552 25.2969 36.9875 25.1899C37.1148 25.0771 37.1936 24.9195 37.2075 24.7499L36.465 16.8574Z" fill="#0095F2"/>
</svg>
