<svg viewBox="0 0 44 44" fill="none" xmlns="http://www.w3.org/2000/svg">
<path d="M18.3199 29.8649C18.4737 29.9681 18.6577 30.0165 18.8424 30.0024C19.0263 30.009 19.208 29.9611 19.3649 29.8649L32.1799 21.6149C32.2933 21.539 32.3893 21.4399 32.4615 21.3241C32.5337 21.2083 32.5804 21.0785 32.5986 20.9433C32.6168 20.8081 32.6061 20.6705 32.5671 20.5398C32.5281 20.409 32.4617 20.288 32.3724 20.1849L19.6124 5.05988C19.5199 4.94539 19.4024 4.85363 19.2689 4.79165C19.1354 4.72968 18.9895 4.69914 18.8424 4.70238C18.7038 4.70343 18.5673 4.73619 18.4434 4.79816C18.3195 4.86013 18.2114 4.94966 18.1274 5.05988L5.31239 20.1024C5.14491 20.3223 5.06637 20.5972 5.09239 20.8724C5.11286 21.0079 5.16289 21.1373 5.23893 21.2514C5.31497 21.3654 5.41515 21.4614 5.53239 21.5324L18.3199 29.8649ZM19.8049 27.2799V8.24988L30.1999 20.4874L19.8049 27.2799ZM17.8799 8.24988V27.2799L7.48489 20.5149L17.8799 8.24988Z" fill="#0095F2"/>
<path d="M37.4599 26.0699L34.9299 23.0999C34.783 22.913 34.5705 22.7891 34.3355 22.7534C34.1005 22.7176 33.8607 22.7727 33.6649 22.9074L18.8424 32.5599L4.01989 22.9074C3.82208 22.7789 3.58396 22.7275 3.35077 22.763C3.11757 22.7985 2.90552 22.9184 2.75489 23.0999L0.224886 26.0699C0.0574111 26.2898 -0.021132 26.5647 0.00488612 26.8399C0.0287622 26.9743 0.0801753 27.1023 0.155895 27.2159C0.231615 27.3295 0.330006 27.4261 0.444886 27.4999L18.3199 39.1324C18.4728 39.2401 18.6553 39.2979 18.8424 39.2979C19.0294 39.2979 19.2119 39.2401 19.3649 39.1324L37.2399 27.4999C37.3548 27.4261 37.4532 27.3295 37.5289 27.2159C37.6046 27.1023 37.656 26.9743 37.6799 26.8399C37.7059 26.5647 37.6274 26.2898 37.4599 26.0699ZM3.68989 24.9974L17.8799 34.2374V36.5474L2.34239 26.4824L3.68989 24.9974ZM19.8049 36.5474V34.2099L33.9949 24.9699L35.2874 26.4824L19.8049 36.5474Z" fill="#0095F2"/>
</svg>
