<svg viewBox="0 0 44 44" fill="none" xmlns="http://www.w3.org/2000/svg">
<path d="M10.5464 8.2501L18.7964 5.1426L32.1339 10.1476V20.1301C32.1402 22.8621 31.5881 25.5667 30.5114 28.0776C30.4188 28.3152 30.4215 28.5793 30.5188 28.8149C30.6162 29.0506 30.8007 29.2396 31.0339 29.3426C31.1516 29.3687 31.2737 29.3687 31.3914 29.3426C31.5822 29.344 31.7694 29.2903 31.9304 29.1879C32.0914 29.0854 32.2194 28.9386 32.2989 28.7651C33.4641 26.0163 34.0627 23.0607 34.0589 20.0751V9.4876C34.0558 9.29056 33.9939 9.09894 33.8812 8.93727C33.7685 8.7756 33.6102 8.65124 33.4264 8.5801L19.1814 3.2176C18.9596 3.13547 18.7157 3.13547 18.4939 3.2176L9.85889 6.4626C9.64613 6.57024 9.48089 6.75302 9.3952 6.97552C9.3095 7.19803 9.30945 7.44442 9.39504 7.66697C9.48064 7.88951 9.64579 8.07236 9.8585 8.1801C10.0712 8.28783 10.3163 8.31278 10.5464 8.2501Z" fill="#0095F2"/>
<path d="M35.5989 39.1876L1.63639 5.2251C1.45326 5.05501 1.21258 4.96047 0.96264 4.96047C0.712704 4.96047 0.472018 5.05501 0.28889 5.2251C0.197426 5.31472 0.124763 5.42168 0.075157 5.53974C0.0255512 5.65779 0 5.78455 0 5.9126C0 6.04065 0.0255512 6.16741 0.075157 6.28547C0.124763 6.40352 0.197426 6.51048 0.28889 6.6001L3.56139 9.9001V20.1301C3.55815 24.8095 5.03045 29.3707 7.76889 33.1651C10.3161 36.9606 14.1741 39.6827 18.6039 40.8101H19.0714C22.7728 39.8629 26.0824 37.7752 28.5314 34.8426L34.2514 40.5626C34.4263 40.7381 34.6636 40.837 34.9114 40.8376C35.1038 40.8404 35.2926 40.7855 35.4534 40.6799C35.6143 40.5743 35.7398 40.423 35.8138 40.2454C35.8878 40.0678 35.9069 39.8721 35.8686 39.6835C35.8303 39.495 35.7363 39.3222 35.5989 39.1876ZM18.8514 38.8851C14.9647 37.8259 11.588 35.4055 9.33639 32.0651C6.85019 28.582 5.51382 24.4095 5.51389 20.1301V11.8801L27.1839 33.5501C25.0082 36.1283 22.1035 37.9881 18.8514 38.8851Z" fill="#0095F2"/>
</svg>
