<svg viewBox="0 0 44 44" fill="none" xmlns="http://www.w3.org/2000/svg">
<path d="M32.8284 28.7375C32.6281 28.7399 32.4334 28.6718 32.2784 28.545C32.1721 28.4738 32.0815 28.3814 32.0123 28.2737C31.9431 28.1661 31.8968 28.0453 31.8762 27.919C31.8555 27.7927 31.8611 27.6634 31.8924 27.5393C31.9238 27.4152 31.9803 27.2989 32.0584 27.1975L35.5234 22.385L32.0584 17.71C31.95 17.516 31.9101 17.2911 31.945 17.0717C31.9799 16.8522 32.0876 16.6508 32.2509 16.5C32.4551 16.3469 32.7118 16.2811 32.9645 16.3172C33.2172 16.3533 33.4452 16.4883 33.5984 16.6925L37.4759 21.945C37.5968 22.1133 37.6618 22.3153 37.6618 22.5225C37.6618 22.7297 37.5968 22.9317 37.4759 23.1L33.6259 28.6C33.5109 28.6795 33.38 28.7329 33.2423 28.7567C33.1046 28.7804 32.9633 28.7739 32.8284 28.7375ZM4.83339 28.7375C4.67694 28.7388 4.52256 28.7018 4.38359 28.63C4.24463 28.5581 4.12528 28.4534 4.03589 28.325L0.18589 22.825C0.065017 22.6567 0 22.4547 0 22.2475C0 22.0403 0.065017 21.8383 0.18589 21.67L4.06339 16.5C4.24331 16.3237 4.4852 16.2249 4.73714 16.2249C4.98908 16.2249 5.23097 16.3237 5.41089 16.5C5.60919 16.6574 5.73966 16.8848 5.77546 17.1354C5.81126 17.3861 5.74969 17.6409 5.60339 17.8475L2.13839 22.385L5.60339 27.1975C5.6778 27.3003 5.73115 27.4168 5.76038 27.5403C5.7896 27.6638 5.79412 27.7918 5.77368 27.917C5.75323 28.0423 5.70822 28.1622 5.64124 28.27C5.57426 28.3778 5.48663 28.4712 5.38339 28.545C5.22836 28.6718 5.03364 28.7399 4.83339 28.7375Z" fill="#0095F2"/>
<path d="M21.2509 30.7175C21.1425 30.7443 21.0293 30.7443 20.9209 30.7175C20.7992 30.6778 20.6869 30.6135 20.5911 30.5286C20.4952 30.4437 20.4178 30.3401 20.3637 30.2241C20.3096 30.108 20.2798 29.9821 20.2763 29.8541C20.2728 29.7262 20.2957 29.5988 20.3434 29.48L26.0084 13.97C26.0373 13.8351 26.0949 13.708 26.1772 13.5973C26.2595 13.4866 26.3647 13.3949 26.4856 13.3284C26.6064 13.2619 26.7402 13.2221 26.8778 13.2119C27.0153 13.2016 27.1535 13.221 27.2829 13.2688C27.4124 13.3165 27.53 13.3916 27.6279 13.4888C27.7257 13.586 27.8016 13.7032 27.8502 13.8323C27.8989 13.9614 27.9192 14.0994 27.9098 14.237C27.9005 14.3747 27.8616 14.5087 27.7959 14.63L22.2959 30.14C22.2122 30.3399 22.0634 30.5056 21.8738 30.6104C21.6841 30.7152 21.4647 30.7529 21.2509 30.7175ZM14.4859 30.7175C14.3775 30.7443 14.2643 30.7443 14.1559 30.7175C14.0342 30.6778 13.9219 30.6135 13.8261 30.5286C13.7302 30.4437 13.6529 30.3401 13.5987 30.2241C13.5446 30.108 13.5148 29.9821 13.5113 29.8541C13.5078 29.7262 13.5307 29.5988 13.5784 29.48L19.2434 13.915C19.2723 13.7801 19.3299 13.653 19.4122 13.5423C19.4945 13.4316 19.5997 13.3399 19.7206 13.2734C19.8414 13.2069 19.9752 13.1671 20.1128 13.1569C20.2503 13.1466 20.3885 13.166 20.5179 13.2138C20.6474 13.2615 20.765 13.3366 20.8629 13.4338C20.9607 13.531 21.0366 13.6482 21.0852 13.7773C21.1339 13.9064 21.1542 14.0444 21.1448 14.182C21.1355 14.3197 21.0966 14.4537 21.0309 14.575L15.3934 30.085C15.3256 30.271 15.202 30.4315 15.0396 30.5447C14.8772 30.6578 14.6839 30.7182 14.4859 30.7175Z" fill="#0095F2"/>
<path d="M11.5708 20.9825C12.634 20.9825 13.4958 20.1207 13.4958 19.0575C13.4958 17.9944 12.634 17.1325 11.5708 17.1325C10.5077 17.1325 9.64581 17.9944 9.64581 19.0575C9.64581 20.1207 10.5077 20.9825 11.5708 20.9825Z" fill="#0095F2"/>
<path d="M11.5708 27.7475C12.634 27.7475 13.4958 26.8857 13.4958 25.8225C13.4958 24.7594 12.634 23.8975 11.5708 23.8975C10.5077 23.8975 9.64581 24.7594 9.64581 25.8225C9.64581 26.8857 10.5077 27.7475 11.5708 27.7475Z" fill="#0095F2"/>
</svg>
