<svg viewBox="0 0 44 44" fill="none" xmlns="http://www.w3.org/2000/svg">
<path d="M29.8375 3.1626H7.8375C5.7611 3.16985 3.77181 3.99791 2.30356 5.46615C0.835309 6.9344 0.00724755 8.92369 0 11.0001V33.0001C0.00724755 35.0765 0.835309 37.0658 2.30356 38.534C3.77181 40.0023 5.7611 40.8304 7.8375 40.8376H29.8375C31.9139 40.8304 33.9032 40.0023 35.3714 38.534C36.8397 37.0658 37.6678 35.0765 37.675 33.0001V11.0001C37.6678 8.92369 36.8397 6.9344 35.3714 5.46615C33.9032 3.99791 31.9139 3.16985 29.8375 3.1626ZM35.75 33.0001C35.75 34.5682 35.1271 36.0721 34.0183 37.1809C32.9095 38.2897 31.4056 38.9126 29.8375 38.9126H7.8375C6.26941 38.9126 4.76554 38.2897 3.65673 37.1809C2.54792 36.0721 1.925 34.5682 1.925 33.0001V11.0001C1.93223 9.43423 2.55748 7.93456 3.66472 6.82732C4.77197 5.72007 6.27164 5.09483 7.8375 5.0876H14.96L10.9725 8.8826C9.78945 10.0222 9.01604 11.5206 8.7725 13.1451C8.66254 13.8176 8.71228 14.5064 8.9177 15.1561C9.12311 15.8058 9.47845 16.3981 9.955 16.8851C10.5466 17.4946 11.3174 17.8992 12.155 18.0401L12.925 18.1776L10.175 20.9276L9.2125 19.9651C9.12288 19.8736 9.01592 19.801 8.89786 19.7514C8.77981 19.7018 8.65305 19.6762 8.525 19.6762C8.39695 19.6762 8.27019 19.7018 8.15213 19.7514C8.03408 19.801 7.92712 19.8736 7.8375 19.9651L5.0875 22.7151C4.90939 22.8996 4.80985 23.1461 4.80985 23.4026C4.80985 23.6591 4.90939 23.9055 5.0875 24.0901L16.8025 35.7501C16.8921 35.8416 16.9991 35.9142 17.1171 35.9638C17.2352 36.0134 17.3619 36.039 17.49 36.039C17.6181 36.039 17.7448 36.0134 17.8629 35.9638C17.9809 35.9142 18.0879 35.8416 18.1775 35.7501L20.9275 33.0001C21.019 32.9105 21.0916 32.8035 21.1412 32.6855C21.1908 32.5674 21.2164 32.4406 21.2164 32.3126C21.2164 32.1845 21.1908 32.0578 21.1412 31.9397C21.0916 31.8217 21.019 31.7147 20.9275 31.6251L19.965 30.6626L27.885 22.7426L28.8475 23.7326C29.0352 23.9046 29.2805 24 29.535 24C29.7895 24 30.0349 23.9046 30.2225 23.7326L32.9725 20.9826C33.0641 20.8938 33.1359 20.7866 33.1833 20.6682C33.2307 20.5497 33.2526 20.4226 33.2475 20.2951C33.2522 20.1717 33.23 20.0488 33.1825 19.9349C33.1351 19.8209 33.0634 19.7186 32.9725 19.6351L21.395 7.7826C21.3054 7.69113 21.1984 7.61847 21.0804 7.56886C20.9623 7.51926 20.8356 7.49371 20.7075 7.49371C20.5795 7.49371 20.4527 7.51926 20.3346 7.56886C20.2166 7.61847 20.1096 7.69113 20.02 7.7826L17.27 10.5326C17.1785 10.6222 17.1059 10.7292 17.0563 10.8472C17.0067 10.9653 16.9811 11.092 16.9811 11.2201C16.9811 11.3481 17.0067 11.4749 17.0563 11.593C17.1059 11.711 17.1785 11.818 17.27 11.9076L18.2325 12.8701L16.72 14.4101C15.0425 16.0876 12.54 16.5826 11.385 15.4551C11.0927 15.111 10.8896 14.7001 10.7936 14.2589C10.6977 13.8176 10.7119 13.3595 10.835 12.9251C11.087 11.8787 11.6305 10.9251 12.4025 10.1751L17.655 5.1976H29.8375C31.3867 5.19733 32.8742 5.80513 33.9799 6.89026C35.0856 7.97539 35.7212 9.45115 35.75 11.0001V33.0001ZM9.57 22.9076L18.0125 31.3501L18.975 32.3126L17.49 33.7976L7.095 23.4301L8.58 22.0001L9.57 22.9076ZM18.6725 29.3151L11.605 22.2476L19.525 14.3276L26.5925 21.4226L18.6725 29.3151ZM28.6275 20.7351L20.185 12.2926L19.2225 11.3026L20.7075 9.8176L31.1025 20.2126L29.6175 21.6976L28.6275 20.7351Z" fill="#0095F2"/>
</svg>
