<svg viewBox="0 0 44 44" fill="none" xmlns="http://www.w3.org/2000/svg">
<path d="M10.0375 20.8726C9.73847 20.8726 9.45168 20.9914 9.24024 21.2028C9.02879 21.4143 8.91 21.7011 8.91 22.0001C8.91 22.2991 9.02879 22.5859 9.24024 22.7974C9.45168 23.0088 9.73847 23.1276 10.0375 23.1276H26.8125C27.1115 23.1276 27.3983 23.0088 27.6098 22.7974C27.8212 22.5859 27.94 22.2991 27.94 22.0001C27.94 21.7011 27.8212 21.4143 27.6098 21.2028C27.3983 20.9914 27.1115 20.8726 26.8125 20.8726H10.0375Z" fill="#0095F2"/>
<path d="M26.675 15.2901H10.0375C9.8907 15.2901 9.74538 15.3194 9.6101 15.3764C9.47482 15.4334 9.35231 15.5169 9.2498 15.6219C9.14728 15.727 9.06684 15.8515 9.01321 15.9882C8.95957 16.1248 8.93383 16.2708 8.9375 16.4176C8.93741 16.7119 9.05242 16.9946 9.25796 17.2053C9.46349 17.416 9.74326 17.5379 10.0375 17.5451H26.8125C27.1067 17.5379 27.3865 17.416 27.592 17.2053C27.7976 16.9946 27.9126 16.7119 27.9125 16.4176C27.9177 16.2585 27.8884 16.1002 27.8265 15.9536C27.7646 15.8069 27.6716 15.6755 27.5539 15.5683C27.4363 15.4611 27.2968 15.3807 27.145 15.3327C26.9933 15.2846 26.8329 15.2701 26.675 15.2901Z" fill="#0095F2"/>
<path d="M10.0375 9.7076C9.77217 9.74942 9.53049 9.88459 9.35596 10.0888C9.18144 10.293 9.08555 10.5527 9.08555 10.8213C9.08555 11.09 9.18144 11.3497 9.35596 11.5539C9.53049 11.7581 9.77217 11.8933 10.0375 11.9351H26.8125C27.0778 11.8933 27.3195 11.7581 27.494 11.5539C27.6686 11.3497 27.7645 11.09 27.7645 10.8213C27.7645 10.5527 27.6686 10.293 27.494 10.0888C27.3195 9.88459 27.0778 9.74942 26.8125 9.7076H10.0375Z" fill="#0095F2"/>
<path d="M11.0825 32.3676H9.735V38.7476H13.6675V37.6476H11.0825V32.3676Z" fill="#0095F2"/>
<path d="M17.545 32.2851C17.1323 32.2563 16.7181 32.315 16.3295 32.4571C15.941 32.5993 15.5867 32.8218 15.29 33.1101C14.7222 33.7946 14.437 34.67 14.4925 35.5576C14.4425 36.4445 14.7271 37.3179 15.29 38.0051C15.5854 38.2969 15.9387 38.5236 16.3271 38.6704C16.7155 38.8173 17.1304 38.881 17.545 38.8576C17.9552 38.8789 18.3654 38.814 18.749 38.6672C19.1326 38.5203 19.4813 38.2948 19.7725 38.0051C20.3403 37.3206 20.6255 36.4452 20.57 35.5576C20.6593 34.637 20.3827 33.7183 19.8 33.0001C19.4941 32.7314 19.1357 32.5291 18.7475 32.406C18.3594 32.2829 17.9499 32.2418 17.545 32.2851ZM17.545 37.7851C17.3119 37.8036 17.0778 37.7659 16.8625 37.6749C16.6471 37.584 16.4567 37.4426 16.3075 37.2626C16.0143 36.7746 15.8798 36.2077 15.9225 35.6401C15.888 35.0695 16.0322 34.5024 16.335 34.0176C16.4784 33.838 16.6638 33.6965 16.8748 33.6054C17.0858 33.5142 17.3159 33.4764 17.545 33.4951C18.6175 33.4951 19.14 34.2101 19.14 35.6401C19.14 37.0701 18.6175 37.7026 17.545 37.7026V37.7851Z" fill="#0095F2"/>
<path d="M24.31 36.3001H25.52V37.6201C25.2373 37.6603 24.9502 37.6603 24.6675 37.6201C24.4324 37.6331 24.1976 37.59 23.9824 37.4944C23.7672 37.3987 23.5779 37.2533 23.43 37.0701C23.1231 36.5962 22.9695 36.0393 22.99 35.4751C22.9684 34.8935 23.1645 34.3248 23.54 33.8801C23.7159 33.6854 23.9332 33.5324 24.1758 33.4325C24.4185 33.3326 24.6805 33.2882 24.9425 33.3026C25.4504 33.2998 25.9511 33.4226 26.4 33.6601L26.84 32.5601C26.2388 32.3088 25.5941 32.178 24.9425 32.1751C24.0467 32.129 23.1684 32.435 22.495 33.0276C22.1882 33.3477 21.9515 33.7282 21.8 34.1449C21.6485 34.5615 21.5855 35.0052 21.615 35.4476C21.5574 36.3265 21.8213 37.1964 22.3575 37.8951C22.6487 38.1848 22.9974 38.4103 23.381 38.5572C23.7646 38.704 24.1748 38.7689 24.585 38.7476C24.9512 38.7749 25.3188 38.7749 25.685 38.7476C26.0777 38.6789 26.464 38.5777 26.84 38.4451V35.1451H24.31V36.3001Z" fill="#0095F2"/>
<path d="M35.6125 27.7476H32.0375V9.7076C32.0303 7.97399 31.3384 6.31344 30.1125 5.08758C28.8867 3.86172 27.2261 3.16984 25.4925 3.1626H5.445C5.19938 3.17666 4.96847 3.28423 4.79969 3.46324C4.63092 3.64224 4.5371 3.87908 4.5375 4.1251V27.7476H0.9625C0.707229 27.7476 0.462413 27.849 0.28191 28.0295C0.101406 28.21 0 28.4548 0 28.7101V39.8751C0 40.1304 0.101406 40.3752 0.28191 40.5557C0.462413 40.7362 0.707229 40.8376 0.9625 40.8376H35.6125C35.8678 40.8376 36.1126 40.7362 36.2931 40.5557C36.4736 40.3752 36.575 40.1304 36.575 39.8751V28.7101C36.575 28.4548 36.4736 28.21 36.2931 28.0295C36.1126 27.849 35.8678 27.7476 35.6125 27.7476ZM6.4075 5.0876H25.6575C26.8828 5.0876 28.0579 5.57435 28.9243 6.44076C29.7907 7.30718 30.2775 8.4823 30.2775 9.7076V27.7476H6.4075V5.0876ZM34.7875 38.9126H1.925V29.6726H34.7875V38.9126Z" fill="#0095F2"/>
</svg>
