<svg width="38" height="38" viewBox="0 0 38 38" fill="none" xmlns="http://www.w3.org/2000/svg">
<path d="M13.7871 12.0166H18.6579V14.0652C18.6579 14.0652 19.9435 11.5044 22.8284 11.5044C24.992 11.5044 25.5565 12.2047 25.5565 12.2047V16.5006L22.8807 16.6365V15.1732C22.8807 15.1732 22.912 14.3893 21.7727 14.3893C20.6334 14.3893 19.1492 15.8526 19.1492 16.6261V24.0786L21.6577 24.2668V26.4827H13.9334V24.319C13.9334 24.319 15.7208 24.4235 15.7208 23.7755V15.1314C15.7208 15.1314 16.0448 14.2638 13.7766 14.2638V11.9957L13.7871 12.0166Z" fill="white"/>
<g style="mix-blend-mode:color">
<path d="M18.6574 0.268066C28.9739 0.362138 37.3156 8.74495 37.3156 19.0824C37.3156 29.4198 28.9739 37.8026 18.6574 37.8966V30.5902C24.9184 30.5379 29.9774 25.4479 29.9775 19.1661C29.9775 12.8842 24.9184 7.79419 18.6574 7.74193V0.268066Z" fill="#59BFF2"/>
<path d="M18.6574 30.5902C12.3967 30.5377 7.33748 25.4478 7.33743 19.1661C7.33743 12.8843 12.3967 7.79442 18.6574 7.74193V30.5902Z" fill="#59BFF2"/>
</g>
<g style="mix-blend-mode:color">
<path d="M18.6574 7.74193C12.3966 7.79441 7.33739 12.8843 7.33739 19.1661C7.33743 25.4478 12.3966 30.5377 18.6574 30.5902V37.8966C8.34109 37.8024 0.000305176 29.4196 0.000305176 19.0824C0.000305176 8.74508 8.34109 0.362356 18.6574 0.268066V7.74193Z" fill="#0095F2"/>
<path d="M18.6574 7.74193C24.9184 7.79419 29.9774 12.8842 29.9774 19.1661C29.9774 25.4479 24.9184 30.5379 18.6574 30.5902V7.74193Z" fill="#0095F2"/>
</g>
</svg>
