<svg viewBox="0 0 44 44" fill="none" xmlns="http://www.w3.org/2000/svg">
<path d="M18.8375 40.8376C15.1118 40.8376 11.4698 39.7328 8.37195 37.6629C5.27414 35.593 2.85969 32.651 1.43393 29.2089C0.00816204 25.7668 -0.364883 21.9792 0.361966 18.3251C1.08881 14.671 2.88291 11.3145 5.51738 8.67998C8.15186 6.04551 11.5084 4.25141 15.1625 3.52456C18.8166 2.79771 22.6042 3.17076 26.0463 4.59653C29.4884 6.02229 32.4304 8.43674 34.5003 11.5346C36.5702 14.6324 37.675 18.2744 37.675 22.0001C37.675 24.4739 37.1878 26.9234 36.2411 29.2089C35.2944 31.4944 33.9069 33.571 32.1576 35.3202C30.4084 37.0695 28.3318 38.457 26.0463 39.4037C23.7608 40.3504 21.3113 40.8376 18.8375 40.8376ZM18.8375 5.08761C15.4925 5.08761 12.2227 6.07951 9.44143 7.93788C6.66018 9.79625 4.49246 12.4376 3.2124 15.528C1.93233 18.6183 1.5974 22.0189 2.24998 25.2996C2.90255 28.5803 4.51331 31.5938 6.87856 33.959C9.24382 36.3243 12.2573 37.9351 15.538 38.5876C18.8187 39.2402 22.2193 38.9053 25.3096 37.6252C28.4 36.3452 31.0414 34.1774 32.8997 31.3962C34.7581 28.6149 35.75 25.3451 35.75 22.0001C35.7427 17.5169 33.9586 13.2193 30.7884 10.0492C27.6183 6.87906 23.3207 5.09488 18.8375 5.08761Z" fill="#0095F2"/>
<path d="M27.885 31.6251C27.7407 31.6624 27.5893 31.6624 27.445 31.6251L18.8375 27.0051L10.23 31.5151C10.049 31.6112 9.84201 31.6471 9.63922 31.6174C9.43642 31.5877 9.24839 31.4941 9.10251 31.3501C8.95686 31.211 8.8616 31.0275 8.83173 30.8283C8.80186 30.6292 8.83907 30.4258 8.93751 30.2501L17.985 12.9251C18.0725 12.7769 18.1972 12.654 18.3467 12.5687C18.4962 12.4833 18.6654 12.4384 18.8375 12.4384C19.0097 12.4384 19.1788 12.4833 19.3283 12.5687C19.4778 12.654 19.6025 12.7769 19.69 12.9251L28.765 30.2501C28.8577 30.4339 28.8891 30.6426 28.8544 30.8456C28.8198 31.0485 28.721 31.235 28.5725 31.3776C28.4823 31.4657 28.3743 31.5334 28.2557 31.5761C28.137 31.6188 28.0106 31.6355 27.885 31.6251ZM18.8375 24.9426C18.9828 24.9144 19.1322 24.9144 19.2775 24.9426L25.63 28.2701L18.8375 15.4001L12.045 28.3801L18.3975 25.0526C18.5355 24.9872 18.685 24.9498 18.8375 24.9426Z" fill="#0095F2"/>
</svg>
