<svg viewBox="0 0 52 53" fill="none" xmlns="http://www.w3.org/2000/svg">
<path fill-rule="evenodd" clip-rule="evenodd" d="M32.8899 12.795L46.1499 30.8C46.3449 31.06 46.6374 31.2225 46.9624 31.2225C47.1899 31.2225 47.3849 31.1575 47.5799 31.0275C48.0349 30.7025 48.1324 30.0525 47.8074 29.565L33.7024 10.4225C33.7024 10.4225 33.5724 10.26 33.4749 10.195C33.0199 9.87 32.3699 9.9675 32.0449 10.4225L25.9349 18.71L19.8574 10.4225C19.6624 10.1625 19.3699 10 19.0449 10C18.7199 10 18.3949 10.1625 18.1999 10.4225L4.09494 29.565C3.86744 29.89 3.83494 30.28 3.99744 30.6375C4.15994 30.995 4.51744 31.2225 4.90744 31.2225H18.8174C19.1424 31.2225 19.4349 31.06 19.6299 30.8L32.8899 12.795ZM24.6674 20.465L18.2649 29.1425H6.95494L19.0124 12.795L24.6674 20.465Z" fill="#0095F2"/>
<path fill-rule="evenodd" clip-rule="evenodd" d="M30.4851 35.285C31.3951 35.285 32.2401 35.675 32.8251 36.3575H32.8576V32.425H33.6701V41.46H32.8576V40.485C32.2401 41.1675 31.3626 41.5575 30.4526 41.5575C28.6976 41.5575 27.3326 40.1275 27.3326 38.405C27.3326 36.65 28.7626 35.285 30.4851 35.285ZM30.4526 40.7775C31.7201 40.81 32.7926 39.77 32.7926 38.47V38.405C32.7926 37.105 31.7201 36.065 30.4201 36.065C29.1201 36.065 28.0801 37.1375 28.0801 38.4375C28.0801 39.7375 29.1526 40.7775 30.4526 40.7775Z" fill="#0095F2"/>
<path fill-rule="evenodd" clip-rule="evenodd" d="M14.6251 35.22C16.2176 35.22 17.5501 36.39 17.7451 37.9825L17.8426 38.015V38.1775L12.4801 39.12C12.7726 40.095 13.6826 40.7775 14.6901 40.7775C15.8276 40.745 16.7376 39.965 17.0301 39.2175L17.7126 39.445C17.1926 40.68 15.9901 41.4925 14.6576 41.4925C13.2601 41.4925 12.0251 40.5825 11.6026 39.25C11.5051 38.9575 11.4726 38.665 11.4726 38.3725C11.4726 36.6175 12.8701 35.22 14.6251 35.22ZM12.2526 38.145V38.4375L12.2851 38.405L16.8351 37.5925C16.5101 36.6175 15.5676 35.935 14.5276 35.935C13.3251 35.9675 12.3176 36.9425 12.2526 38.145Z" fill="#0095F2"/>
<path d="M4.9725 36.585C5.4275 35.74 6.305 35.285 7.2475 35.285V35.3825C8.6775 35.3825 9.75 36.52 9.75 37.95V41.525H8.905V37.95C8.905 36.9425 8.0925 36.13 7.085 36.13C6.0775 36.13 5.265 36.9425 5.265 37.95V41.4925H4.4525V37.95C4.485 36.9425 3.705 36.065 2.6975 36.065C1.69 36.0325 0.8125 36.8125 0.8125 37.82V41.46H0V35.3825H0.8125V36.2925C1.625 35.1875 3.1525 34.96 4.2575 35.7725C4.55 36 4.81 36.26 4.9725 36.585Z" fill="#0095F2"/>
<path fill-rule="evenodd" clip-rule="evenodd" d="M24.7001 36.3575C24.1151 35.675 23.2701 35.285 22.3601 35.285C20.6376 35.285 19.2076 36.65 19.2076 38.405C19.2076 40.1275 20.5726 41.5575 22.3276 41.5575C23.2376 41.5575 24.1151 41.1675 24.7326 40.485V41.46H25.5451V35.3825H24.7326V36.3575H24.7001ZM24.6676 38.47C24.6676 39.77 23.5951 40.81 22.3276 40.7775C21.0276 40.7775 19.9551 39.7375 19.9551 38.4375C19.9551 37.1375 20.9951 36.065 22.2951 36.065C23.5951 36.065 24.6676 37.105 24.6676 38.405V38.47Z" fill="#0095F2"/>
<path fill-rule="evenodd" clip-rule="evenodd" d="M38.5123 35.22C36.7573 35.22 35.3598 36.6825 35.3923 38.405C35.3923 40.16 36.8223 41.5575 38.5448 41.525C40.2998 41.525 41.6973 40.0625 41.6648 38.34C41.6648 36.585 40.2023 35.1875 38.4798 35.22H38.5123ZM40.9173 38.4375C40.9173 39.7375 39.8448 40.7775 38.5773 40.7775C37.2773 40.7775 36.2373 39.7375 36.2373 38.4375C36.2373 37.1375 37.2773 36.065 38.5773 36.065C39.8773 36.065 40.9498 37.105 40.9498 38.405L40.9173 38.4375Z" fill="#0095F2"/>
<path d="M49.4324 40.3225L51.1874 35.3825H51.9999L49.8224 41.46H49.0099L47.2874 36.455L45.5649 41.46H44.7524L42.5749 35.3825H43.3874L45.1749 40.3225L46.9299 35.3825H47.6774L49.4324 40.3225Z" fill="#0095F2"/>
<path d="M29.3801 30.995C29.2826 30.995 29.0876 30.865 29.0876 30.865V30.93L27.4301 29.2725L25.7726 30.93C25.6101 31.06 25.3501 31.06 25.2201 30.865C25.0576 30.7025 25.0576 30.475 25.2201 30.3125L27.1701 28.3625C27.3326 28.2 27.5601 28.2 27.7226 28.3625L29.6726 30.3125C29.8351 30.475 29.8351 30.735 29.6726 30.865C29.5751 30.9625 29.4776 30.995 29.3801 30.995Z" fill="#0095F2"/>
<path d="M25.1876 28.6875C25.3176 28.8825 25.5776 28.8825 25.7401 28.7525L27.3976 27.095L29.0551 28.7525C29.0551 28.7525 29.2501 28.8825 29.3476 28.8825C29.4451 28.8825 29.5426 28.85 29.6401 28.7525C29.8026 28.59 29.8026 28.3625 29.6401 28.2L27.6901 26.25C27.5276 26.0875 27.3001 26.0875 27.1376 26.25L25.1876 28.2C25.0251 28.3625 25.0251 28.59 25.1876 28.7525V28.6875Z" fill="#0095F2"/>
<path d="M27.4301 25.1125L25.7726 26.77V26.8025C25.6426 26.965 25.3826 26.965 25.2201 26.8025C25.0576 26.64 25.0576 26.38 25.2201 26.2175L27.1701 24.2675C27.3326 24.105 27.5601 24.105 27.7226 24.2675L29.6726 26.2175C29.8351 26.38 29.8351 26.64 29.6726 26.77C29.5751 26.8675 29.4776 26.9 29.3801 26.9C29.2826 26.9 29.0876 26.77 29.0876 26.77L27.4301 25.1125Z" fill="#0095F2"/>
<path d="M33.1824 28.3625C33.1824 28.3625 32.7924 28.2 32.6299 28.3625L30.7124 30.3125C30.5499 30.4425 30.5499 30.7025 30.7124 30.865C30.7124 30.865 30.9074 30.995 31.0049 30.995C31.1024 30.995 31.1999 30.9625 31.2974 30.865L32.9549 29.2075L34.6124 30.865C34.6124 30.865 35.0349 31.0275 35.1974 30.865C35.3599 30.7025 35.3599 30.4425 35.1974 30.28L33.2474 28.3625H33.1824Z" fill="#0095F2"/>
<path d="M33.1824 26.2175L35.1324 28.135L35.1649 28.1025C35.3274 28.265 35.3274 28.525 35.1649 28.72C35.0024 28.8825 34.6124 28.72 34.6124 28.72L32.9549 27.0625L31.2974 28.72C31.1999 28.8175 31.1024 28.85 31.0049 28.85C30.9074 28.85 30.7774 28.785 30.7124 28.72C30.5499 28.59 30.5499 28.33 30.7124 28.1675L32.6299 26.2175C32.7924 26.055 33.1824 26.2175 33.1824 26.2175Z" fill="#0095F2"/>
<path d="M32.6299 24.2025L30.7124 26.1525C30.5499 26.2825 30.5499 26.5425 30.7124 26.705C30.7774 26.77 30.9074 26.835 31.0049 26.835C31.1024 26.835 31.1999 26.8025 31.2974 26.705L32.9224 25.0475L34.5799 26.705C34.5799 26.705 35.0024 26.8675 35.1324 26.705C35.2949 26.5425 35.2949 26.2825 35.1324 26.12L33.2149 24.17C33.2149 24.17 32.8249 24.0075 32.6624 24.17L32.6299 24.2025Z" fill="#0095F2"/>
<path d="M38.6101 28.3625L40.5601 30.28V30.3775C40.7226 30.54 40.7226 30.7675 40.5601 30.93C40.4626 30.995 40.3651 31.0275 40.2676 31.0275C40.1701 31.06 39.9751 30.93 39.9751 30.93L38.3501 29.2725L36.6926 30.93C36.5301 31.06 36.2701 31.06 36.1401 30.865C35.9776 30.7025 35.9776 30.4425 36.1401 30.3125L38.0576 28.3625C38.2201 28.2 38.6101 28.3625 38.6101 28.3625Z" fill="#0095F2"/>
<path d="M40.5926 28.1675L38.6426 26.2175C38.6426 26.2175 38.2526 26.055 38.0901 26.2175L36.1726 28.1675C36.0101 28.2975 36.0101 28.5575 36.1726 28.72C36.3351 28.8825 36.5626 28.8825 36.7251 28.72L38.3826 27.0625L40.0076 28.72C40.0076 28.72 40.2026 28.85 40.3001 28.85C40.3976 28.85 40.4951 28.8175 40.5926 28.72C40.7551 28.59 40.7551 28.33 40.5926 28.1675Z" fill="#0095F2"/>
<path d="M38.35 25.1125L36.6925 26.77L36.725 26.8025C36.5625 26.965 36.3025 26.965 36.14 26.8025C35.9775 26.64 36.14 26.2175 36.14 26.2175L38.0575 24.2675C38.22 24.105 38.61 24.2675 38.61 24.2675L40.56 26.2175C40.7225 26.38 40.7225 26.64 40.56 26.77C40.4625 26.8675 40.365 26.9 40.2675 26.9C40.17 26.9 39.975 26.77 39.975 26.77L38.35 25.1125Z" fill="#0095F2"/>
</svg>
