<svg viewBox="0 0 44 44" fill="none" xmlns="http://www.w3.org/2000/svg">
<path d="M37.4585 2.75H29.0566C28.479 2.75 28.0064 3.2225 28.0064 3.8V12.2C28.0064 12.7775 28.479 13.25 29.0566 13.25H32.3824V22.4725H28.7765C28.3652 18.4125 25.1445 15.1925 21.0835 14.7812V8C21.0835 7.51875 20.6897 7.125 20.2083 7.125H10.5024V3.8C10.5024 3.2225 10.0298 2.75 9.45215 2.75H1.05024C0.472607 2.75 0 3.2225 0 3.8V12.2C0 12.7775 0.472607 13.25 1.05024 13.25H9.45215C10.0298 13.25 10.5024 12.7775 10.5024 12.2V8.875H19.3331V14.7812C15.281 15.1925 12.0515 18.4125 11.6401 22.4637H5.25119C4.76983 22.4637 4.37599 22.8575 4.37599 23.3388V30.75H1.05024C0.472607 30.75 0 31.2225 0 31.8V40.2C0 40.7775 0.472607 41.25 1.05024 41.25H9.45215C10.0298 41.25 10.5024 40.7775 10.5024 40.2V31.8C10.5024 31.2225 10.0298 30.75 9.45215 30.75H6.12639V24.2138H11.6314C12.069 28.5625 15.7361 31.9575 20.1996 31.9575C24.6631 31.9575 28.3302 28.5625 28.7678 24.2225H33.2488C33.7302 24.2225 34.124 23.8288 34.124 23.3475V13.25H37.4498C38.0274 13.25 38.5 12.7775 38.5 12.2V3.8C38.5 3.2225 38.0274 2.75 37.4498 2.75H37.4585ZM8.75199 11.5H1.7504V4.5H8.75199V11.5ZM8.75199 32.5V39.5H1.7504V32.5H8.75199ZM26.361 22.945L24.7244 23.3825C24.7244 23.8025 24.6631 24.2225 24.5493 24.6162L25.9934 25.4475C26.536 25.7625 26.7286 26.4537 26.4135 26.9962C26.0984 27.5387 25.407 27.7225 24.8644 27.4075L23.3941 26.5587C23.0965 26.8475 22.7727 27.1012 22.3963 27.3112L22.8339 28.9125C23.0002 29.5162 22.6414 30.1375 22.0375 30.295C21.4336 30.4525 20.8122 30.0937 20.6459 29.49L20.1996 27.8537C19.7707 27.8537 19.3594 27.7925 18.9568 27.67L18.1254 29.105C17.8103 29.6475 17.1189 29.8313 16.5763 29.5163C16.0336 29.2013 15.8499 28.51 16.1562 27.9675L17.0051 26.5062C16.7075 26.2087 16.4537 25.885 16.2437 25.5088L14.6421 25.9288C14.0382 26.0863 13.4168 25.7275 13.2505 25.1237C13.0842 24.52 13.4431 23.8987 14.0469 23.7412L15.6836 23.3037C15.6836 22.8837 15.7448 22.4637 15.8586 22.07L14.4145 21.2387C13.8719 20.9237 13.6881 20.2325 13.9944 19.69C14.3095 19.1475 15.0009 18.9637 15.5435 19.2787L17.0139 20.1275C17.3114 19.8387 17.6353 19.585 18.0116 19.375L17.574 17.7738C17.4077 17.17 17.7665 16.5487 18.3704 16.3912C18.9743 16.2337 19.5957 16.5925 19.762 17.1963L20.2083 18.8325C20.6372 18.8325 21.0485 18.8937 21.4511 19.0162L22.2826 17.5812C22.5976 17.0387 23.289 16.855 23.8317 17.17C24.3743 17.485 24.5581 18.1762 24.2518 18.7187L23.4028 20.18C23.7004 20.4775 23.9542 20.8012 24.1642 21.1775L25.7659 20.7575C26.3697 20.6 26.9911 20.9587 27.1574 21.5625C27.3237 22.1662 26.9649 22.7875 26.361 22.945ZM36.7584 11.5H29.7568V4.5H36.7584V11.5Z" fill="#0095F2"/>
<path d="M19.5344 20.7312C18.0904 21.0987 17.2239 22.56 17.5915 24.0038C17.9591 25.4475 19.4294 26.3225 20.8647 25.955C22.3088 25.5875 23.1753 24.1262 22.8077 22.6825C22.4401 21.2387 20.9698 20.3637 19.5344 20.7312Z" fill="#0095F2"/>
</svg>
