<svg viewBox="0 0 44 44" fill="none" xmlns="http://www.w3.org/2000/svg">
<path d="M8.37195 37.6628C11.4698 39.7327 15.1118 40.8375 18.8375 40.8375C21.3113 40.8375 23.7608 40.3503 26.0463 39.4036C28.3318 38.4569 30.4084 37.0694 32.1576 35.3201C33.9069 33.5709 35.2944 31.4943 36.2411 29.2088C37.1878 26.9233 37.675 24.4738 37.675 22C37.675 18.2743 36.5702 14.6323 34.5003 11.5344C32.4304 8.43664 29.4884 6.02219 26.0463 4.59642C22.6042 3.17066 18.8166 2.79761 15.1625 3.52446C11.5084 4.25131 8.15186 6.04541 5.51738 8.67988C2.88291 11.3144 1.08881 14.6709 0.361966 18.325C-0.364883 21.9791 0.00816204 25.7667 1.43393 29.2088C2.85969 32.6509 5.27414 35.5929 8.37195 37.6628ZM9.44143 7.93777C12.2227 6.0794 15.4925 5.0875 18.8375 5.0875C23.3207 5.09478 27.6183 6.87896 30.7884 10.0491C33.9586 13.2192 35.7427 17.5168 35.75 22C35.75 25.345 34.7581 28.6148 32.8997 31.3961C31.0414 34.1773 28.4 36.345 25.3096 37.6251C22.2193 38.9052 18.8187 39.2401 15.538 38.5875C12.2573 37.935 9.24382 36.3242 6.87856 33.9589C4.51331 31.5937 2.90255 28.5802 2.24998 25.2995C1.5974 22.0188 1.93233 18.6182 3.2124 15.5279C4.49246 12.4375 6.66018 9.79614 9.44143 7.93777Z" fill="#0095F2"/>
<path d="M22 11C15.925 11 11 15.925 11 22C11 28.075 15.925 33 22 33C28.075 33 33 28.075 33 22C33 15.925 28.075 11 22 11ZM21.175 30.9125C16.8875 30.525 13.475 27.0575 13.475 22.825H16.775C16.775 25.3875 18.6125 27.5 21.175 27.8875V30.9125ZM21.175 25.7375C19.6625 25.4 18.4625 24.2 18.125 22.6875H15.1C15.4375 25.25 17.55 27.3625 20.1125 27.7V25.7375H21.175ZM21.175 20.5375H19.0125C19.3375 19.3 20.1625 18.475 21.175 18.15V20.5375ZM22.825 30.9125V27.8875C25.3875 27.5 27.225 25.3875 27.225 22.825H30.525C30.525 27.0575 27.1125 30.525 22.825 30.9125ZM22.825 25.7375V22.6875H25.875C25.5375 24.2 24.3375 25.4 22.825 25.7375ZM22.825 20.5375V18.15C23.8375 18.475 24.6625 19.3 24.9875 20.5375H22.825ZM22.825 16V13.0875C26.5625 13.4125 29.6375 16.1625 30.3625 19.65H26.975C26.425 17.5375 24.8625 16.3625 22.825 16ZM21.175 13.0875V16C19.1375 16.3625 17.575 17.5375 17.025 19.65H13.6375C14.3625 16.1625 17.4375 13.4125 21.175 13.0875Z" fill="#0095F2"/>
</svg>
