<svg viewBox="0 0 44 44" fill="none" xmlns="http://www.w3.org/2000/svg">
<path d="M25.7389 12.0644C25.7389 12.0644 25.0765 10.9271 24.4141 12.0644C24.1303 12.5383 22.5216 15.2867 20.8183 18.3194C19.0203 15.2867 17.5063 12.5383 17.2224 12.0644C16.56 10.8323 15.8976 12.0644 15.8976 12.0644L6.71862 28.5548C6.24548 29.5973 7.38102 29.5973 7.38102 29.5973C7.38102 29.5973 9.84136 29.5973 10.3145 29.5973C10.7876 29.5973 10.8823 29.313 10.8823 29.313L16.6546 18.9828L18.5472 22.2998C16.7492 25.3326 15.2352 27.8914 15.2352 27.8914C15.2352 27.8914 14.6674 28.6496 15.5191 28.6496C16.2761 28.6496 19.3042 28.6496 19.3042 28.6496L20.7236 26.1855L22.1431 28.6496C22.1431 28.6496 25.1712 28.6496 25.9282 28.6496C26.6852 28.6496 26.2121 27.8914 26.2121 27.8914C26.2121 27.8914 24.698 25.3326 22.9001 22.2998L24.7927 18.9828L30.565 29.313C30.565 29.313 30.6596 29.5973 31.1328 29.5973C31.6059 29.5973 34.0662 29.5973 34.0662 29.5973C34.0662 29.5973 35.2018 29.6921 34.634 28.5548L25.7389 12.0644Z" fill="#0095F2"/>
<path d="M39.0815 3.72439C37.4729 2.11325 35.2964 1.16553 32.9307 1.16553H8.70582C6.34011 1.16553 4.16365 2.11325 2.55497 3.72439C0.946284 5.33553 0 7.5153 0 9.88462V34.2412C0 36.5158 0.946284 38.6955 2.55497 40.4014C4.16365 41.9178 6.34011 42.8655 8.70582 42.8655H33.0253C35.2964 42.8655 37.4729 41.9178 39.1762 40.3067C40.7849 38.6955 41.7311 36.5158 41.7311 34.1464V9.88462C41.6365 7.5153 40.6902 5.33553 39.0815 3.72439ZM39.5547 34.1464C39.5547 35.8523 38.8923 37.5583 37.6621 38.7903C36.4319 40.0223 34.7286 40.6858 33.0253 40.6858H8.70582C7.0025 40.6858 5.29919 40.0223 4.06902 38.7903C2.83885 37.5583 2.17645 35.8523 2.17645 34.1464V9.88462C2.17645 8.17871 2.83885 6.4728 4.06902 5.24075C5.29919 4.00871 7.0025 3.3453 8.70582 3.3453H33.0253C34.7286 3.3453 36.4319 4.00871 37.6621 5.24075C38.8923 6.4728 39.5547 8.17871 39.5547 9.88462V34.1464Z" fill="#0095F2"/>
</svg>
