<svg viewBox="0 0 44 44" fill="none" xmlns="http://www.w3.org/2000/svg">
<path d="M23.3942 3.29455L20.9619 5.68403L20.9019 5.74398L20.9019 8.37327L21.2702 8.01356L22.6148 6.68607L22.6148 16.3982L17.6903 18.9589C17.3819 19.1216 17.1935 19.43 17.1935 19.7725L17.1935 28.6282C15.9602 28.808 14.7612 29.1934 13.6307 29.7673L13.6307 14.0686L14.9753 15.3961L15.3436 15.7558L15.3436 13.1265L15.2836 13.0666L12.8513 10.6771L12.6972 10.5315L12.543 10.6771L10.1107 13.0666L10.0508 13.1265L10.0508 15.7558L10.419 15.3961L11.7637 14.0686L11.7637 30.932C9.20289 32.9018 7.60133 35.8309 7.3444 38.9997L4.20981 38.9997L4.20981 32.7477L7.20737 28.5168C7.31871 28.3627 7.37866 28.1828 7.37866 27.9944L7.37866 25.1596L8.72328 26.4871L9.09155 26.8468L9.09155 24.2175L9.0316 24.1575L6.59929 21.7681L6.44513 21.6225L6.29098 21.7681L3.85867 24.1575L3.79872 24.2175L3.79872 26.8468L4.16699 26.4871L5.51161 25.1596L5.51161 27.7032L2.51405 31.9341C2.40271 32.0882 2.34277 32.2681 2.34277 32.4565L2.34276 39.9161C2.34276 40.4214 2.76242 40.8325 3.27629 40.8325L8.22654 40.8325C8.7404 40.8325 9.16006 40.4214 9.16006 39.9161C9.16006 34.6233 13.5365 30.3239 18.9064 30.3239C24.2763 30.3239 28.6527 34.6233 28.6527 39.9161C28.6527 40.4214 29.0724 40.8325 29.5863 40.8325L34.3995 40.8325C34.9134 40.8325 35.333 40.4214 35.333 39.9161L35.333 33.9981C35.333 33.784 35.2559 33.5699 35.1103 33.4071L29.7404 27.1979L29.7404 20.569L31.085 21.8965L31.4533 22.2562L31.4533 19.627L31.3934 19.567L28.9611 17.1775L28.8069 17.0319L28.6527 17.1775L26.2204 19.567L26.1605 19.627L26.1605 22.2562L26.5288 21.8965L27.8734 20.569L27.8734 27.5319C27.8734 27.746 27.9505 27.9602 28.0961 28.1229L33.466 34.3321L33.466 38.9997L30.4684 38.9997C30.1601 35.2057 27.8819 31.7456 24.4819 29.9043L24.4819 17.5115L29.2351 15.045C29.5434 14.8822 29.7319 14.5739 29.7319 14.2314L29.7319 10.4287L31.0765 11.7562L31.4448 12.1159L31.4448 9.48665L31.3848 9.4267L28.9525 7.03722L28.7983 6.89162L28.6442 7.03722L26.2119 9.4267L26.1519 9.48665L26.1519 12.1159L26.5202 11.7562L27.8648 10.4287L27.8648 13.6832L24.4733 15.4475L24.4733 6.69464L25.8179 8.02212L26.1862 8.38184L26.1862 5.75255L26.1262 5.6926L23.6939 3.30312L23.5398 3.15752L23.3856 3.30312L23.3942 3.29455ZM22.6148 18.4707L22.6148 29.0992C21.45 28.7138 20.2596 28.5083 19.052 28.4912L19.052 20.3207L22.6148 18.4707Z" fill="#0095F2"/>
<path d="M25.988 40.7589C25.988 39.2401 24.7568 38.0089 23.238 38.0089C21.7192 38.0089 20.488 39.2401 20.488 40.7589L25.988 40.7589Z" fill="#0095F2"/>
<path d="M18.4255 40.7589C18.4255 39.2401 17.1943 38.0089 15.6755 38.0089C14.1567 38.0089 12.9255 39.2401 12.9255 40.7589L18.4255 40.7589Z" fill="#0095F2"/>
</svg>
