<svg viewBox="0 0 44 44" fill="none" xmlns="http://www.w3.org/2000/svg">
<path fill-rule="evenodd" clip-rule="evenodd" d="M32.7231 22.9781L32.0799 20.7551H28.5147L27.8646 22.9781H25.2501L28.7454 12.7159H31.8143L35.3376 22.9781H32.7231ZM31.5417 18.7558L30.9195 16.6586C30.8729 16.4908 30.8076 16.2648 30.7238 15.9805C30.6445 15.6962 30.563 15.405 30.4791 15.1067C30.3999 14.8038 30.3369 14.5498 30.2903 14.3447C30.2484 14.5498 30.1878 14.8061 30.1086 15.1137C30.0294 15.4213 29.9501 15.7172 29.8709 16.0015C29.7917 16.2858 29.7311 16.5048 29.6891 16.6586L29.074 18.7558H31.5417Z" fill="#0095F2"/>
<path d="M22.2017 12.7579V22.9781H24.6065V12.7579H22.2017Z" fill="#0095F2"/>
<path d="M21.551 22.9781H18.8247L16.413 18.8327L15.5321 19.4199V22.9781H13.1274V12.7579H15.5321V17.3367C15.6673 17.127 15.8071 16.9173 15.9516 16.7076C16.096 16.4978 16.2405 16.2928 16.385 16.0924L18.9016 12.7579H21.558L18.1257 17.3018L21.551 22.9781Z" fill="#0095F2"/>
<path d="M11.519 21.615C11.8079 21.1443 11.9524 20.6176 11.9524 20.0351C11.9524 19.4991 11.8545 19.0517 11.6588 18.6929C11.4677 18.3294 11.1904 18.0171 10.8269 17.7561C10.4634 17.4905 10.0253 17.2388 9.51265 17.0012C9.05593 16.7821 8.6831 16.598 8.39416 16.4489C8.10521 16.2998 7.89316 16.1506 7.75801 16.0015C7.62286 15.8477 7.55528 15.6683 7.55528 15.4632C7.55528 15.2861 7.59956 15.1323 7.6881 15.0019C7.77665 14.8667 7.90714 14.7618 8.07958 14.6873C8.25667 14.6127 8.47338 14.5754 8.7297 14.5754C9.1072 14.5754 9.49168 14.6313 9.88315 14.7432C10.2793 14.855 10.7057 15.0065 11.1624 15.1976L11.9244 13.3381C11.4351 13.119 10.9387 12.9443 10.4354 12.8138C9.93675 12.6786 9.39381 12.6111 8.8066 12.6111C8.07958 12.6111 7.44343 12.7252 6.89817 12.9536C6.3529 13.182 5.93113 13.5152 5.63287 13.9533C5.33926 14.3913 5.19246 14.925 5.19246 15.5541C5.19246 16.0062 5.26237 16.3976 5.40218 16.7285C5.54665 17.0548 5.73773 17.3367 5.97541 17.5744C6.21309 17.8121 6.4764 18.0171 6.76534 18.1896C7.05429 18.3573 7.34556 18.5111 7.63917 18.6509C8.04463 18.8374 8.39183 19.0051 8.68077 19.1543C8.96971 19.3034 9.18875 19.4572 9.33789 19.6156C9.49168 19.7741 9.56858 19.9652 9.56858 20.1889C9.56858 20.3753 9.52197 20.5407 9.42876 20.6852C9.34022 20.8297 9.19574 20.9439 8.99535 21.0277C8.79495 21.107 8.53397 21.1466 8.2124 21.1466C7.72306 21.1466 7.20808 21.065 6.66748 20.9019C6.12687 20.7388 5.60025 20.5384 5.0876 20.3007V22.4888C5.38587 22.6333 5.68879 22.7521 5.99638 22.8453C6.30397 22.9385 6.63019 23.0061 6.97506 23.048C7.31993 23.0946 7.69043 23.1179 8.08657 23.1179C8.93942 23.1179 9.65246 22.9851 10.2257 22.7195C10.7989 22.4492 11.23 22.081 11.519 21.615Z" fill="#0095F2"/>
<path fill-rule="evenodd" clip-rule="evenodd" d="M36.7125 3.5475H3.7125C2.72788 3.5475 1.7836 3.93864 1.08737 4.63487C0.391137 5.3311 1.36811e-09 6.27539 1.36811e-09 7.26V29.26C-2.66821e-05 30.2472 0.390231 31.1943 1.08568 31.8949C1.78113 32.5955 2.72536 32.9927 3.7125 33H13.75V39.325H7.8375C7.58223 39.325 7.33741 39.4264 7.15691 39.6069C6.97641 39.7874 6.875 40.0322 6.875 40.2875C6.875 40.5428 6.97641 40.7876 7.15691 40.9681C7.33741 41.1486 7.58223 41.25 7.8375 41.25H32.5875C32.8428 41.25 33.0876 41.1486 33.2681 40.9681C33.4486 40.7876 33.55 40.5428 33.55 40.2875C33.55 40.0322 33.4486 39.7874 33.2681 39.6069C33.0876 39.4264 32.8428 39.325 32.5875 39.325H26.675V33H36.7125C37.6949 32.9928 38.635 32.5994 39.3297 31.9047C40.0244 31.21 40.4178 30.2699 40.425 29.2875V7.2875C40.4286 6.79766 40.3353 6.31194 40.1503 5.85834C39.9654 5.40474 39.6925 4.99223 39.3474 4.64457C39.0023 4.29692 38.5918 4.021 38.1396 3.83271C37.6874 3.64442 37.2024 3.54749 36.7125 3.5475ZM24.75 39.2975H15.675V33H24.75V39.2975ZM38.5 29.26C38.4929 29.7319 38.3023 30.1824 37.9686 30.5161C37.6349 30.8498 37.1844 31.0404 36.7125 31.0475H3.7125C3.24064 31.0404 2.79009 30.8498 2.4564 30.5161C2.1227 30.1824 1.9321 29.7319 1.925 29.26V7.26C1.93222 6.79071 2.12373 6.34309 2.45817 6.01379C2.79261 5.68449 3.24315 5.49995 3.7125 5.5H36.7125C37.1866 5.5 37.6412 5.68833 37.9765 6.02355C38.3117 6.35877 38.5 6.81343 38.5 7.2875V29.26Z" fill="#0095F2"/>
</svg>
