<svg  viewBox="0 0 49 48" fill="none" xmlns="http://www.w3.org/2000/svg">
<path d="M3.1665 31.6C2.1665 29.2 1.6665 26.6 1.6665 24H5.5665C5.5665 26.1 5.9665 28.2 6.7665 30.1L3.1665 31.6Z" fill="#009AFF"/>
<path d="M13.9664 42.5C11.5664 41.5 9.36641 40 7.46641 38.2C5.56641 36.3 4.16641 34.1 3.06641 31.7L6.66641 30.2C7.46641 32.2 8.66641 33.9 10.1664 35.4C11.6664 36.9 13.4664 38.1 15.3664 38.9L13.9664 42.5Z" fill="#00E9A8"/>
<path d="M21.6663 44C19.0663 44 16.4663 43.5 13.9663 42.5L15.4663 38.9C21.4663 41.4 28.3663 40 32.9663 35.4L35.7663 38.2C31.9663 42 26.8663 44 21.6663 44Z" fill="#FF4775"/>
<path d="M35.7664 38.1L32.9664 35.3C39.2664 29 39.2664 18.8 32.9664 12.6C26.6664 6.30001 16.4664 6.30001 10.2664 12.6L7.56641 9.80001C15.3664 2.00001 28.0664 2.00001 35.8664 9.80001C43.6664 17.6 43.5664 30.3 35.7664 38.1Z" fill="#8061FE"/>
<path d="M14.9665 15.4H7.1665C6.0665 15.4 5.1665 14.5 5.1665 13.4V5.60004H9.0665V11.4H14.8665V15.4H14.9665Z" fill="#8061FE"/>
<path d="M29.2664 26.3L21.4664 26.2C20.3664 26.2 19.5664 25.3 19.5664 24.2V12.7H23.4664V22.3H29.2664V26.3Z" fill="#8061FE"/>
</svg>
