<svg viewBox="0 0 60 60" fill="none" xmlns="http://www.w3.org/2000/svg">
<path d="M54.1999 9.5005L43.4999 4.3005C42.2999 3.7005 40.7999 4.0005 39.7999 4.9005L4.6999 36.9005C3.7999 37.8005 3.7999 39.2005 4.6999 40.1005L7.5999 42.7005C8.3999 43.4005 9.4999 43.5005 10.3999 42.8005L52.5999 10.8005C53.9999 9.7005 55.9999 10.7005 55.9999 12.5005V12.4005C55.9999 11.2005 55.2999 10.0005 54.1999 9.5005Z" fill="#0065A9"/>
<path d="M54.1999 50.2L43.4999 55.4C42.2999 56 40.7999 55.7 39.7999 54.8L4.6999 22.8C3.7999 21.9 3.7999 20.5 4.6999 19.6L7.5999 17C8.3999 16.3 9.4999 16.2 10.3999 16.9L52.5999 48.9C53.9999 50 55.9999 49 55.9999 47.2V47.3C55.9999 48.5 55.2999 49.7 54.1999 50.2Z" fill="#007ACC"/>
<path d="M43.4998 55.4C42.2998 56 40.7998 55.7 39.7998 54.8C40.9998 56 42.9998 55.1 42.9998 53.4V6.3C42.9998 4.6 40.9998 3.8 39.7998 5C40.7998 4 42.2998 3.8 43.4998 4.4L54.1998 9.5C55.2998 10 55.9998 11.1 55.9998 12.4V47.3C55.9998 48.5 55.2998 49.7 54.1998 50.2L43.4998 55.4Z" fill="#1F9CF0"/>
<g opacity="0.25">
<path fill-rule="evenodd" clip-rule="evenodd" d="M40.8999 55.5C41.6999 55.8 42.6999 55.8 43.4999 55.4L54.1999 50.3C55.2999 49.8 55.9999 48.6 55.9999 47.4V12.4C55.9999 11.2 55.2999 9.99999 54.1999 9.49999L43.3999 4.29999C42.2999 3.79999 40.9999 3.89999 40.0999 4.59999C39.9999 4.69999 39.7999 4.79999 39.6999 4.89999L19.2999 23.6L10.3999 16.8C9.5999 16.2 8.3999 16.2 7.5999 16.9L4.6999 19.5C3.7999 20.4 3.7999 21.8 4.6999 22.7L12.3999 29.8L4.6999 36.9C3.7999 37.8 3.7999 39.2 4.6999 40.1L7.5999 42.7C8.3999 43.4 9.4999 43.5 10.3999 42.8L19.2999 36L39.7999 54.7C40.0999 55.1 40.3999 55.3 40.8999 55.5ZM42.9999 18.1L27.3999 29.9L42.9999 41.6V18.1Z" fill="url(#paint0_linear_4990_43947)"/>
</g>
<defs>
<linearGradient id="paint0_linear_4990_43947" x1="29.9841" y1="3.99999" x2="29.9841" y2="55.7002" gradientUnits="userSpaceOnUse">
<stop stop-color="white"/>
<stop offset="1" stop-color="white" stop-opacity="0"/>
</linearGradient>
</defs>
</svg>
