<svg viewBox="0 0 60 60" fill="none" xmlns="http://www.w3.org/2000/svg">
<path d="M11.5001 44.7C10.9001 45.2 10.0001 45.4 9.3001 45.1L5.4001 43.4C4.6001 43.1 4.1001 42.3 4.1001 41.4V18.3C4.1001 17.4 4.6001 16.6 5.4001 16.3L9.3001 14.7C10.1001 14.4 10.9001 14.5 11.5001 15.1L12.4001 15.8C11.9001 15.4 11.1001 15.5 10.7001 16.1C10.6001 16.3 10.5001 16.5 10.5001 16.8V43C10.5001 43.7 11.0001 44.2 11.7001 44.2C12.0001 44.2 12.2001 44.1 12.4001 44L11.5001 44.7Z" fill="#52218A"/>
<path d="M5.3 43.4C4.5 43.1 4 42.3 4 41.4V41.2C4 41.9 4.6 42.4 5.3 42.4C5.6 42.4 6 42.3 6.2 42L39.8 4.90002C40.8 3.90002 42.3 3.70002 43.5 4.30002L54.2 9.50002C55.3 10 56 11.2 56 12.4V12.5C56 11.4 55.1 10.4 53.9 10.4C53.4 10.4 53 10.6 52.6 10.9L12.3 43.9L11.4 44.7C10.8 45.2 9.9 45.4 9.2 45.1L5.3 43.4Z" fill="#6C33AF"/>
<path d="M5.3 16.3C4.5 16.6 4 17.4 4 18.3V18.5C4 17.8 4.6 17.3 5.3 17.3C5.6 17.3 6 17.4 6.2 17.7L39.8 54.8C40.8 55.8 42.3 56 43.5 55.4L54.2 50.2C55.3 49.7 56 48.5 56 47.3V47.2C56 48.3 55.1 49.3 53.9 49.3C53.4 49.3 53 49.1 52.6 48.8L12.3 15.8L11.5 15C10.9 14.5 10 14.4 9.3 14.7L5.3 16.3Z" fill="#854CC7"/>
<path d="M43.4002 55.4C42.2002 56 40.7002 55.7 39.7002 54.8C40.4002 55.5 41.7002 55.5 42.4002 54.8C42.8002 54.4 43.0002 54 43.0002 53.5V6.3C43.0002 5.2 42.2002 4.4 41.1002 4.4C40.6002 4.4 40.1002 4.6 39.8002 5C40.8002 4 42.3002 3.8 43.5002 4.4L54.2002 9.6C55.3002 10 56.0002 11.2 56.0002 12.4V47.3C56.0002 48.5 55.3002 49.7 54.2002 50.2L43.4002 55.4Z" fill="#B179F1"/>
<g opacity="0.25">
<path fill-rule="evenodd" clip-rule="evenodd" d="M41.3 55.6C42 55.8 42.8 55.7 43.4 55.4L54.1 50.2C55.2 49.7 55.9 48.5 55.9 47.3V12.4C55.9 11.2 55.2 10 54.1 9.5L43.4 4.3C42.7 4 41.8 3.9 41 4.2C40.5 4.4 40.1 4.6 39.7 5L22.5 24L12.4 15.8L11.5 15C11 14.5 10.2 14.4 9.5 14.6C9.4 14.6 9.3 14.7 9.2 14.7L5.3 16.4C4.5 16.7 4 17.4 4 18.2C4 18.3 4 18.3 4 18.4V41.5C4 41.6 4 41.6 4 41.7C4.1 42.5 4.6 43.2 5.3 43.5L9.3 45C9.4 45 9.5 45.1 9.6 45.1C10.3 45.3 11 45.1 11.6 44.7L12.5 44L22.6 35.7L39.9 54.8C40.2 55.2 40.7 55.5 41.3 55.6ZM43 18.9L29.6 29.9L43 40.9V18.9ZM10.5 22.4L17.2 29.8L10.5 37.2V22.4V22.4Z" fill="url(#paint0_linear_4990_38175)"/>
</g>
<defs>
<linearGradient id="paint0_linear_4990_38175" x1="30" y1="4" x2="30" y2="55.7306" gradientUnits="userSpaceOnUse">
<stop stop-color="white"/>
<stop offset="1" stop-color="white" stop-opacity="0"/>
</linearGradient>
</defs>
</svg>
