<svg viewBox="0 0 60 60" fill="none" xmlns="http://www.w3.org/2000/svg">
<path d="M44.6 56H15.4C9.1 56 4 50.9 4 44.6V15.4C4 9.1 9.1 4 15.4 4H44.6C50.9 4 56 9.1 56 15.4V44.6C56 50.9 50.9 56 44.6 56Z" fill="url(#paint0_linear_4990_38205)"/>
<path d="M55.9999 44.6V15.4C55.9999 9.1 50.8999 4 44.5999 4H30.4999C26.4999 14.2 23.9999 23.1 23.8999 32.7C23.8999 33.7 24.6999 34.6 25.6999 34.6H30.7999C31.2999 34.6 31.7999 35 31.7999 35.6C31.5999 42.7 32.4999 49.5 34.6999 56H44.5999C50.8999 56 55.9999 50.9 55.9999 44.6Z" fill="url(#paint1_linear_4990_38205)"/>
<path d="M40.6 24.5C40 24.5 39.5 24 39.5 23.4V20C39.5 19.4 40 18.9 40.6 18.9C41.2 18.9 41.7 19.4 41.7 20V23.4C41.8 24 41.3 24.5 40.6 24.5Z" fill="#474747"/>
<path d="M17.3998 24.5C16.7998 24.5 16.2998 24 16.2998 23.4V20C16.2998 19.4 16.7998 18.9 17.3998 18.9C17.9998 18.9 18.4998 19.4 18.4998 20V23.4C18.5998 24 18.0998 24.5 17.3998 24.5Z" fill="#474747"/>
<path d="M29.0998 46.1C25.9998 46.1 22.8998 45.6 20.2998 44.6C17.2998 43.5 14.8998 41.8 13.2998 39.7C12.9998 39.3 12.9998 38.8 13.3998 38.5C13.7998 38.2 14.2998 38.3 14.5998 38.7C15.9998 40.5 18.0998 42.1 20.7998 43.1C23.3998 44.1 26.2998 44.5 29.3998 44.5C35.6998 44.4 41.0998 42.2 43.5998 38.8C43.8998 38.4 44.3998 38.3 44.7998 38.6C45.1998 38.9 45.2998 39.4 44.9998 39.8C43.5998 41.8 41.2998 43.5 38.3998 44.6C35.7998 45.6 32.6998 46.2 29.4998 46.2C29.2998 46.1 29.1998 46.1 29.0998 46.1Z" fill="#474747"/>
<defs>
<linearGradient id="paint0_linear_4990_38205" x1="30" y1="56" x2="30" y2="4" gradientUnits="userSpaceOnUse">
<stop stop-color="#0067FA"/>
<stop offset="1" stop-color="#00D4FF"/>
</linearGradient>
<linearGradient id="paint1_linear_4990_38205" x1="39.9395" y1="56" x2="39.9395" y2="4" gradientUnits="userSpaceOnUse">
<stop stop-color="#CFDBE6"/>
<stop offset="1" stop-color="#F1F2F3"/>
</linearGradient>
</defs>
</svg>
