<svg viewBox="0 0 300 300" fill="none" xmlns="http://www.w3.org/2000/svg">
<path d="M18.45 160.8C24.4975 160.8 29.4 155.898 29.4 149.85C29.4 143.803 24.4975 138.9 18.45 138.9C12.4025 138.9 7.5 143.803 7.5 149.85C7.5 155.898 12.4025 160.8 18.45 160.8Z" fill="#8061FE"/>
<path d="M286.65 155.7C289.881 155.7 292.5 153.081 292.5 149.85C292.5 146.619 289.881 144 286.65 144C283.419 144 280.8 146.619 280.8 149.85C280.8 153.081 283.419 155.7 286.65 155.7Z" fill="#8061FE"/>
<path d="M268.65 86.25C270.638 86.25 272.25 84.6382 272.25 82.65C272.25 80.6618 270.638 79.05 268.65 79.05C266.662 79.05 265.05 80.6618 265.05 82.65C265.05 84.6382 266.662 86.25 268.65 86.25Z" fill="#FF4775"/>
<path d="M36.3002 220.5C38.2884 220.5 39.9002 218.888 39.9002 216.9C39.9002 214.912 38.2884 213.3 36.3002 213.3C34.312 213.3 32.7002 214.912 32.7002 216.9C32.7002 218.888 34.312 220.5 36.3002 220.5Z" fill="#FF4775"/>
<path d="M152.55 19.2C154.538 19.2 156.15 17.5882 156.15 15.6C156.15 13.6118 154.538 12 152.55 12C150.562 12 148.95 13.6118 148.95 15.6C148.95 17.5882 150.562 19.2 152.55 19.2Z" fill="#8061FE"/>
<path d="M152.55 287.55C154.538 287.55 156.15 285.938 156.15 283.95C156.15 281.962 154.538 280.35 152.55 280.35C150.562 280.35 148.95 281.962 148.95 283.95C148.95 285.938 150.562 287.55 152.55 287.55Z" fill="#8061FE"/>
<path d="M36.3002 86.25C38.2884 86.25 39.9002 84.6382 39.9002 82.65C39.9002 80.6618 38.2884 79.05 36.3002 79.05C34.312 79.05 32.7002 80.6618 32.7002 82.65C32.7002 84.6382 34.312 86.25 36.3002 86.25Z" fill="#009AFF"/>
<path d="M268.65 220.5C270.638 220.5 272.25 218.888 272.25 216.9C272.25 214.912 270.638 213.3 268.65 213.3C266.662 213.3 265.05 214.912 265.05 216.9C265.05 218.888 266.662 220.5 268.65 220.5Z" fill="#009AFF"/>
<path d="M213.15 273.15C219.198 273.15 224.1 268.248 224.1 262.2C224.1 256.152 219.198 251.25 213.15 251.25C207.103 251.25 202.2 256.152 202.2 262.2C202.2 268.248 207.103 273.15 213.15 273.15Z" fill="#FF4775"/>
<path d="M78.8998 35.7C82.1307 35.7 84.7498 33.0809 84.7498 29.85C84.7498 26.6191 82.1307 24 78.8998 24C75.6689 24 73.0498 26.6191 73.0498 29.85C73.0498 33.0809 75.6689 35.7 78.8998 35.7Z" fill="#FF4775"/>
<path d="M215.85 51.15C221.898 51.15 226.8 46.2475 226.8 40.2C226.8 34.1525 221.898 29.25 215.85 29.25C209.803 29.25 204.9 34.1525 204.9 40.2C204.9 46.2475 209.803 51.15 215.85 51.15Z" fill="#009AFF"/>
<path d="M81.7499 278.4C84.9808 278.4 87.5999 275.781 87.5999 272.55C87.5999 269.319 84.9808 266.7 81.7499 266.7C78.519 266.7 75.8999 269.319 75.8999 272.55C75.8999 275.781 78.519 278.4 81.7499 278.4Z" fill="#009AFF"/>
<path opacity="0.1" d="M152.55 241.95C203.416 241.95 244.65 200.715 244.65 149.85C244.65 98.9846 203.416 57.75 152.55 57.75C101.685 57.75 60.4502 98.9846 60.4502 149.85C60.4502 200.715 101.685 241.95 152.55 241.95Z" fill="#00E9A8"/>
<path d="M152.55 215.1C188.586 215.1 217.8 185.887 217.8 149.85C217.8 113.813 188.586 84.6 152.55 84.6C116.513 84.6 87.2998 113.813 87.2998 149.85C87.2998 185.887 116.513 215.1 152.55 215.1Z" fill="#00E9A8"/>
<path d="M143.85 173.7L117.15 147.15L122.55 141.75L143.7 163.05L183.15 123L188.55 128.25L143.85 173.7Z" fill="white"/>
</svg>
