<svg viewBox="0 0 44 44" fill="none" xmlns="http://www.w3.org/2000/svg">
<path d="M29.8375 40.8375H7.8375C5.7611 40.8302 3.77181 40.0022 2.30356 38.5339C0.835309 37.0657 0.00724755 35.0764 0 33V11C0.00724755 8.92357 0.835309 6.93428 2.30356 5.46603C3.77181 3.99778 5.7611 3.16972 7.8375 3.16248H29.8375C31.9139 3.16972 33.9032 3.99778 35.3714 5.46603C36.8397 6.93428 37.6678 8.92357 37.675 11V33C37.6678 35.0764 36.8397 37.0657 35.3714 38.5339C33.9032 40.0022 31.9139 40.8302 29.8375 40.8375ZM7.8375 5.08748C6.26941 5.08748 4.76554 5.7104 3.65673 6.81921C2.54792 7.92802 1.925 9.43188 1.925 11V33C1.925 34.5681 2.54792 36.0719 3.65673 37.1807C4.76554 38.2896 6.26941 38.9125 7.8375 38.9125H29.8375C31.4056 38.9125 32.9095 38.2896 34.0183 37.1807C35.1271 36.0719 35.75 34.5681 35.75 33V11C35.75 9.43188 35.1271 7.92802 34.0183 6.81921C32.9095 5.7104 31.4056 5.08748 29.8375 5.08748H7.8375Z" fill="#0095F2"/>
<path d="M26.8675 30.8275C24.9374 32.2628 22.5901 33.0259 20.185 33C18.728 33.0458 17.2772 32.7926 15.9219 32.256C14.5666 31.7194 13.3356 30.9108 12.3049 29.8801C11.2742 28.8494 10.4656 27.6184 9.92897 26.2631C9.39238 24.9078 9.13917 23.4569 9.18497 22C9.15501 20.5472 9.41906 19.1034 9.96125 17.7553C10.5034 16.4071 11.3126 15.1825 12.3401 14.1551C13.3675 13.1276 14.5921 12.3185 15.9403 11.7763C17.2884 11.2341 18.7322 10.97 20.185 11C22.5056 10.9702 24.7732 11.6939 26.6475 13.0625L25.6575 16.06C24.0841 14.8373 22.1501 14.1701 20.1575 14.1625C19.1478 14.1689 18.1498 14.3789 17.2232 14.78C16.2966 15.181 15.4604 15.7648 14.7647 16.4965C14.0689 17.2282 13.5279 18.0927 13.174 19.0384C12.8201 19.984 12.6606 20.9913 12.705 22C12.6442 23.0244 12.7957 24.0503 13.1499 25.0134C13.5041 25.9765 14.0534 26.8561 14.7634 27.597C15.4734 28.338 16.3287 28.9243 17.2758 29.3193C18.2229 29.7143 19.2414 29.9094 20.2675 29.8925C22.2681 29.8275 24.1954 29.124 25.7675 27.885L26.8675 30.8275Z" fill="#0095F2"/>
</svg>
