<svg viewBox="0 0 44 44" fill="none" xmlns="http://www.w3.org/2000/svg">
<path fill-rule="evenodd" clip-rule="evenodd" d="M15.4818 4.31376C16.7183 3.07812 18.6138 2.80462 20.1251 3.64506H20.1707L20.4124 3.8035C27.0576 8.14917 32.722 13.8121 37.0682 20.4566C38.0929 21.9985 37.8751 24.0817 36.5499 25.3711L36.5472 25.3684L27.6795 34.2361C27.6465 34.2843 27.6121 34.3329 27.5694 34.3758C27.5422 34.403 27.5057 34.418 27.4754 34.4402L26.8873 35.031L26.8685 35.0122L23.3504 38.5357C22.0088 39.8773 19.8259 39.8771 18.4842 38.5357L14.0369 34.0911L8.79205 39.336C6.78886 41.3391 3.50683 41.3388 1.50348 39.336C-0.499858 37.3326 -0.499858 34.0481 1.50348 32.0447L6.74298 26.7998L2.30109 22.3553C0.959537 21.0137 0.959695 18.8308 2.30109 17.489L15.4818 4.31376ZM2.86774 33.4117C1.61811 34.6614 1.61805 36.722 2.86774 37.9717C4.11747 39.2209 6.17823 39.2212 7.4278 37.9717L12.6834 32.7134L8.12335 28.1507L2.86774 33.4117ZM3.66803 18.8533C3.07995 19.4414 3.07995 20.4029 3.66803 20.991L8.79205 26.1177C8.79733 26.123 8.80034 26.1311 8.80548 26.1365L8.82159 26.1231L14.7486 32.0474L14.7352 32.0581L19.8458 37.1714C20.4337 37.7594 21.3954 37.7592 21.9835 37.1714L25.4935 33.6641L7.16998 15.3433L3.66803 18.8533ZM19.3221 5.41215C18.5558 4.90167 17.5205 5.00445 16.846 5.67801L8.53693 13.9817L26.8846 32.3025L35.191 23.9961L35.2017 23.9881L35.4246 23.7303C35.8793 23.0898 35.9099 22.1961 35.4595 21.5201L35.4542 21.5147C35.028 20.8632 34.5849 20.2234 34.1329 19.5918L28.9444 24.783C28.5677 25.1583 27.9592 25.1588 27.5828 24.783C27.2063 24.4065 27.2069 23.7956 27.5828 23.4187L32.9727 18.0262C32.1752 16.9907 31.342 15.9851 30.4752 15.0103L26.992 18.5203C26.6169 18.8977 26.0058 18.8999 25.6277 18.5257C25.2504 18.1501 25.2498 17.5366 25.6251 17.1587L29.1646 13.5896C26.2903 10.5755 23.0803 7.88386 19.5853 5.57328H19.5638L19.3221 5.41215Z" fill="#0095F2"/>
</svg>
