<svg viewBox="0 0 44 44" fill="none" xmlns="http://www.w3.org/2000/svg">
<path d="M26.2526 16.4289C26.8092 16.6516 27.4 16.7543 27.9994 16.7629C28.2991 16.7286 28.5902 16.7201 28.8813 16.6687C30.0458 16.4632 30.9706 15.8809 31.5785 14.8534C32.3663 13.5091 32.4433 12.1049 31.8439 10.6749C31.3816 9.5618 30.551 8.82543 29.3951 8.47437C28.4789 8.20037 27.5541 8.1918 26.6379 8.45724C25.6019 8.75693 24.8056 9.37343 24.3004 10.3324C23.5811 11.7024 23.5554 13.1152 24.2062 14.5195C24.6257 15.4186 25.3193 16.0607 26.2441 16.4375L26.2526 16.4289Z" fill="#0095F2"/>
<path d="M22.0056 3.06287L21.8258 3.09712L21.7573 3.11424C21.0466 3.25124 20.4901 3.61943 20.0705 4.22737C19.9335 4.4243 19.8051 4.62124 19.6681 4.81818L19.454 5.13499L18.5977 6.41937C17.2877 8.38874 15.9776 10.3496 14.6676 12.3275C14.4449 12.6614 14.1624 12.8156 13.7599 12.8156C11.508 12.8156 9.26462 12.8156 7.01269 12.8156H0.0085625V22.4141L5.04331 27.6201L6.31913 26.2501L6.49037 26.0617L6.96131 25.5566L7.44937 26.0446L9.88112 28.4849L11.4138 30.0176L13.2633 31.8157L14.7874 33.3056L15.2669 33.7766L14.796 34.2561L13.3147 35.7374L18.3323 40.755H27.9651V37.8009C27.9651 34.2047 27.9651 30.6084 27.9651 27.0207C27.9651 26.644 28.1278 26.3357 28.4361 26.1302C29.7119 25.2826 30.9877 24.4349 32.2635 23.5872C33.6678 22.6539 35.0634 21.7291 36.4506 20.8044C37.1013 20.3762 37.4866 19.8282 37.6408 19.1261L37.675 18.972V18.8179C37.675 18.7665 37.675 18.7151 37.675 18.6637V14.1427C37.675 11.0431 37.675 7.95205 37.675 4.85243V3.06287H22.0056ZM35.9026 14.1256V18.6295C35.9026 18.6295 35.9026 18.698 35.9026 18.7322C35.8598 18.9463 35.7656 19.109 35.4659 19.3059C34.0702 20.2307 32.6831 21.1554 31.2874 22.0802C30.003 22.9364 28.7272 23.7841 27.4428 24.6404C26.6379 25.1712 26.1756 26.0446 26.1756 27.0122C26.1756 30.6084 26.1756 34.1961 26.1756 37.7924V38.974H19.0516L15.8064 35.7288L16.0376 35.4976L17.7757 33.7509L14.4878 30.5399L13.5373 29.6152L12.6554 28.7504L11.1227 27.2177L8.69094 24.7774L6.90137 22.9878L5.18031 24.8459L5.00906 25.0342C3.93019 23.9211 2.85131 22.7994 1.77244 21.6863V14.5794C3.51919 14.5794 5.26594 14.5794 7.01269 14.5794C9.25606 14.5794 11.508 14.5794 13.7599 14.5794C14.7446 14.5794 15.5923 14.1256 16.1403 13.3036C17.4504 11.3342 18.7519 9.36487 20.0619 7.40405L20.9268 6.11112L21.1237 5.81143C21.2521 5.61449 21.3806 5.41755 21.5176 5.22918C21.6717 4.99799 21.8173 4.9038 22.0827 4.85243C22.1169 4.85243 22.1512 4.8353 22.1854 4.8353H35.9026C35.9026 7.93493 35.9026 11.026 35.9026 14.1256Z" fill="#0095F2"/>
<path d="M1.70394 31.3534H0V40.755H9.41875V39.0425H1.70394V31.3534Z" fill="#0095F2"/>
</svg>
