<svg viewBox="0 0 24 24" fill="none" xmlns="http://www.w3.org/2000/svg">
<path d="M17.9996 22.275H5.99961C4.86703 22.271 3.78196 21.8194 2.9811 21.0185C2.18023 20.2176 1.72856 19.1326 1.72461 18V5.99998C1.72856 4.86739 2.18023 3.78232 2.9811 2.98146C3.78196 2.1806 4.86703 1.72893 5.99961 1.72498H17.9996C19.1322 1.72893 20.2173 2.1806 21.0181 2.98146C21.819 3.78232 22.2707 4.86739 22.2746 5.99998V18C22.2707 19.1326 21.819 20.2176 21.0181 21.0185C20.2173 21.8194 19.1322 22.271 17.9996 22.275ZM5.99961 2.77498C5.14429 2.77498 4.32399 3.11475 3.71919 3.71956C3.11439 4.32436 2.77461 5.14465 2.77461 5.99998V18C2.77461 18.8553 3.11439 19.6756 3.71919 20.2804C4.32399 20.8852 5.14429 21.225 5.99961 21.225H17.9996C18.8549 21.225 19.6752 20.8852 20.28 20.2804C20.8848 19.6756 21.2246 18.8553 21.2246 18V5.99998C21.2246 5.14465 20.8848 4.32436 20.28 3.71956C19.6752 3.11475 18.8549 2.77498 17.9996 2.77498H5.99961Z" fill="#1C1B1F" fill-opacity="0.38"/>
<path d="M6.59961 7.25998H8.09961V16.74H6.59961V7.25998Z" fill="#1C1B1F" fill-opacity="0.38"/>
<path d="M10.0945 7.25998H12.3445C15.5095 7.25998 17.3995 8.99998 17.3995 12C17.3995 15 15.4645 16.74 12.3445 16.74H10.0945V7.25998ZM12.4945 15.435C12.9519 15.476 13.4127 15.4145 13.8433 15.255C14.274 15.0955 14.6637 14.8421 14.984 14.5131C15.3044 14.1841 15.5474 13.7878 15.6954 13.3531C15.8434 12.9184 15.8996 12.4629 15.8996 12C15.8996 11.5371 15.8299 11.0879 15.6789 10.6575C15.5279 10.2272 15.2843 9.83518 14.9654 9.50912C14.6465 9.18307 14.26 8.93089 13.8331 8.77036C13.4062 8.60983 12.9493 8.54484 12.4945 8.57998H11.6095V15.435H12.4945Z" fill="#1C1B1F" fill-opacity="0.38"/>
</svg>
