<svg viewBox="0 0 44 44" fill="none" xmlns="http://www.w3.org/2000/svg">
<path d="M15.2625 22.9074C14.0768 22.9074 12.9177 22.5558 11.9319 21.8971C10.946 21.2383 10.1776 20.302 9.72385 19.2066C9.2701 18.1111 9.15138 16.9058 9.3827 15.7428C9.61402 14.5799 10.185 13.5117 11.0234 12.6733C11.8618 11.8349 12.93 11.2639 14.0929 11.0326C15.2559 10.8013 16.4613 10.92 17.5567 11.3737C18.6521 11.8275 19.5884 12.5959 20.2472 13.5818C20.9059 14.5676 21.2575 15.7267 21.2575 16.9124C21.2503 18.5001 20.6163 20.0208 19.4936 21.1435C18.3709 22.2662 16.8503 22.9002 15.2625 22.9074ZM15.2625 12.8424C14.4575 12.8424 13.6706 13.0811 13.0013 13.5283C12.332 13.9755 11.8104 14.6112 11.5023 15.3549C11.1943 16.0986 11.1137 16.9169 11.2707 17.7064C11.4278 18.4959 11.8154 19.2211 12.3846 19.7903C12.9538 20.3595 13.679 20.7472 14.4685 20.9042C15.258 21.0612 16.0763 20.9806 16.82 20.6726C17.5637 20.3645 18.1994 19.8429 18.6466 19.1736C19.0938 18.5043 19.3325 17.7174 19.3325 16.9124C19.3325 15.833 18.9037 14.7977 18.1404 14.0345C17.3772 13.2712 16.3419 12.8424 15.2625 12.8424Z" fill="#1C1B1F" fill-opacity="0.38"/>
<path d="M7.01251 28.4074C6.88549 28.4333 6.75453 28.4333 6.62751 28.4074C6.50966 28.3597 6.40278 28.2884 6.3134 28.198C6.22402 28.1076 6.15403 27.9999 6.1077 27.8815C6.06137 27.7631 6.03967 27.6364 6.04394 27.5094C6.0482 27.3823 6.07834 27.2574 6.13251 27.1424C6.91085 25.358 8.18475 23.8344 9.80305 22.7522C11.4213 21.6701 13.3161 21.075 15.2625 21.0374C17.3012 21.0458 19.2917 21.6582 20.9825 22.7974C21.0872 22.8696 21.1767 22.9618 21.2458 23.0686C21.315 23.1754 21.3624 23.2948 21.3853 23.4199C21.4083 23.545 21.4064 23.6734 21.3798 23.7978C21.3531 23.9222 21.3022 24.0402 21.23 24.1449C21.1578 24.2496 21.0656 24.3391 20.9588 24.4082C20.852 24.4773 20.7326 24.5247 20.6075 24.5477C20.4824 24.5707 20.354 24.5688 20.2296 24.5422C20.1052 24.5155 19.9872 24.4646 19.8825 24.3924C18.5199 23.4649 16.9108 22.9668 15.2625 22.9624C13.6725 22.9681 12.118 23.4331 10.7861 24.3016C9.45419 25.17 8.40161 26.4048 7.75501 27.8574C7.68949 28.0055 7.58661 28.1341 7.45645 28.2305C7.32629 28.3269 7.17331 28.3879 7.01251 28.4074Z" fill="#1C1B1F" fill-opacity="0.38"/>
<path d="M18.0125 31.9549C17.8854 31.9567 17.7593 31.9334 17.6413 31.8862C17.5233 31.839 17.4158 31.7689 17.325 31.6799L14.3 28.5724C14.2097 28.4821 14.1381 28.3749 14.0892 28.257C14.0404 28.139 14.0152 28.0126 14.0152 27.8849C14.0152 27.7572 14.0404 27.6308 14.0892 27.5128C14.1381 27.3949 14.2097 27.2877 14.3 27.1974C14.3903 27.1071 14.4975 27.0355 14.6154 26.9866C14.7334 26.9378 14.8598 26.9126 14.9875 26.9126C15.1152 26.9126 15.2416 26.9378 15.3596 26.9866C15.4775 27.0355 15.5847 27.1071 15.675 27.1974L18.095 29.6449L24.365 23.3749C24.4522 23.2842 24.5569 23.2121 24.6727 23.1629C24.7884 23.1136 24.9129 23.0882 25.0388 23.0882C25.1646 23.0882 25.2891 23.1136 25.4049 23.1629C25.5206 23.2121 25.6253 23.2842 25.7125 23.3749C25.804 23.4645 25.8766 23.5715 25.9262 23.6895C25.9758 23.8076 26.0014 23.9343 26.0014 24.0624C26.0014 24.1905 25.9758 24.3172 25.9262 24.4353C25.8766 24.5533 25.804 24.6603 25.7125 24.7499L18.7825 31.6799C18.6822 31.7795 18.5612 31.8557 18.4282 31.9032C18.2951 31.9508 18.1532 31.9684 18.0125 31.9549Z" fill="#1C1B1F" fill-opacity="0.38"/>
<path d="M15.2625 40.8374H15.0425C10.6254 39.6981 6.78572 36.9652 4.26251 33.1649C1.4891 29.3851 -0.0043246 24.8181 9.40656e-06 20.1299V9.4874C-0.000676957 9.28945 0.0596853 9.09611 0.172871 8.93371C0.286056 8.77132 0.446559 8.64777 0.632509 8.5799L14.9325 3.2174C15.1447 3.13456 15.3803 3.13456 15.5925 3.2174L29.8925 8.7174C30.0785 8.78527 30.239 8.90882 30.3521 9.07121C30.4653 9.23361 30.5257 9.42695 30.525 9.6249V20.1299C30.5293 24.8181 29.0359 29.3851 26.2625 33.1649C23.7258 36.9585 19.8769 39.6812 15.455 40.8099L15.2625 40.8374ZM1.92501 10.1474V20.1299C1.92184 24.414 3.26899 28.5902 5.77501 32.0649C8.0108 35.4087 11.3806 37.8311 15.2625 38.8849C19.1444 37.8311 22.5142 35.4087 24.75 32.0649C27.256 28.5902 28.6032 24.414 28.6 20.1299V10.1474L15.2625 5.1424L1.92501 10.1474Z" fill="#1C1B1F" fill-opacity="0.38"/>
</svg>
