<svg viewBox="0 0 44 44" fill="none" xmlns="http://www.w3.org/2000/svg">
<path d="M27.2323 40.6722H27.0949C26.7965 40.6713 26.5 40.625 26.2155 40.5348H25.9682H25.8308C25.5955 40.4155 25.3819 40.2576 25.1988 40.0677L11.404 27.482L5.90811 31.6589C5.44096 31.9851 4.884 32.1579 4.31429 32.1536C3.74274 32.1315 3.1975 31.9076 2.77544 31.5215L0.796908 29.7079C0.547011 29.4821 0.347041 29.2066 0.209811 28.899C0.0725813 28.5914 0.00111794 28.2585 0 27.9217C0.0185112 27.4662 0.171501 27.0263 0.439673 26.6577C0.523457 26.4549 0.655526 26.2756 0.824388 26.1355L5.35852 21.9861L0.851867 17.8642C0.755972 17.7932 0.680208 17.6985 0.63203 17.5894C0.431827 17.3875 0.274942 17.147 0.170989 16.8823C0.0670355 16.6177 0.0182018 16.3347 0.0274796 16.0505C0.0247411 15.7091 0.094339 15.371 0.231693 15.0584C0.369047 14.7458 0.571043 14.4658 0.824388 14.2369L2.80292 12.4507C3.22231 12.0567 3.76721 11.8232 4.34177 11.7912C4.91147 11.7869 5.46844 11.9597 5.93559 12.2858L11.404 16.4902L24.8965 4.17936C24.9962 4.05769 25.1172 3.95525 25.2537 3.87709L25.5285 3.71221L25.9132 3.51985L26.4079 3.35498H26.6827C26.8925 3.32764 27.1049 3.32764 27.3147 3.35498H27.617L28.1116 3.49237L28.4963 3.62977L35.8608 7.17464C36.4052 7.43467 36.8646 7.84383 37.1856 8.35459C37.5067 8.86534 37.6762 9.45672 37.6745 10.06V33.9397C37.6853 34.5556 37.5204 35.1618 37.1992 35.6874C36.8781 36.213 36.4138 36.6362 35.8608 36.9075L28.5238 40.3974C28.1507 40.5626 27.7498 40.6558 27.3422 40.6722H27.2323ZM26.6552 38.6937H27.0674C27.2665 38.7377 27.4728 38.7377 27.6719 38.6937L35.0365 35.1488C35.2509 35.0417 35.4314 34.877 35.5575 34.6732C35.6837 34.4694 35.7507 34.2344 35.7509 33.9947V10.0875C35.7631 9.83452 35.7022 9.5834 35.5755 9.36412C35.4488 9.14484 35.2617 8.96667 35.0365 8.85089L27.3147 5.19611H26.93C26.7376 5.19611 26.6552 5.19611 26.6002 5.19611H26.3804L12.1185 18.4413C11.943 18.5817 11.725 18.6583 11.5002 18.6583C11.2754 18.6583 11.0574 18.5817 10.8819 18.4413L4.75397 13.7423C4.64568 13.7155 4.5325 13.7155 4.42421 13.7423C4.31642 13.7117 4.20225 13.7117 4.09446 13.7423L2.11593 15.5284C2.06259 15.5828 2.02056 15.6473 1.99226 15.718C1.96397 15.7888 1.94996 15.8644 1.95105 15.9406C1.92186 16.0383 1.92192 16.1424 1.95122 16.2401C1.98052 16.3378 2.03778 16.4247 2.11593 16.4902L7.44697 21.2717C7.54339 21.364 7.62012 21.4749 7.67255 21.5977C7.72497 21.7205 7.75199 21.8526 7.75199 21.9861C7.75199 22.1196 7.72497 22.2518 7.67255 22.3746C7.62012 22.4973 7.54339 22.6083 7.44697 22.7006L2.11593 27.482C2.11593 27.7294 1.95105 27.8118 1.95105 27.8942C1.95311 28.0392 2.01238 28.1775 2.11593 28.279L4.09446 30.0651C4.20072 30.1052 4.31795 30.1052 4.42421 30.0651C4.53179 30.0972 4.64639 30.0972 4.75397 30.0651L10.8819 25.5035C11.0526 25.3528 11.2725 25.2697 11.5002 25.2697C11.7279 25.2697 11.9478 25.3528 12.1185 25.5035L26.188 38.4739L26.5453 38.7212L26.6552 38.6937ZM27.7819 31.0544C27.5619 31.0485 27.3497 30.9713 27.1773 30.8346L16.5152 22.7556C16.3958 22.666 16.2988 22.5498 16.2321 22.4163C16.1653 22.2827 16.1305 22.1354 16.1305 21.9861C16.1305 21.8368 16.1653 21.6896 16.2321 21.556C16.2988 21.4225 16.3958 21.3063 16.5152 21.2167L27.0949 13.1377C27.2375 13.0224 27.4101 12.9502 27.5924 12.9298C27.7747 12.9093 27.9591 12.9414 28.1237 13.0223C28.2884 13.1032 28.4264 13.2294 28.5217 13.3862C28.6169 13.543 28.6653 13.7237 28.6612 13.9071V30.23C28.658 30.4091 28.6049 30.5837 28.5078 30.7342C28.4107 30.8847 28.2734 31.0051 28.1116 31.0819C28.0009 31.0886 27.8899 31.0793 27.7819 31.0544ZM18.6861 21.9861L26.93 28.1416V15.8307L18.6861 21.9861Z" fill="#1C1B1F" fill-opacity="0.38"/>
</svg>
