<svg viewBox="0 0 44 44" fill="none" xmlns="http://www.w3.org/2000/svg">
<path d="M27.4 9.9625C32.1265 9.9625 35.9625 14.1752 35.9625 19.3812C35.9625 24.5872 32.1265 28.8 27.4 28.8H10.275C5.5485 28.8 1.7125 24.5872 1.7125 19.3812C1.7125 14.1752 5.5485 9.9625 10.275 9.9625H27.4ZM27.4 8.25H10.275C4.60663 8.25 0 13.2419 0 19.3812C0 25.5206 4.60663 30.5125 10.275 30.5125H27.4C33.0684 30.5125 37.675 25.5206 37.675 19.3812C37.675 13.2419 33.0684 8.25 27.4 8.25Z" fill="#1C1B1F" fill-opacity="0.38"/>
<path d="M26.5437 27.019C30.7998 27.019 34.25 23.5688 34.25 19.3127C34.25 15.0567 30.7998 11.6065 26.5437 11.6065C22.2877 11.6065 18.8375 15.0567 18.8375 19.3127C18.8375 23.5688 22.2877 27.019 26.5437 27.019Z" fill="#1C1B1F" fill-opacity="0.38"/>
<path d="M26.2441 14.5349C26.3211 14.4236 26.2441 14.278 26.1071 14.2951C23.7609 14.6119 21.9542 16.6156 21.9542 19.0387C21.9542 21.6846 24.0949 23.8252 26.7407 23.8252C28.6758 23.8252 30.3369 22.6778 31.099 21.0338C31.1418 20.9311 31.0648 20.8197 30.9534 20.8283C30.8507 20.8283 30.7394 20.8283 30.6366 20.8283C27.8281 20.8283 25.5505 18.9531 25.5505 16.6412C25.5505 15.8706 25.7988 15.1514 26.2441 14.5349Z" fill="white"/>
</svg>
