<svg viewBox="0 0 44 44" fill="none" xmlns="http://www.w3.org/2000/svg">
<path d="M25.1624 25.8225C24.868 25.83 24.5823 25.722 24.3664 25.5216C24.1505 25.3211 24.0217 25.0442 24.0074 24.75C24.0074 24.4436 24.1291 24.1499 24.3457 23.9333C24.5623 23.7167 24.8561 23.595 25.1624 23.595C25.4688 23.595 25.7625 23.7167 25.9791 23.9333C26.1957 24.1499 26.3174 24.4436 26.3174 24.75C26.3175 24.9004 26.2874 25.0493 26.2291 25.1879C26.1707 25.3265 26.0852 25.4521 25.9775 25.5571C25.8699 25.6622 25.7423 25.7372 25.6024 25.7922C25.4624 25.8472 25.3128 25.8261 25.1624 25.8225ZM12.5124 25.8775C12.3621 25.8811 12.2125 25.8547 12.0725 25.7997C11.9325 25.7447 11.805 25.6622 11.6973 25.5571C11.5897 25.4521 11.5042 25.3265 11.4458 25.1879C11.3874 25.0493 11.3574 24.9004 11.3574 24.75C11.3574 24.4436 11.4791 24.1499 11.6957 23.9333C11.9123 23.7167 12.2061 23.595 12.5124 23.595C12.8188 23.595 13.1125 23.7167 13.3291 23.9333C13.5457 24.1499 13.6674 24.4436 13.6674 24.75C13.6675 24.9004 13.6374 25.0493 13.5791 25.1879C13.5207 25.3265 13.4352 25.4521 13.3275 25.5571C13.2199 25.6622 13.0923 25.7447 12.9524 25.7997C12.8124 25.8547 12.6628 25.8811 12.5124 25.8775ZM25.5749 18.975L27.8574 15.015C27.8913 14.9635 27.914 14.9055 27.924 14.8447C27.9341 14.7839 27.9312 14.7216 27.9156 14.662C27.9001 14.6024 27.8722 14.5467 27.8337 14.4985C27.7953 14.4504 27.7471 14.4108 27.6924 14.3825C27.5822 14.3204 27.4523 14.3029 27.3296 14.3336C27.2069 14.3643 27.1005 14.4408 27.0324 14.5475L24.7224 18.5625C22.8724 17.729 20.8665 17.2981 18.8374 17.2981C16.8084 17.2981 14.8024 17.729 12.9524 18.5625L10.5874 14.4925C10.5193 14.3858 10.413 14.3093 10.2903 14.2786C10.1675 14.2479 10.0377 14.2654 9.92743 14.3275C9.87273 14.3558 9.82459 14.3954 9.78614 14.4435C9.74769 14.4917 9.71978 14.5474 9.70423 14.607C9.68867 14.6666 9.68581 14.7289 9.69584 14.7897C9.70587 14.8505 9.72855 14.9085 9.76243 14.96L12.0449 18.92C10.0763 20.0058 8.40935 21.565 7.19461 23.4567C5.97986 25.3485 5.25565 27.5131 5.08743 29.755H32.5874C32.4135 27.5078 31.681 25.3396 30.4564 23.4474C29.2317 21.5553 27.5538 19.999 25.5749 18.92" fill="#1C1B1F" fill-opacity="0.38"/>
<path d="M29.8375 40.8375H7.8375C5.7611 40.8302 3.77181 40.0022 2.30356 38.5339C0.835309 37.0657 0.00724755 35.0764 0 33V11C0.00724755 8.92357 0.835309 6.93428 2.30356 5.46603C3.77181 3.99778 5.7611 3.16972 7.8375 3.16248H29.8375C31.9139 3.16972 33.9032 3.99778 35.3714 5.46603C36.8397 6.93428 37.6678 8.92357 37.675 11V33C37.6678 35.0764 36.8397 37.0657 35.3714 38.5339C33.9032 40.0022 31.9139 40.8302 29.8375 40.8375ZM7.8375 5.08748C6.26941 5.08748 4.76554 5.7104 3.65673 6.81921C2.54792 7.92802 1.925 9.43188 1.925 11V33C1.925 34.5681 2.54792 36.0719 3.65673 37.1807C4.76554 38.2896 6.26941 38.9125 7.8375 38.9125H29.8375C31.4056 38.9125 32.9095 38.2896 34.0183 37.1807C35.1271 36.0719 35.75 34.5681 35.75 33V11C35.75 9.43188 35.1271 7.92802 34.0183 6.81921C32.9095 5.7104 31.4056 5.08748 29.8375 5.08748H7.8375Z" fill="#1C1B1F" fill-opacity="0.38"/>
</svg>
