<svg viewBox="0 0 44 44" fill="none" xmlns="http://www.w3.org/2000/svg">
<path d="M36.1812 9.93602L36.016 9.74327H35.8783L18.4211 3.21748C18.2087 3.13454 17.9728 3.13454 17.7603 3.21748L0.468316 9.52299H0.33064L0.165431 9.71574C0.0543573 9.85668 -0.00406933 10.032 0.000220471 10.2114V33.8639C0.00152612 34.0655 0.0659841 34.2615 0.184526 34.4245C0.303068 34.5875 0.469728 34.7092 0.66106 34.7726L17.9255 40.8303H18.2559H18.5863L35.8508 34.7726C36.0421 34.7092 36.2088 34.5875 36.3273 34.4245C36.4459 34.2615 36.5103 34.0655 36.5116 33.8639V10.4316C36.4922 10.3312 36.4529 10.2357 36.3962 10.1506C36.3395 10.0655 36.2664 9.99259 36.1812 9.93602ZM18.0907 5.14493L32.519 10.4041L18.0907 15.4155L3.66237 10.4041L18.0907 5.14493ZM1.76246 11.7809L17.127 17.1226V38.5449L1.76246 33.0379V11.7809ZM34.419 33.1755L19.0544 38.5449V17.1226L34.419 11.7809V33.1755Z" fill="#1C1B1F" fill-opacity="0.38"/>
</svg>
