<svg viewBox="0 0 44 44" fill="none" xmlns="http://www.w3.org/2000/svg">
<path fill-rule="evenodd" clip-rule="evenodd" d="M2.37089 3.30399C1.8386 2.77107 0.975578 2.77107 0.443284 3.30399C-0.0890112 3.8369 -0.0890112 4.70094 0.443284 5.23385L1.53007 6.32191C0.547775 7.65039 0.00583173 9.26616 0 10.9389V32.7729C0.00718444 34.8336 0.828035 36.8079 2.2835 38.265C3.73896 39.7222 5.71093 40.544 7.76925 40.5512H29.5777C31.2484 40.5454 32.8623 40.0028 34.1892 39.0193L35.3481 40.1796C35.8804 40.7125 36.7435 40.7125 37.2758 40.1796C37.808 39.6467 37.808 38.7827 37.2758 38.2497L2.37089 3.30399ZM32.8276 37.6561L2.89175 7.68519C2.25514 8.64178 1.90824 9.77243 1.90824 10.9389V32.7729C1.90824 34.3291 2.52573 35.8216 3.62489 36.9221C4.72404 38.0225 6.21481 38.6407 7.76925 38.6407H29.5777C30.7428 38.6407 31.8721 38.2934 32.8276 37.6561Z" fill="#1C1B1F" fill-opacity="0.38"/>
<path d="M35.4387 10.9389V30.8864L37.3468 32.7968L37.3469 32.7729V10.9389C37.3397 8.87815 36.5189 6.90388 35.0634 5.44671C33.608 3.98954 31.636 3.16773 29.5777 3.16054H7.76925L7.74537 3.16066L9.65349 5.07101H29.5777C31.1321 5.07101 32.6229 5.68923 33.722 6.78967C34.8212 7.89011 35.4387 9.38263 35.4387 10.9389Z" fill="#1C1B1F" fill-opacity="0.38"/>
</svg>
