<svg viewBox="0 0 44 44" fill="none" xmlns="http://www.w3.org/2000/svg">
<path d="M35.8607 17.5778C35.8607 14.8788 35.0381 12.514 33.4273 10.5604C33.7786 9.36944 34.2241 6.84181 33.0074 3.69726L32.8532 3.30312L32.4505 3.17459C32.202 3.09748 29.9057 2.4977 25.1932 5.66796C23.2482 5.16243 21.1661 4.89681 19.144 4.89681C17.1048 4.89681 15.0741 5.15386 13.1034 5.66796C8.39084 2.4977 6.09455 3.09748 5.84607 3.17459L5.44336 3.30312L5.28913 3.69726C4.06387 6.85037 4.51799 9.38658 4.86929 10.569C3.24989 12.5654 2.4359 14.9217 2.4359 17.5778C2.4359 27.4142 8.08238 29.9847 13.0091 30.7986C12.7092 31.347 12.4351 32.041 12.2723 32.9236C10.7128 33.5405 8.24518 33.8746 6.60864 31.0128C6.54867 30.8929 5.02352 28.1425 2.00749 27.9368C1.5191 27.9368 0.336681 28.0397 0.0539289 28.965C-0.263097 29.9932 0.902186 30.7986 1.34774 31.1071L1.46769 31.1756C1.46769 31.1756 2.83004 31.8868 3.76398 34.3545C3.78112 34.4059 5.37481 39.1527 12.0752 38.1759C12.0752 39.1698 12.0923 40.0695 12.1009 40.755H13.8574C13.8488 39.8296 13.8317 38.4929 13.8317 37.122V36.0253L12.7606 36.2566C6.78001 37.5676 5.49477 33.9689 5.42622 33.7718C4.51799 31.3641 3.27559 30.2588 2.62441 29.8133C4.18383 30.276 5.05779 31.8268 5.07493 31.8611C7.74822 36.5308 12.1609 34.9285 13.4461 34.3288L13.8831 34.1231L13.9431 33.6433C14.1573 31.9039 14.9113 31.0557 15.2197 30.7729L16.6763 29.4534L14.7228 29.2478C9.82174 28.7251 4.20096 26.9258 4.20096 17.5693C4.20096 15.1787 4.98068 13.0795 6.53153 11.3316L6.8914 10.9289L6.69433 10.4319C6.45441 9.83213 5.80323 7.71577 6.76287 4.83684C7.51688 4.86254 9.35905 5.1967 12.4522 7.34733L12.7864 7.57868L13.1805 7.46729C15.1255 6.92749 17.139 6.66187 19.1526 6.65331C21.149 6.65331 23.2139 6.93606 25.1246 7.46729L25.5188 7.57868L25.8615 7.34733C28.9718 5.18813 30.814 4.86254 31.5423 4.83684C32.5019 7.71577 31.8422 9.83213 31.6108 10.4319L31.4137 10.9374L31.7822 11.3401C33.3245 13.0367 34.1042 15.1359 34.1042 17.5693C34.1042 26.7973 28.7661 28.6566 23.5395 29.2478L21.5774 29.4706L23.0597 30.7815C23.5738 31.2356 24.4477 32.3752 24.4477 34.8429C24.4477 37.122 24.4306 39.0927 24.4135 40.4037C24.4135 40.6007 24.4135 40.5836 24.4135 40.7464H26.1785C26.1871 39.4269 26.2128 37.122 26.2128 34.8343C26.2128 32.975 25.7844 31.6726 25.2789 30.7729C30.2142 29.9247 35.8778 27.3285 35.8778 17.5607L35.8607 17.5778Z" fill="#1C1B1F" fill-opacity="0.38"/>
</svg>
